  0
SECTION
  2
BLOCKS
  0
ENDSEC
  0
SECTION
  2
ENTITIES
  0
LINE
  8
0
 10
107.048
 20
0.00480652
 11
107.145
 21
0.0192108
  0
LINE
  8
0
 10
107.145
 20
0.0192108
 11
107.24
 21
0.043045
  0
LINE
  8
0
 10
107.24
 20
0.043045
 11
107.333
 21
0.0761108
  0
LINE
  8
0
 10
107.333
 20
0.0761108
 11
107.421
 21
0.118073
  0
LINE
  8
0
 10
107.421
 20
0.118073
 11
107.506
 21
0.168518
  0
LINE
  8
0
 10
107.506
 20
0.168518
 11
107.584
 21
0.226974
  0
LINE
  8
0
 10
107.584
 20
0.226974
 11
107.657
 21
0.292892
  0
LINE
  8
0
 10
107.657
 20
0.292892
 11
107.723
 21
0.365601
  0
LINE
  8
0
 10
107.723
 20
0.365601
 11
107.781
 21
0.444427
  0
LINE
  8
0
 10
107.781
 20
0.444427
 11
107.832
 21
0.528595
  0
LINE
  8
0
 10
107.832
 20
0.528595
 11
107.874
 21
0.61731
  0
LINE
  8
0
 10
107.874
 20
0.61731
 11
107.907
 21
0.709702
  0
LINE
  8
0
 10
107.907
 20
0.709702
 11
107.931
 21
0.804901
  0
LINE
  8
0
 10
107.931
 20
0.804901
 11
107.945
 21
0.901978
  0
LINE
  8
0
 10
107.945
 20
0.901978
 11
107.95
 21
1
  0
LINE
  8
0
 10
107.95
 20
1
 11
107.95
 21
176.8
  0
LINE
  8
0
 10
107.95
 20
176.8
 11
107.945
 21
176.898
  0
LINE
  8
0
 10
107.945
 20
176.898
 11
107.931
 21
176.995
  0
LINE
  8
0
 10
107.931
 20
176.995
 11
107.907
 21
177.09
  0
LINE
  8
0
 10
107.907
 20
177.09
 11
107.874
 21
177.183
  0
LINE
  8
0
 10
107.874
 20
177.183
 11
107.832
 21
177.271
  0
LINE
  8
0
 10
107.832
 20
177.271
 11
107.781
 21
177.356
  0
LINE
  8
0
 10
107.781
 20
177.356
 11
107.723
 21
177.434
  0
LINE
  8
0
 10
107.723
 20
177.434
 11
107.657
 21
177.507
  0
LINE
  8
0
 10
107.657
 20
177.507
 11
107.584
 21
177.573
  0
LINE
  8
0
 10
107.584
 20
177.573
 11
107.506
 21
177.631
  0
LINE
  8
0
 10
107.506
 20
177.631
 11
107.421
 21
177.682
  0
LINE
  8
0
 10
107.421
 20
177.682
 11
107.333
 21
177.724
  0
LINE
  8
0
 10
107.333
 20
177.724
 11
107.24
 21
177.757
  0
LINE
  8
0
 10
107.24
 20
177.757
 11
107.145
 21
177.781
  0
LINE
  8
0
 10
107.145
 20
177.781
 11
107.048
 21
177.795
  0
LINE
  8
0
 10
107.048
 20
177.795
 11
106.95
 21
177.8
  0
LINE
  8
0
 10
106.95
 20
177.8
 11
1
 21
177.8
  0
LINE
  8
0
 10
1
 20
177.8
 11
0.901978
 21
177.795
  0
LINE
  8
0
 10
0.901978
 20
177.795
 11
0.804901
 21
177.781
  0
LINE
  8
0
 10
0.804901
 20
177.781
 11
0.709702
 21
177.757
  0
LINE
  8
0
 10
0.709702
 20
177.757
 11
0.61731
 21
177.724
  0
LINE
  8
0
 10
0.61731
 20
177.724
 11
0.528595
 21
177.682
  0
LINE
  8
0
 10
0.528595
 20
177.682
 11
0.444427
 21
177.631
  0
LINE
  8
0
 10
0.444427
 20
177.631
 11
0.365601
 21
177.573
  0
LINE
  8
0
 10
0.365601
 20
177.573
 11
0.292892
 21
177.507
  0
LINE
  8
0
 10
0.292892
 20
177.507
 11
0.226974
 21
177.434
  0
LINE
  8
0
 10
0.226974
 20
177.434
 11
0.168518
 21
177.356
  0
LINE
  8
0
 10
0.168518
 20
177.356
 11
0.118073
 21
177.271
  0
LINE
  8
0
 10
0.118073
 20
177.271
 11
0.0761108
 21
177.183
  0
LINE
  8
0
 10
0.0761108
 20
177.183
 11
0.043045
 21
177.09
  0
LINE
  8
0
 10
0.043045
 20
177.09
 11
0.0192108
 21
176.995
  0
LINE
  8
0
 10
0.0192108
 20
176.995
 11
0.00480652
 21
176.898
  0
LINE
  8
0
 10
0.00480652
 20
176.898
 11
0
 21
176.8
  0
LINE
  8
0
 10
0
 20
176.8
 11
0
 21
1
  0
LINE
  8
0
 10
0
 20
1
 11
0.00480652
 21
0.901978
  0
LINE
  8
0
 10
0.00480652
 20
0.901978
 11
0.0192108
 21
0.804901
  0
LINE
  8
0
 10
0.0192108
 20
0.804901
 11
0.043045
 21
0.709702
  0
LINE
  8
0
 10
0.043045
 20
0.709702
 11
0.0761108
 21
0.61731
  0
LINE
  8
0
 10
0.0761108
 20
0.61731
 11
0.118073
 21
0.528595
  0
LINE
  8
0
 10
0.118073
 20
0.528595
 11
0.168518
 21
0.444427
  0
LINE
  8
0
 10
0.168518
 20
0.444427
 11
0.226974
 21
0.365601
  0
LINE
  8
0
 10
0.226974
 20
0.365601
 11
0.292892
 21
0.292892
  0
LINE
  8
0
 10
0.292892
 20
0.292892
 11
0.365601
 21
0.226974
  0
LINE
  8
0
 10
0.365601
 20
0.226974
 11
0.444427
 21
0.168518
  0
LINE
  8
0
 10
0.444427
 20
0.168518
 11
0.528595
 21
0.118073
  0
LINE
  8
0
 10
0.528595
 20
0.118073
 11
0.61731
 21
0.0761108
  0
LINE
  8
0
 10
0.61731
 20
0.0761108
 11
0.709702
 21
0.043045
  0
LINE
  8
0
 10
0.709702
 20
0.043045
 11
0.804901
 21
0.0192108
  0
LINE
  8
0
 10
0.804901
 20
0.0192108
 11
0.901978
 21
0.00480652
  0
LINE
  8
0
 10
0.901978
 20
0.00480652
 11
1
 21
0
  0
LINE
  8
0
 10
1
 20
0
 11
106.95
 21
0
  0
LINE
  8
0
 10
106.95
 20
0
 11
107.048
 21
0.00480652
  0
LINE
  8
0
 10
8.84317
 20
169.858
 11
8.68785
 21
169.881
  0
LINE
  8
0
 10
8.68785
 20
169.881
 11
8.53554
 21
169.919
  0
LINE
  8
0
 10
8.53554
 20
169.919
 11
8.38771
 21
169.972
  0
LINE
  8
0
 10
8.38771
 20
169.972
 11
8.24576
 21
170.039
  0
LINE
  8
0
 10
8.24576
 20
170.039
 11
8.11108
 21
170.12
  0
LINE
  8
0
 10
8.11108
 20
170.12
 11
7.98497
 21
170.213
  0
LINE
  8
0
 10
7.98497
 20
170.213
 11
7.86862
 21
170.319
  0
LINE
  8
0
 10
7.86862
 20
170.319
 11
7.76318
 21
170.435
  0
LINE
  8
0
 10
7.76318
 20
170.435
 11
7.66965
 21
170.561
  0
LINE
  8
0
 10
7.66965
 20
170.561
 11
7.58893
 21
170.696
  0
LINE
  8
0
 10
7.58893
 20
170.696
 11
7.52179
 21
170.838
  0
LINE
  8
0
 10
7.52179
 20
170.838
 11
7.46889
 21
170.986
  0
LINE
  8
0
 10
7.46889
 20
170.986
 11
7.43074
 21
171.138
  0
LINE
  8
0
 10
7.43074
 20
171.138
 11
7.4077
 21
171.293
  0
LINE
  8
0
 10
7.4077
 20
171.293
 11
7.39999
 21
171.45
  0
LINE
  8
0
 10
7.39999
 20
171.45
 11
7.4077
 21
171.607
  0
LINE
  8
0
 10
7.4077
 20
171.607
 11
7.43074
 21
171.762
  0
LINE
  8
0
 10
7.43074
 20
171.762
 11
7.46889
 21
171.914
  0
LINE
  8
0
 10
7.46889
 20
171.914
 11
7.52179
 21
172.062
  0
LINE
  8
0
 10
7.52179
 20
172.062
 11
7.58893
 21
172.204
  0
LINE
  8
0
 10
7.58893
 20
172.204
 11
7.66965
 21
172.339
  0
LINE
  8
0
 10
7.66965
 20
172.339
 11
7.76318
 21
172.465
  0
LINE
  8
0
 10
7.76318
 20
172.465
 11
7.86862
 21
172.581
  0
LINE
  8
0
 10
7.86862
 20
172.581
 11
7.98497
 21
172.687
  0
LINE
  8
0
 10
7.98497
 20
172.687
 11
8.11108
 21
172.78
  0
LINE
  8
0
 10
8.11108
 20
172.78
 11
8.24576
 21
172.861
  0
LINE
  8
0
 10
8.24576
 20
172.861
 11
8.38771
 21
172.928
  0
LINE
  8
0
 10
8.38771
 20
172.928
 11
8.53554
 21
172.981
  0
LINE
  8
0
 10
8.53554
 20
172.981
 11
8.68785
 21
173.019
  0
LINE
  8
0
 10
8.68785
 20
173.019
 11
8.84317
 21
173.042
  0
LINE
  8
0
 10
8.84317
 20
173.042
 11
9
 21
173.05
  0
LINE
  8
0
 10
9
 20
173.05
 11
9.15683
 21
173.042
  0
LINE
  8
0
 10
9.15683
 20
173.042
 11
9.31215
 21
173.019
  0
LINE
  8
0
 10
9.31215
 20
173.019
 11
9.46445
 21
172.981
  0
LINE
  8
0
 10
9.46445
 20
172.981
 11
9.61229
 21
172.928
  0
LINE
  8
0
 10
9.61229
 20
172.928
 11
9.75423
 21
172.861
  0
LINE
  8
0
 10
9.75423
 20
172.861
 11
9.88892
 21
172.78
  0
LINE
  8
0
 10
9.88892
 20
172.78
 11
10.015
 21
172.687
  0
LINE
  8
0
 10
10.015
 20
172.687
 11
10.1314
 21
172.581
  0
LINE
  8
0
 10
10.1314
 20
172.581
 11
10.2368
 21
172.465
  0
LINE
  8
0
 10
10.2368
 20
172.465
 11
10.3304
 21
172.339
  0
LINE
  8
0
 10
10.3304
 20
172.339
 11
10.4111
 21
172.204
  0
LINE
  8
0
 10
10.4111
 20
172.204
 11
10.4782
 21
172.062
  0
LINE
  8
0
 10
10.4782
 20
172.062
 11
10.5311
 21
171.914
  0
LINE
  8
0
 10
10.5311
 20
171.914
 11
10.5693
 21
171.762
  0
LINE
  8
0
 10
10.5693
 20
171.762
 11
10.5923
 21
171.607
  0
LINE
  8
0
 10
10.5923
 20
171.607
 11
10.6
 21
171.45
  0
LINE
  8
0
 10
10.6
 20
171.45
 11
10.5923
 21
171.293
  0
LINE
  8
0
 10
10.5923
 20
171.293
 11
10.5693
 21
171.138
  0
LINE
  8
0
 10
10.5693
 20
171.138
 11
10.5311
 21
170.986
  0
LINE
  8
0
 10
10.5311
 20
170.986
 11
10.4782
 21
170.838
  0
LINE
  8
0
 10
10.4782
 20
170.838
 11
10.4111
 21
170.696
  0
LINE
  8
0
 10
10.4111
 20
170.696
 11
10.3304
 21
170.561
  0
LINE
  8
0
 10
10.3304
 20
170.561
 11
10.2368
 21
170.435
  0
LINE
  8
0
 10
10.2368
 20
170.435
 11
10.1314
 21
170.319
  0
LINE
  8
0
 10
10.1314
 20
170.319
 11
10.015
 21
170.213
  0
LINE
  8
0
 10
10.015
 20
170.213
 11
9.88892
 21
170.12
  0
LINE
  8
0
 10
9.88892
 20
170.12
 11
9.75423
 21
170.039
  0
LINE
  8
0
 10
9.75423
 20
170.039
 11
9.61229
 21
169.972
  0
LINE
  8
0
 10
9.61229
 20
169.972
 11
9.46445
 21
169.919
  0
LINE
  8
0
 10
9.46445
 20
169.919
 11
9.31215
 21
169.881
  0
LINE
  8
0
 10
9.31215
 20
169.881
 11
9.15683
 21
169.858
  0
LINE
  8
0
 10
9.15683
 20
169.858
 11
9
 21
169.85
  0
LINE
  8
0
 10
9
 20
169.85
 11
8.84317
 21
169.858
  0
LINE
  8
0
 10
98.7932
 20
169.858
 11
98.6378
 21
169.881
  0
LINE
  8
0
 10
98.6378
 20
169.881
 11
98.4855
 21
169.919
  0
LINE
  8
0
 10
98.4855
 20
169.919
 11
98.3377
 21
169.972
  0
LINE
  8
0
 10
98.3377
 20
169.972
 11
98.1958
 21
170.039
  0
LINE
  8
0
 10
98.1958
 20
170.039
 11
98.0611
 21
170.12
  0
LINE
  8
0
 10
98.0611
 20
170.12
 11
97.935
 21
170.213
  0
LINE
  8
0
 10
97.935
 20
170.213
 11
97.8186
 21
170.319
  0
LINE
  8
0
 10
97.8186
 20
170.319
 11
97.7132
 21
170.435
  0
LINE
  8
0
 10
97.7132
 20
170.435
 11
97.6196
 21
170.561
  0
LINE
  8
0
 10
97.6196
 20
170.561
 11
97.5389
 21
170.696
  0
LINE
  8
0
 10
97.5389
 20
170.696
 11
97.4718
 21
170.838
  0
LINE
  8
0
 10
97.4718
 20
170.838
 11
97.4189
 21
170.986
  0
LINE
  8
0
 10
97.4189
 20
170.986
 11
97.3807
 21
171.138
  0
LINE
  8
0
 10
97.3807
 20
171.138
 11
97.3577
 21
171.293
  0
LINE
  8
0
 10
97.3577
 20
171.293
 11
97.35
 21
171.45
  0
LINE
  8
0
 10
97.35
 20
171.45
 11
97.3577
 21
171.607
  0
LINE
  8
0
 10
97.3577
 20
171.607
 11
97.3807
 21
171.762
  0
LINE
  8
0
 10
97.3807
 20
171.762
 11
97.4189
 21
171.914
  0
LINE
  8
0
 10
97.4189
 20
171.914
 11
97.4718
 21
172.062
  0
LINE
  8
0
 10
97.4718
 20
172.062
 11
97.5389
 21
172.204
  0
LINE
  8
0
 10
97.5389
 20
172.204
 11
97.6196
 21
172.339
  0
LINE
  8
0
 10
97.6196
 20
172.339
 11
97.7132
 21
172.465
  0
LINE
  8
0
 10
97.7132
 20
172.465
 11
97.8186
 21
172.581
  0
LINE
  8
0
 10
97.8186
 20
172.581
 11
97.935
 21
172.687
  0
LINE
  8
0
 10
97.935
 20
172.687
 11
98.0611
 21
172.78
  0
LINE
  8
0
 10
98.0611
 20
172.78
 11
98.1958
 21
172.861
  0
LINE
  8
0
 10
98.1958
 20
172.861
 11
98.3377
 21
172.928
  0
LINE
  8
0
 10
98.3377
 20
172.928
 11
98.4855
 21
172.981
  0
LINE
  8
0
 10
98.4855
 20
172.981
 11
98.6378
 21
173.019
  0
LINE
  8
0
 10
98.6378
 20
173.019
 11
98.7932
 21
173.042
  0
LINE
  8
0
 10
98.7932
 20
173.042
 11
98.95
 21
173.05
  0
LINE
  8
0
 10
98.95
 20
173.05
 11
99.1068
 21
173.042
  0
LINE
  8
0
 10
99.1068
 20
173.042
 11
99.2621
 21
173.019
  0
LINE
  8
0
 10
99.2621
 20
173.019
 11
99.4144
 21
172.981
  0
LINE
  8
0
 10
99.4144
 20
172.981
 11
99.5623
 21
172.928
  0
LINE
  8
0
 10
99.5623
 20
172.928
 11
99.7042
 21
172.861
  0
LINE
  8
0
 10
99.7042
 20
172.861
 11
99.8389
 21
172.78
  0
LINE
  8
0
 10
99.8389
 20
172.78
 11
99.965
 21
172.687
  0
LINE
  8
0
 10
99.965
 20
172.687
 11
100.081
 21
172.581
  0
LINE
  8
0
 10
100.081
 20
172.581
 11
100.187
 21
172.465
  0
LINE
  8
0
 10
100.187
 20
172.465
 11
100.28
 21
172.339
  0
LINE
  8
0
 10
100.28
 20
172.339
 11
100.361
 21
172.204
  0
LINE
  8
0
 10
100.361
 20
172.204
 11
100.428
 21
172.062
  0
LINE
  8
0
 10
100.428
 20
172.062
 11
100.481
 21
171.914
  0
LINE
  8
0
 10
100.481
 20
171.914
 11
100.519
 21
171.762
  0
LINE
  8
0
 10
100.519
 20
171.762
 11
100.542
 21
171.607
  0
LINE
  8
0
 10
100.542
 20
171.607
 11
100.55
 21
171.45
  0
LINE
  8
0
 10
100.55
 20
171.45
 11
100.542
 21
171.293
  0
LINE
  8
0
 10
100.542
 20
171.293
 11
100.519
 21
171.138
  0
LINE
  8
0
 10
100.519
 20
171.138
 11
100.481
 21
170.986
  0
LINE
  8
0
 10
100.481
 20
170.986
 11
100.428
 21
170.838
  0
LINE
  8
0
 10
100.428
 20
170.838
 11
100.361
 21
170.696
  0
LINE
  8
0
 10
100.361
 20
170.696
 11
100.28
 21
170.561
  0
LINE
  8
0
 10
100.28
 20
170.561
 11
100.187
 21
170.435
  0
LINE
  8
0
 10
100.187
 20
170.435
 11
100.081
 21
170.319
  0
LINE
  8
0
 10
100.081
 20
170.319
 11
99.965
 21
170.213
  0
LINE
  8
0
 10
99.965
 20
170.213
 11
99.8389
 21
170.12
  0
LINE
  8
0
 10
99.8389
 20
170.12
 11
99.7042
 21
170.039
  0
LINE
  8
0
 10
99.7042
 20
170.039
 11
99.5623
 21
169.972
  0
LINE
  8
0
 10
99.5623
 20
169.972
 11
99.4144
 21
169.919
  0
LINE
  8
0
 10
99.4144
 20
169.919
 11
99.2621
 21
169.881
  0
LINE
  8
0
 10
99.2621
 20
169.881
 11
99.1068
 21
169.858
  0
LINE
  8
0
 10
99.1068
 20
169.858
 11
98.95
 21
169.85
  0
LINE
  8
0
 10
98.95
 20
169.85
 11
98.7932
 21
169.858
  0
LINE
  8
0
 10
15.4045
 20
147.623
 11
14.9386
 21
147.692
  0
LINE
  8
0
 10
14.9386
 20
147.692
 11
14.4816
 21
147.807
  0
LINE
  8
0
 10
14.4816
 20
147.807
 11
14.0381
 21
147.965
  0
LINE
  8
0
 10
14.0381
 20
147.965
 11
13.6123
 21
148.167
  0
LINE
  8
0
 10
13.6123
 20
148.167
 11
13.2083
 21
148.409
  0
LINE
  8
0
 10
13.2083
 20
148.409
 11
12.8299
 21
148.69
  0
LINE
  8
0
 10
12.8299
 20
148.69
 11
12.4809
 21
149.006
  0
LINE
  8
0
 10
12.4809
 20
149.006
 11
12.1645
 21
149.355
  0
LINE
  8
0
 10
12.1645
 20
149.355
 11
11.8839
 21
149.733
  0
LINE
  8
0
 10
11.8839
 20
149.733
 11
11.6418
 21
150.137
  0
LINE
  8
0
 10
11.6418
 20
150.137
 11
11.4404
 21
150.563
  0
LINE
  8
0
 10
11.4404
 20
150.563
 11
11.2817
 21
151.007
  0
LINE
  8
0
 10
11.2817
 20
151.007
 11
11.1672
 21
151.464
  0
LINE
  8
0
 10
11.1672
 20
151.464
 11
11.0981
 21
151.93
  0
LINE
  8
0
 10
11.0981
 20
151.93
 11
11.075
 21
152.4
  0
LINE
  8
0
 10
11.075
 20
152.4
 11
11.0981
 21
152.87
  0
LINE
  8
0
 10
11.0981
 20
152.87
 11
11.1672
 21
153.336
  0
LINE
  8
0
 10
11.1672
 20
153.336
 11
11.2817
 21
153.793
  0
LINE
  8
0
 10
11.2817
 20
153.793
 11
11.4404
 21
154.237
  0
LINE
  8
0
 10
11.4404
 20
154.237
 11
11.6418
 21
154.663
  0
LINE
  8
0
 10
11.6418
 20
154.663
 11
11.8839
 21
155.067
  0
LINE
  8
0
 10
11.8839
 20
155.067
 11
12.1645
 21
155.445
  0
LINE
  8
0
 10
12.1645
 20
155.445
 11
12.4809
 21
155.794
  0
LINE
  8
0
 10
12.4809
 20
155.794
 11
12.8299
 21
156.11
  0
LINE
  8
0
 10
12.8299
 20
156.11
 11
13.2083
 21
156.391
  0
LINE
  8
0
 10
13.2083
 20
156.391
 11
13.6123
 21
156.633
  0
LINE
  8
0
 10
13.6123
 20
156.633
 11
14.0381
 21
156.835
  0
LINE
  8
0
 10
14.0381
 20
156.835
 11
14.4816
 21
156.993
  0
LINE
  8
0
 10
14.4816
 20
156.993
 11
14.9386
 21
157.108
  0
LINE
  8
0
 10
14.9386
 20
157.108
 11
15.4045
 21
157.177
  0
LINE
  8
0
 10
15.4045
 20
157.177
 11
15.875
 21
157.2
  0
LINE
  8
0
 10
15.875
 20
157.2
 11
16.3455
 21
157.177
  0
LINE
  8
0
 10
16.3455
 20
157.177
 11
16.8114
 21
157.108
  0
LINE
  8
0
 10
16.8114
 20
157.108
 11
17.2684
 21
156.993
  0
LINE
  8
0
 10
17.2684
 20
156.993
 11
17.7119
 21
156.835
  0
LINE
  8
0
 10
17.7119
 20
156.835
 11
18.1377
 21
156.633
  0
LINE
  8
0
 10
18.1377
 20
156.633
 11
18.5417
 21
156.391
  0
LINE
  8
0
 10
18.5417
 20
156.391
 11
18.9201
 21
156.11
  0
LINE
  8
0
 10
18.9201
 20
156.11
 11
19.2691
 21
155.794
  0
LINE
  8
0
 10
19.2691
 20
155.794
 11
19.5854
 21
155.445
  0
LINE
  8
0
 10
19.5854
 20
155.445
 11
19.866
 21
155.067
  0
LINE
  8
0
 10
19.866
 20
155.067
 11
20.1082
 21
154.663
  0
LINE
  8
0
 10
20.1082
 20
154.663
 11
20.3096
 21
154.237
  0
LINE
  8
0
 10
20.3096
 20
154.237
 11
20.4683
 21
153.793
  0
LINE
  8
0
 10
20.4683
 20
153.793
 11
20.5828
 21
153.336
  0
LINE
  8
0
 10
20.5828
 20
153.336
 11
20.6519
 21
152.87
  0
LINE
  8
0
 10
20.6519
 20
152.87
 11
20.675
 21
152.4
  0
LINE
  8
0
 10
20.675
 20
152.4
 11
20.6519
 21
151.93
  0
LINE
  8
0
 10
20.6519
 20
151.93
 11
20.5828
 21
151.464
  0
LINE
  8
0
 10
20.5828
 20
151.464
 11
20.4683
 21
151.007
  0
LINE
  8
0
 10
20.4683
 20
151.007
 11
20.3096
 21
150.563
  0
LINE
  8
0
 10
20.3096
 20
150.563
 11
20.1082
 21
150.137
  0
LINE
  8
0
 10
20.1082
 20
150.137
 11
19.866
 21
149.733
  0
LINE
  8
0
 10
19.866
 20
149.733
 11
19.5854
 21
149.355
  0
LINE
  8
0
 10
19.5854
 20
149.355
 11
19.2691
 21
149.006
  0
LINE
  8
0
 10
19.2691
 20
149.006
 11
18.9201
 21
148.69
  0
LINE
  8
0
 10
18.9201
 20
148.69
 11
18.5417
 21
148.409
  0
LINE
  8
0
 10
18.5417
 20
148.409
 11
18.1377
 21
148.167
  0
LINE
  8
0
 10
18.1377
 20
148.167
 11
17.7119
 21
147.965
  0
LINE
  8
0
 10
17.7119
 20
147.965
 11
17.2684
 21
147.807
  0
LINE
  8
0
 10
17.2684
 20
147.807
 11
16.8114
 21
147.692
  0
LINE
  8
0
 10
16.8114
 20
147.692
 11
16.3455
 21
147.623
  0
LINE
  8
0
 10
16.3455
 20
147.623
 11
15.875
 21
147.6
  0
LINE
  8
0
 10
15.875
 20
147.6
 11
15.4045
 21
147.623
  0
LINE
  8
0
 10
40.8045
 20
147.623
 11
40.3386
 21
147.692
  0
LINE
  8
0
 10
40.3386
 20
147.692
 11
39.8816
 21
147.807
  0
LINE
  8
0
 10
39.8816
 20
147.807
 11
39.4381
 21
147.965
  0
LINE
  8
0
 10
39.4381
 20
147.965
 11
39.0123
 21
148.167
  0
LINE
  8
0
 10
39.0123
 20
148.167
 11
38.6083
 21
148.409
  0
LINE
  8
0
 10
38.6083
 20
148.409
 11
38.2299
 21
148.69
  0
LINE
  8
0
 10
38.2299
 20
148.69
 11
37.8809
 21
149.006
  0
LINE
  8
0
 10
37.8809
 20
149.006
 11
37.5645
 21
149.355
  0
LINE
  8
0
 10
37.5645
 20
149.355
 11
37.2839
 21
149.733
  0
LINE
  8
0
 10
37.2839
 20
149.733
 11
37.0418
 21
150.137
  0
LINE
  8
0
 10
37.0418
 20
150.137
 11
36.8404
 21
150.563
  0
LINE
  8
0
 10
36.8404
 20
150.563
 11
36.6817
 21
151.007
  0
LINE
  8
0
 10
36.6817
 20
151.007
 11
36.5672
 21
151.464
  0
LINE
  8
0
 10
36.5672
 20
151.464
 11
36.4981
 21
151.93
  0
LINE
  8
0
 10
36.4981
 20
151.93
 11
36.475
 21
152.4
  0
LINE
  8
0
 10
36.475
 20
152.4
 11
36.4981
 21
152.87
  0
LINE
  8
0
 10
36.4981
 20
152.87
 11
36.5672
 21
153.336
  0
LINE
  8
0
 10
36.5672
 20
153.336
 11
36.6817
 21
153.793
  0
LINE
  8
0
 10
36.6817
 20
153.793
 11
36.8404
 21
154.237
  0
LINE
  8
0
 10
36.8404
 20
154.237
 11
37.0418
 21
154.663
  0
LINE
  8
0
 10
37.0418
 20
154.663
 11
37.2839
 21
155.067
  0
LINE
  8
0
 10
37.2839
 20
155.067
 11
37.5645
 21
155.445
  0
LINE
  8
0
 10
37.5645
 20
155.445
 11
37.8809
 21
155.794
  0
LINE
  8
0
 10
37.8809
 20
155.794
 11
38.2299
 21
156.11
  0
LINE
  8
0
 10
38.2299
 20
156.11
 11
38.6083
 21
156.391
  0
LINE
  8
0
 10
38.6083
 20
156.391
 11
39.0123
 21
156.633
  0
LINE
  8
0
 10
39.0123
 20
156.633
 11
39.4381
 21
156.835
  0
LINE
  8
0
 10
39.4381
 20
156.835
 11
39.8816
 21
156.993
  0
LINE
  8
0
 10
39.8816
 20
156.993
 11
40.3386
 21
157.108
  0
LINE
  8
0
 10
40.3386
 20
157.108
 11
40.8045
 21
157.177
  0
LINE
  8
0
 10
40.8045
 20
157.177
 11
41.275
 21
157.2
  0
LINE
  8
0
 10
41.275
 20
157.2
 11
41.7455
 21
157.177
  0
LINE
  8
0
 10
41.7455
 20
157.177
 11
42.2114
 21
157.108
  0
LINE
  8
0
 10
42.2114
 20
157.108
 11
42.6684
 21
156.993
  0
LINE
  8
0
 10
42.6684
 20
156.993
 11
43.1119
 21
156.835
  0
LINE
  8
0
 10
43.1119
 20
156.835
 11
43.5377
 21
156.633
  0
LINE
  8
0
 10
43.5377
 20
156.633
 11
43.9417
 21
156.391
  0
LINE
  8
0
 10
43.9417
 20
156.391
 11
44.3201
 21
156.11
  0
LINE
  8
0
 10
44.3201
 20
156.11
 11
44.6691
 21
155.794
  0
LINE
  8
0
 10
44.6691
 20
155.794
 11
44.9854
 21
155.445
  0
LINE
  8
0
 10
44.9854
 20
155.445
 11
45.2661
 21
155.067
  0
LINE
  8
0
 10
45.2661
 20
155.067
 11
45.5082
 21
154.663
  0
LINE
  8
0
 10
45.5082
 20
154.663
 11
45.7096
 21
154.237
  0
LINE
  8
0
 10
45.7096
 20
154.237
 11
45.8683
 21
153.793
  0
LINE
  8
0
 10
45.8683
 20
153.793
 11
45.9828
 21
153.336
  0
LINE
  8
0
 10
45.9828
 20
153.336
 11
46.0519
 21
152.87
  0
LINE
  8
0
 10
46.0519
 20
152.87
 11
46.075
 21
152.4
  0
LINE
  8
0
 10
46.075
 20
152.4
 11
46.0519
 21
151.93
  0
LINE
  8
0
 10
46.0519
 20
151.93
 11
45.9828
 21
151.464
  0
LINE
  8
0
 10
45.9828
 20
151.464
 11
45.8683
 21
151.007
  0
LINE
  8
0
 10
45.8683
 20
151.007
 11
45.7096
 21
150.563
  0
LINE
  8
0
 10
45.7096
 20
150.563
 11
45.5082
 21
150.137
  0
LINE
  8
0
 10
45.5082
 20
150.137
 11
45.2661
 21
149.733
  0
LINE
  8
0
 10
45.2661
 20
149.733
 11
44.9854
 21
149.355
  0
LINE
  8
0
 10
44.9854
 20
149.355
 11
44.6691
 21
149.006
  0
LINE
  8
0
 10
44.6691
 20
149.006
 11
44.3201
 21
148.69
  0
LINE
  8
0
 10
44.3201
 20
148.69
 11
43.9417
 21
148.409
  0
LINE
  8
0
 10
43.9417
 20
148.409
 11
43.5377
 21
148.167
  0
LINE
  8
0
 10
43.5377
 20
148.167
 11
43.1119
 21
147.965
  0
LINE
  8
0
 10
43.1119
 20
147.965
 11
42.6684
 21
147.807
  0
LINE
  8
0
 10
42.6684
 20
147.807
 11
42.2114
 21
147.692
  0
LINE
  8
0
 10
42.2114
 20
147.692
 11
41.7455
 21
147.623
  0
LINE
  8
0
 10
41.7455
 20
147.623
 11
41.275
 21
147.6
  0
LINE
  8
0
 10
41.275
 20
147.6
 11
40.8045
 21
147.623
  0
LINE
  8
0
 10
66.2045
 20
147.623
 11
65.7386
 21
147.692
  0
LINE
  8
0
 10
65.7386
 20
147.692
 11
65.2816
 21
147.807
  0
LINE
  8
0
 10
65.2816
 20
147.807
 11
64.8381
 21
147.965
  0
LINE
  8
0
 10
64.8381
 20
147.965
 11
64.4123
 21
148.167
  0
LINE
  8
0
 10
64.4123
 20
148.167
 11
64.0083
 21
148.409
  0
LINE
  8
0
 10
64.0083
 20
148.409
 11
63.6299
 21
148.69
  0
LINE
  8
0
 10
63.6299
 20
148.69
 11
63.2809
 21
149.006
  0
LINE
  8
0
 10
63.2809
 20
149.006
 11
62.9645
 21
149.355
  0
LINE
  8
0
 10
62.9645
 20
149.355
 11
62.6839
 21
149.733
  0
LINE
  8
0
 10
62.6839
 20
149.733
 11
62.4418
 21
150.137
  0
LINE
  8
0
 10
62.4418
 20
150.137
 11
62.2404
 21
150.563
  0
LINE
  8
0
 10
62.2404
 20
150.563
 11
62.0817
 21
151.007
  0
LINE
  8
0
 10
62.0817
 20
151.007
 11
61.9672
 21
151.464
  0
LINE
  8
0
 10
61.9672
 20
151.464
 11
61.8981
 21
151.93
  0
LINE
  8
0
 10
61.8981
 20
151.93
 11
61.875
 21
152.4
  0
LINE
  8
0
 10
61.875
 20
152.4
 11
61.8981
 21
152.87
  0
LINE
  8
0
 10
61.8981
 20
152.87
 11
61.9672
 21
153.336
  0
LINE
  8
0
 10
61.9672
 20
153.336
 11
62.0817
 21
153.793
  0
LINE
  8
0
 10
62.0817
 20
153.793
 11
62.2404
 21
154.237
  0
LINE
  8
0
 10
62.2404
 20
154.237
 11
62.4418
 21
154.663
  0
LINE
  8
0
 10
62.4418
 20
154.663
 11
62.6839
 21
155.067
  0
LINE
  8
0
 10
62.6839
 20
155.067
 11
62.9645
 21
155.445
  0
LINE
  8
0
 10
62.9645
 20
155.445
 11
63.2809
 21
155.794
  0
LINE
  8
0
 10
63.2809
 20
155.794
 11
63.6299
 21
156.11
  0
LINE
  8
0
 10
63.6299
 20
156.11
 11
64.0083
 21
156.391
  0
LINE
  8
0
 10
64.0083
 20
156.391
 11
64.4123
 21
156.633
  0
LINE
  8
0
 10
64.4123
 20
156.633
 11
64.8381
 21
156.835
  0
LINE
  8
0
 10
64.8381
 20
156.835
 11
65.2816
 21
156.993
  0
LINE
  8
0
 10
65.2816
 20
156.993
 11
65.7386
 21
157.108
  0
LINE
  8
0
 10
65.7386
 20
157.108
 11
66.2045
 21
157.177
  0
LINE
  8
0
 10
66.2045
 20
157.177
 11
66.675
 21
157.2
  0
LINE
  8
0
 10
66.675
 20
157.2
 11
67.1455
 21
157.177
  0
LINE
  8
0
 10
67.1455
 20
157.177
 11
67.6114
 21
157.108
  0
LINE
  8
0
 10
67.6114
 20
157.108
 11
68.0684
 21
156.993
  0
LINE
  8
0
 10
68.0684
 20
156.993
 11
68.5119
 21
156.835
  0
LINE
  8
0
 10
68.5119
 20
156.835
 11
68.9377
 21
156.633
  0
LINE
  8
0
 10
68.9377
 20
156.633
 11
69.3417
 21
156.391
  0
LINE
  8
0
 10
69.3417
 20
156.391
 11
69.7201
 21
156.11
  0
LINE
  8
0
 10
69.7201
 20
156.11
 11
70.0691
 21
155.794
  0
LINE
  8
0
 10
70.0691
 20
155.794
 11
70.3854
 21
155.445
  0
LINE
  8
0
 10
70.3854
 20
155.445
 11
70.666
 21
155.067
  0
LINE
  8
0
 10
70.666
 20
155.067
 11
70.9082
 21
154.663
  0
LINE
  8
0
 10
70.9082
 20
154.663
 11
71.1096
 21
154.237
  0
LINE
  8
0
 10
71.1096
 20
154.237
 11
71.2683
 21
153.793
  0
LINE
  8
0
 10
71.2683
 20
153.793
 11
71.3828
 21
153.336
  0
LINE
  8
0
 10
71.3828
 20
153.336
 11
71.4519
 21
152.87
  0
LINE
  8
0
 10
71.4519
 20
152.87
 11
71.475
 21
152.4
  0
LINE
  8
0
 10
71.475
 20
152.4
 11
71.4519
 21
151.93
  0
LINE
  8
0
 10
71.4519
 20
151.93
 11
71.3828
 21
151.464
  0
LINE
  8
0
 10
71.3828
 20
151.464
 11
71.2683
 21
151.007
  0
LINE
  8
0
 10
71.2683
 20
151.007
 11
71.1096
 21
150.563
  0
LINE
  8
0
 10
71.1096
 20
150.563
 11
70.9082
 21
150.137
  0
LINE
  8
0
 10
70.9082
 20
150.137
 11
70.666
 21
149.733
  0
LINE
  8
0
 10
70.666
 20
149.733
 11
70.3854
 21
149.355
  0
LINE
  8
0
 10
70.3854
 20
149.355
 11
70.0691
 21
149.006
  0
LINE
  8
0
 10
70.0691
 20
149.006
 11
69.7201
 21
148.69
  0
LINE
  8
0
 10
69.7201
 20
148.69
 11
69.3417
 21
148.409
  0
LINE
  8
0
 10
69.3417
 20
148.409
 11
68.9377
 21
148.167
  0
LINE
  8
0
 10
68.9377
 20
148.167
 11
68.5119
 21
147.965
  0
LINE
  8
0
 10
68.5119
 20
147.965
 11
68.0684
 21
147.807
  0
LINE
  8
0
 10
68.0684
 20
147.807
 11
67.6114
 21
147.692
  0
LINE
  8
0
 10
67.6114
 20
147.692
 11
67.1455
 21
147.623
  0
LINE
  8
0
 10
67.1455
 20
147.623
 11
66.675
 21
147.6
  0
LINE
  8
0
 10
66.675
 20
147.6
 11
66.2045
 21
147.623
  0
LINE
  8
0
 10
91.6045
 20
147.623
 11
91.1386
 21
147.692
  0
LINE
  8
0
 10
91.1386
 20
147.692
 11
90.6816
 21
147.807
  0
LINE
  8
0
 10
90.6816
 20
147.807
 11
90.2381
 21
147.965
  0
LINE
  8
0
 10
90.2381
 20
147.965
 11
89.8123
 21
148.167
  0
LINE
  8
0
 10
89.8123
 20
148.167
 11
89.4082
 21
148.409
  0
LINE
  8
0
 10
89.4082
 20
148.409
 11
89.0299
 21
148.69
  0
LINE
  8
0
 10
89.0299
 20
148.69
 11
88.6809
 21
149.006
  0
LINE
  8
0
 10
88.6809
 20
149.006
 11
88.3645
 21
149.355
  0
LINE
  8
0
 10
88.3645
 20
149.355
 11
88.0839
 21
149.733
  0
LINE
  8
0
 10
88.0839
 20
149.733
 11
87.8418
 21
150.137
  0
LINE
  8
0
 10
87.8418
 20
150.137
 11
87.6404
 21
150.563
  0
LINE
  8
0
 10
87.6404
 20
150.563
 11
87.4817
 21
151.007
  0
LINE
  8
0
 10
87.4817
 20
151.007
 11
87.3672
 21
151.464
  0
LINE
  8
0
 10
87.3672
 20
151.464
 11
87.2981
 21
151.93
  0
LINE
  8
0
 10
87.2981
 20
151.93
 11
87.275
 21
152.4
  0
LINE
  8
0
 10
87.275
 20
152.4
 11
87.2981
 21
152.87
  0
LINE
  8
0
 10
87.2981
 20
152.87
 11
87.3672
 21
153.336
  0
LINE
  8
0
 10
87.3672
 20
153.336
 11
87.4817
 21
153.793
  0
LINE
  8
0
 10
87.4817
 20
153.793
 11
87.6404
 21
154.237
  0
LINE
  8
0
 10
87.6404
 20
154.237
 11
87.8418
 21
154.663
  0
LINE
  8
0
 10
87.8418
 20
154.663
 11
88.0839
 21
155.067
  0
LINE
  8
0
 10
88.0839
 20
155.067
 11
88.3645
 21
155.445
  0
LINE
  8
0
 10
88.3645
 20
155.445
 11
88.6809
 21
155.794
  0
LINE
  8
0
 10
88.6809
 20
155.794
 11
89.0299
 21
156.11
  0
LINE
  8
0
 10
89.0299
 20
156.11
 11
89.4082
 21
156.391
  0
LINE
  8
0
 10
89.4082
 20
156.391
 11
89.8123
 21
156.633
  0
LINE
  8
0
 10
89.8123
 20
156.633
 11
90.2381
 21
156.835
  0
LINE
  8
0
 10
90.2381
 20
156.835
 11
90.6816
 21
156.993
  0
LINE
  8
0
 10
90.6816
 20
156.993
 11
91.1386
 21
157.108
  0
LINE
  8
0
 10
91.1386
 20
157.108
 11
91.6045
 21
157.177
  0
LINE
  8
0
 10
91.6045
 20
157.177
 11
92.075
 21
157.2
  0
LINE
  8
0
 10
92.075
 20
157.2
 11
92.5455
 21
157.177
  0
LINE
  8
0
 10
92.5455
 20
157.177
 11
93.0114
 21
157.108
  0
LINE
  8
0
 10
93.0114
 20
157.108
 11
93.4684
 21
156.993
  0
LINE
  8
0
 10
93.4684
 20
156.993
 11
93.9119
 21
156.835
  0
LINE
  8
0
 10
93.9119
 20
156.835
 11
94.3377
 21
156.633
  0
LINE
  8
0
 10
94.3377
 20
156.633
 11
94.7417
 21
156.391
  0
LINE
  8
0
 10
94.7417
 20
156.391
 11
95.1201
 21
156.11
  0
LINE
  8
0
 10
95.1201
 20
156.11
 11
95.4691
 21
155.794
  0
LINE
  8
0
 10
95.4691
 20
155.794
 11
95.7854
 21
155.445
  0
LINE
  8
0
 10
95.7854
 20
155.445
 11
96.066
 21
155.067
  0
LINE
  8
0
 10
96.066
 20
155.067
 11
96.3082
 21
154.663
  0
LINE
  8
0
 10
96.3082
 20
154.663
 11
96.5096
 21
154.237
  0
LINE
  8
0
 10
96.5096
 20
154.237
 11
96.6683
 21
153.793
  0
LINE
  8
0
 10
96.6683
 20
153.793
 11
96.7828
 21
153.336
  0
LINE
  8
0
 10
96.7828
 20
153.336
 11
96.8519
 21
152.87
  0
LINE
  8
0
 10
96.8519
 20
152.87
 11
96.875
 21
152.4
  0
LINE
  8
0
 10
96.875
 20
152.4
 11
96.8519
 21
151.93
  0
LINE
  8
0
 10
96.8519
 20
151.93
 11
96.7828
 21
151.464
  0
LINE
  8
0
 10
96.7828
 20
151.464
 11
96.6683
 21
151.007
  0
LINE
  8
0
 10
96.6683
 20
151.007
 11
96.5096
 21
150.563
  0
LINE
  8
0
 10
96.5096
 20
150.563
 11
96.3082
 21
150.137
  0
LINE
  8
0
 10
96.3082
 20
150.137
 11
96.066
 21
149.733
  0
LINE
  8
0
 10
96.066
 20
149.733
 11
95.7854
 21
149.355
  0
LINE
  8
0
 10
95.7854
 20
149.355
 11
95.4691
 21
149.006
  0
LINE
  8
0
 10
95.4691
 20
149.006
 11
95.1201
 21
148.69
  0
LINE
  8
0
 10
95.1201
 20
148.69
 11
94.7417
 21
148.409
  0
LINE
  8
0
 10
94.7417
 20
148.409
 11
94.3377
 21
148.167
  0
LINE
  8
0
 10
94.3377
 20
148.167
 11
93.9119
 21
147.965
  0
LINE
  8
0
 10
93.9119
 20
147.965
 11
93.4684
 21
147.807
  0
LINE
  8
0
 10
93.4684
 20
147.807
 11
93.0114
 21
147.692
  0
LINE
  8
0
 10
93.0114
 20
147.692
 11
92.5455
 21
147.623
  0
LINE
  8
0
 10
92.5455
 20
147.623
 11
92.075
 21
147.6
  0
LINE
  8
0
 10
92.075
 20
147.6
 11
91.6045
 21
147.623
  0
LINE
  8
0
 10
53.7251
 20
137.162
 11
53.4775
 21
137.199
  0
LINE
  8
0
 10
53.4775
 20
137.199
 11
53.2348
 21
137.26
  0
LINE
  8
0
 10
53.2348
 20
137.26
 11
52.9991
 21
137.344
  0
LINE
  8
0
 10
52.9991
 20
137.344
 11
52.7729
 21
137.451
  0
LINE
  8
0
 10
52.7729
 20
137.451
 11
52.5583
 21
137.58
  0
LINE
  8
0
 10
52.5583
 20
137.58
 11
52.3573
 21
137.729
  0
LINE
  8
0
 10
52.3573
 20
137.729
 11
52.1719
 21
137.897
  0
LINE
  8
0
 10
52.1719
 20
137.897
 11
52.0038
 21
138.082
  0
LINE
  8
0
 10
52.0038
 20
138.082
 11
51.8548
 21
138.283
  0
LINE
  8
0
 10
51.8548
 20
138.283
 11
51.7261
 21
138.498
  0
LINE
  8
0
 10
51.7261
 20
138.498
 11
51.6191
 21
138.724
  0
LINE
  8
0
 10
51.6191
 20
138.724
 11
51.5348
 21
138.96
  0
LINE
  8
0
 10
51.5348
 20
138.96
 11
51.474
 21
139.203
  0
LINE
  8
0
 10
51.474
 20
139.203
 11
51.4373
 21
139.45
  0
LINE
  8
0
 10
51.4373
 20
139.45
 11
51.425
 21
139.7
  0
LINE
  8
0
 10
51.425
 20
139.7
 11
51.4373
 21
139.95
  0
LINE
  8
0
 10
51.4373
 20
139.95
 11
51.474
 21
140.197
  0
LINE
  8
0
 10
51.474
 20
140.197
 11
51.5348
 21
140.44
  0
LINE
  8
0
 10
51.5348
 20
140.44
 11
51.6191
 21
140.676
  0
LINE
  8
0
 10
51.6191
 20
140.676
 11
51.7261
 21
140.902
  0
LINE
  8
0
 10
51.7261
 20
140.902
 11
51.8548
 21
141.117
  0
LINE
  8
0
 10
51.8548
 20
141.117
 11
52.0038
 21
141.318
  0
LINE
  8
0
 10
52.0038
 20
141.318
 11
52.1719
 21
141.503
  0
LINE
  8
0
 10
52.1719
 20
141.503
 11
52.3573
 21
141.671
  0
LINE
  8
0
 10
52.3573
 20
141.671
 11
52.5583
 21
141.82
  0
LINE
  8
0
 10
52.5583
 20
141.82
 11
52.7729
 21
141.949
  0
LINE
  8
0
 10
52.7729
 20
141.949
 11
52.9991
 21
142.056
  0
LINE
  8
0
 10
52.9991
 20
142.056
 11
53.2348
 21
142.14
  0
LINE
  8
0
 10
53.2348
 20
142.14
 11
53.4775
 21
142.201
  0
LINE
  8
0
 10
53.4775
 20
142.201
 11
53.7251
 21
142.238
  0
LINE
  8
0
 10
53.7251
 20
142.238
 11
53.975
 21
142.25
  0
LINE
  8
0
 10
53.975
 20
142.25
 11
54.2249
 21
142.238
  0
LINE
  8
0
 10
54.2249
 20
142.238
 11
54.4725
 21
142.201
  0
LINE
  8
0
 10
54.4725
 20
142.201
 11
54.7152
 21
142.14
  0
LINE
  8
0
 10
54.7152
 20
142.14
 11
54.9508
 21
142.056
  0
LINE
  8
0
 10
54.9508
 20
142.056
 11
55.177
 21
141.949
  0
LINE
  8
0
 10
55.177
 20
141.949
 11
55.3917
 21
141.82
  0
LINE
  8
0
 10
55.3917
 20
141.82
 11
55.5927
 21
141.671
  0
LINE
  8
0
 10
55.5927
 20
141.671
 11
55.7781
 21
141.503
  0
LINE
  8
0
 10
55.7781
 20
141.503
 11
55.9462
 21
141.318
  0
LINE
  8
0
 10
55.9462
 20
141.318
 11
56.0952
 21
141.117
  0
LINE
  8
0
 10
56.0952
 20
141.117
 11
56.2239
 21
140.902
  0
LINE
  8
0
 10
56.2239
 20
140.902
 11
56.3309
 21
140.676
  0
LINE
  8
0
 10
56.3309
 20
140.676
 11
56.4152
 21
140.44
  0
LINE
  8
0
 10
56.4152
 20
140.44
 11
56.476
 21
140.197
  0
LINE
  8
0
 10
56.476
 20
140.197
 11
56.5127
 21
139.95
  0
LINE
  8
0
 10
56.5127
 20
139.95
 11
56.525
 21
139.7
  0
LINE
  8
0
 10
56.525
 20
139.7
 11
56.5127
 21
139.45
  0
LINE
  8
0
 10
56.5127
 20
139.45
 11
56.476
 21
139.203
  0
LINE
  8
0
 10
56.476
 20
139.203
 11
56.4152
 21
138.96
  0
LINE
  8
0
 10
56.4152
 20
138.96
 11
56.3309
 21
138.724
  0
LINE
  8
0
 10
56.3309
 20
138.724
 11
56.2239
 21
138.498
  0
LINE
  8
0
 10
56.2239
 20
138.498
 11
56.0952
 21
138.283
  0
LINE
  8
0
 10
56.0952
 20
138.283
 11
55.9462
 21
138.082
  0
LINE
  8
0
 10
55.9462
 20
138.082
 11
55.7781
 21
137.897
  0
LINE
  8
0
 10
55.7781
 20
137.897
 11
55.5927
 21
137.729
  0
LINE
  8
0
 10
55.5927
 20
137.729
 11
55.3917
 21
137.58
  0
LINE
  8
0
 10
55.3917
 20
137.58
 11
55.177
 21
137.451
  0
LINE
  8
0
 10
55.177
 20
137.451
 11
54.9508
 21
137.344
  0
LINE
  8
0
 10
54.9508
 20
137.344
 11
54.7152
 21
137.26
  0
LINE
  8
0
 10
54.7152
 20
137.26
 11
54.4725
 21
137.199
  0
LINE
  8
0
 10
54.4725
 20
137.199
 11
54.2249
 21
137.162
  0
LINE
  8
0
 10
54.2249
 20
137.162
 11
53.975
 21
137.15
  0
LINE
  8
0
 10
53.975
 20
137.15
 11
53.7251
 21
137.162
  0
LINE
  8
0
 10
15.4045
 20
122.223
 11
14.9386
 21
122.292
  0
LINE
  8
0
 10
14.9386
 20
122.292
 11
14.4816
 21
122.407
  0
LINE
  8
0
 10
14.4816
 20
122.407
 11
14.0381
 21
122.565
  0
LINE
  8
0
 10
14.0381
 20
122.565
 11
13.6123
 21
122.767
  0
LINE
  8
0
 10
13.6123
 20
122.767
 11
13.2083
 21
123.009
  0
LINE
  8
0
 10
13.2083
 20
123.009
 11
12.8299
 21
123.29
  0
LINE
  8
0
 10
12.8299
 20
123.29
 11
12.4809
 21
123.606
  0
LINE
  8
0
 10
12.4809
 20
123.606
 11
12.1645
 21
123.955
  0
LINE
  8
0
 10
12.1645
 20
123.955
 11
11.8839
 21
124.333
  0
LINE
  8
0
 10
11.8839
 20
124.333
 11
11.6418
 21
124.737
  0
LINE
  8
0
 10
11.6418
 20
124.737
 11
11.4404
 21
125.163
  0
LINE
  8
0
 10
11.4404
 20
125.163
 11
11.2817
 21
125.607
  0
LINE
  8
0
 10
11.2817
 20
125.607
 11
11.1672
 21
126.064
  0
LINE
  8
0
 10
11.1672
 20
126.064
 11
11.0981
 21
126.53
  0
LINE
  8
0
 10
11.0981
 20
126.53
 11
11.075
 21
127
  0
LINE
  8
0
 10
11.075
 20
127
 11
11.0981
 21
127.47
  0
LINE
  8
0
 10
11.0981
 20
127.47
 11
11.1672
 21
127.936
  0
LINE
  8
0
 10
11.1672
 20
127.936
 11
11.2817
 21
128.393
  0
LINE
  8
0
 10
11.2817
 20
128.393
 11
11.4404
 21
128.837
  0
LINE
  8
0
 10
11.4404
 20
128.837
 11
11.6418
 21
129.263
  0
LINE
  8
0
 10
11.6418
 20
129.263
 11
11.8839
 21
129.667
  0
LINE
  8
0
 10
11.8839
 20
129.667
 11
12.1645
 21
130.045
  0
LINE
  8
0
 10
12.1645
 20
130.045
 11
12.4809
 21
130.394
  0
LINE
  8
0
 10
12.4809
 20
130.394
 11
12.8299
 21
130.71
  0
LINE
  8
0
 10
12.8299
 20
130.71
 11
13.2083
 21
130.991
  0
LINE
  8
0
 10
13.2083
 20
130.991
 11
13.6123
 21
131.233
  0
LINE
  8
0
 10
13.6123
 20
131.233
 11
14.0381
 21
131.435
  0
LINE
  8
0
 10
14.0381
 20
131.435
 11
14.4816
 21
131.593
  0
LINE
  8
0
 10
14.4816
 20
131.593
 11
14.9386
 21
131.708
  0
LINE
  8
0
 10
14.9386
 20
131.708
 11
15.4045
 21
131.777
  0
LINE
  8
0
 10
15.4045
 20
131.777
 11
15.875
 21
131.8
  0
LINE
  8
0
 10
15.875
 20
131.8
 11
16.3455
 21
131.777
  0
LINE
  8
0
 10
16.3455
 20
131.777
 11
16.8114
 21
131.708
  0
LINE
  8
0
 10
16.8114
 20
131.708
 11
17.2684
 21
131.593
  0
LINE
  8
0
 10
17.2684
 20
131.593
 11
17.7119
 21
131.435
  0
LINE
  8
0
 10
17.7119
 20
131.435
 11
18.1377
 21
131.233
  0
LINE
  8
0
 10
18.1377
 20
131.233
 11
18.5417
 21
130.991
  0
LINE
  8
0
 10
18.5417
 20
130.991
 11
18.9201
 21
130.71
  0
LINE
  8
0
 10
18.9201
 20
130.71
 11
19.2691
 21
130.394
  0
LINE
  8
0
 10
19.2691
 20
130.394
 11
19.5854
 21
130.045
  0
LINE
  8
0
 10
19.5854
 20
130.045
 11
19.866
 21
129.667
  0
LINE
  8
0
 10
19.866
 20
129.667
 11
20.1082
 21
129.263
  0
LINE
  8
0
 10
20.1082
 20
129.263
 11
20.3096
 21
128.837
  0
LINE
  8
0
 10
20.3096
 20
128.837
 11
20.4683
 21
128.393
  0
LINE
  8
0
 10
20.4683
 20
128.393
 11
20.5828
 21
127.936
  0
LINE
  8
0
 10
20.5828
 20
127.936
 11
20.6519
 21
127.47
  0
LINE
  8
0
 10
20.6519
 20
127.47
 11
20.675
 21
127
  0
LINE
  8
0
 10
20.675
 20
127
 11
20.6519
 21
126.53
  0
LINE
  8
0
 10
20.6519
 20
126.53
 11
20.5828
 21
126.064
  0
LINE
  8
0
 10
20.5828
 20
126.064
 11
20.4683
 21
125.607
  0
LINE
  8
0
 10
20.4683
 20
125.607
 11
20.3096
 21
125.163
  0
LINE
  8
0
 10
20.3096
 20
125.163
 11
20.1082
 21
124.737
  0
LINE
  8
0
 10
20.1082
 20
124.737
 11
19.866
 21
124.333
  0
LINE
  8
0
 10
19.866
 20
124.333
 11
19.5854
 21
123.955
  0
LINE
  8
0
 10
19.5854
 20
123.955
 11
19.2691
 21
123.606
  0
LINE
  8
0
 10
19.2691
 20
123.606
 11
18.9201
 21
123.29
  0
LINE
  8
0
 10
18.9201
 20
123.29
 11
18.5417
 21
123.009
  0
LINE
  8
0
 10
18.5417
 20
123.009
 11
18.1377
 21
122.767
  0
LINE
  8
0
 10
18.1377
 20
122.767
 11
17.7119
 21
122.565
  0
LINE
  8
0
 10
17.7119
 20
122.565
 11
17.2684
 21
122.407
  0
LINE
  8
0
 10
17.2684
 20
122.407
 11
16.8114
 21
122.292
  0
LINE
  8
0
 10
16.8114
 20
122.292
 11
16.3455
 21
122.223
  0
LINE
  8
0
 10
16.3455
 20
122.223
 11
15.875
 21
122.2
  0
LINE
  8
0
 10
15.875
 20
122.2
 11
15.4045
 21
122.223
  0
LINE
  8
0
 10
40.8045
 20
122.223
 11
40.3386
 21
122.292
  0
LINE
  8
0
 10
40.3386
 20
122.292
 11
39.8816
 21
122.407
  0
LINE
  8
0
 10
39.8816
 20
122.407
 11
39.4381
 21
122.565
  0
LINE
  8
0
 10
39.4381
 20
122.565
 11
39.0123
 21
122.767
  0
LINE
  8
0
 10
39.0123
 20
122.767
 11
38.6083
 21
123.009
  0
LINE
  8
0
 10
38.6083
 20
123.009
 11
38.2299
 21
123.29
  0
LINE
  8
0
 10
38.2299
 20
123.29
 11
37.8809
 21
123.606
  0
LINE
  8
0
 10
37.8809
 20
123.606
 11
37.5645
 21
123.955
  0
LINE
  8
0
 10
37.5645
 20
123.955
 11
37.2839
 21
124.333
  0
LINE
  8
0
 10
37.2839
 20
124.333
 11
37.0418
 21
124.737
  0
LINE
  8
0
 10
37.0418
 20
124.737
 11
36.8404
 21
125.163
  0
LINE
  8
0
 10
36.8404
 20
125.163
 11
36.6817
 21
125.607
  0
LINE
  8
0
 10
36.6817
 20
125.607
 11
36.5672
 21
126.064
  0
LINE
  8
0
 10
36.5672
 20
126.064
 11
36.4981
 21
126.53
  0
LINE
  8
0
 10
36.4981
 20
126.53
 11
36.475
 21
127
  0
LINE
  8
0
 10
36.475
 20
127
 11
36.4981
 21
127.47
  0
LINE
  8
0
 10
36.4981
 20
127.47
 11
36.5672
 21
127.936
  0
LINE
  8
0
 10
36.5672
 20
127.936
 11
36.6817
 21
128.393
  0
LINE
  8
0
 10
36.6817
 20
128.393
 11
36.8404
 21
128.837
  0
LINE
  8
0
 10
36.8404
 20
128.837
 11
37.0418
 21
129.263
  0
LINE
  8
0
 10
37.0418
 20
129.263
 11
37.2839
 21
129.667
  0
LINE
  8
0
 10
37.2839
 20
129.667
 11
37.5645
 21
130.045
  0
LINE
  8
0
 10
37.5645
 20
130.045
 11
37.8809
 21
130.394
  0
LINE
  8
0
 10
37.8809
 20
130.394
 11
38.2299
 21
130.71
  0
LINE
  8
0
 10
38.2299
 20
130.71
 11
38.6083
 21
130.991
  0
LINE
  8
0
 10
38.6083
 20
130.991
 11
39.0123
 21
131.233
  0
LINE
  8
0
 10
39.0123
 20
131.233
 11
39.4381
 21
131.435
  0
LINE
  8
0
 10
39.4381
 20
131.435
 11
39.8816
 21
131.593
  0
LINE
  8
0
 10
39.8816
 20
131.593
 11
40.3386
 21
131.708
  0
LINE
  8
0
 10
40.3386
 20
131.708
 11
40.8045
 21
131.777
  0
LINE
  8
0
 10
40.8045
 20
131.777
 11
41.275
 21
131.8
  0
LINE
  8
0
 10
41.275
 20
131.8
 11
41.7455
 21
131.777
  0
LINE
  8
0
 10
41.7455
 20
131.777
 11
42.2114
 21
131.708
  0
LINE
  8
0
 10
42.2114
 20
131.708
 11
42.6684
 21
131.593
  0
LINE
  8
0
 10
42.6684
 20
131.593
 11
43.1119
 21
131.435
  0
LINE
  8
0
 10
43.1119
 20
131.435
 11
43.5377
 21
131.233
  0
LINE
  8
0
 10
43.5377
 20
131.233
 11
43.9417
 21
130.991
  0
LINE
  8
0
 10
43.9417
 20
130.991
 11
44.3201
 21
130.71
  0
LINE
  8
0
 10
44.3201
 20
130.71
 11
44.6691
 21
130.394
  0
LINE
  8
0
 10
44.6691
 20
130.394
 11
44.9854
 21
130.045
  0
LINE
  8
0
 10
44.9854
 20
130.045
 11
45.2661
 21
129.667
  0
LINE
  8
0
 10
45.2661
 20
129.667
 11
45.5082
 21
129.263
  0
LINE
  8
0
 10
45.5082
 20
129.263
 11
45.7096
 21
128.837
  0
LINE
  8
0
 10
45.7096
 20
128.837
 11
45.8683
 21
128.393
  0
LINE
  8
0
 10
45.8683
 20
128.393
 11
45.9828
 21
127.936
  0
LINE
  8
0
 10
45.9828
 20
127.936
 11
46.0519
 21
127.47
  0
LINE
  8
0
 10
46.0519
 20
127.47
 11
46.075
 21
127
  0
LINE
  8
0
 10
46.075
 20
127
 11
46.0519
 21
126.53
  0
LINE
  8
0
 10
46.0519
 20
126.53
 11
45.9828
 21
126.064
  0
LINE
  8
0
 10
45.9828
 20
126.064
 11
45.8683
 21
125.607
  0
LINE
  8
0
 10
45.8683
 20
125.607
 11
45.7096
 21
125.163
  0
LINE
  8
0
 10
45.7096
 20
125.163
 11
45.5082
 21
124.737
  0
LINE
  8
0
 10
45.5082
 20
124.737
 11
45.2661
 21
124.333
  0
LINE
  8
0
 10
45.2661
 20
124.333
 11
44.9854
 21
123.955
  0
LINE
  8
0
 10
44.9854
 20
123.955
 11
44.6691
 21
123.606
  0
LINE
  8
0
 10
44.6691
 20
123.606
 11
44.3201
 21
123.29
  0
LINE
  8
0
 10
44.3201
 20
123.29
 11
43.9417
 21
123.009
  0
LINE
  8
0
 10
43.9417
 20
123.009
 11
43.5377
 21
122.767
  0
LINE
  8
0
 10
43.5377
 20
122.767
 11
43.1119
 21
122.565
  0
LINE
  8
0
 10
43.1119
 20
122.565
 11
42.6684
 21
122.407
  0
LINE
  8
0
 10
42.6684
 20
122.407
 11
42.2114
 21
122.292
  0
LINE
  8
0
 10
42.2114
 20
122.292
 11
41.7455
 21
122.223
  0
LINE
  8
0
 10
41.7455
 20
122.223
 11
41.275
 21
122.2
  0
LINE
  8
0
 10
41.275
 20
122.2
 11
40.8045
 21
122.223
  0
LINE
  8
0
 10
66.2045
 20
122.223
 11
65.7386
 21
122.292
  0
LINE
  8
0
 10
65.7386
 20
122.292
 11
65.2816
 21
122.407
  0
LINE
  8
0
 10
65.2816
 20
122.407
 11
64.8381
 21
122.565
  0
LINE
  8
0
 10
64.8381
 20
122.565
 11
64.4123
 21
122.767
  0
LINE
  8
0
 10
64.4123
 20
122.767
 11
64.0083
 21
123.009
  0
LINE
  8
0
 10
64.0083
 20
123.009
 11
63.6299
 21
123.29
  0
LINE
  8
0
 10
63.6299
 20
123.29
 11
63.2809
 21
123.606
  0
LINE
  8
0
 10
63.2809
 20
123.606
 11
62.9645
 21
123.955
  0
LINE
  8
0
 10
62.9645
 20
123.955
 11
62.6839
 21
124.333
  0
LINE
  8
0
 10
62.6839
 20
124.333
 11
62.4418
 21
124.737
  0
LINE
  8
0
 10
62.4418
 20
124.737
 11
62.2404
 21
125.163
  0
LINE
  8
0
 10
62.2404
 20
125.163
 11
62.0817
 21
125.607
  0
LINE
  8
0
 10
62.0817
 20
125.607
 11
61.9672
 21
126.064
  0
LINE
  8
0
 10
61.9672
 20
126.064
 11
61.8981
 21
126.53
  0
LINE
  8
0
 10
61.8981
 20
126.53
 11
61.875
 21
127
  0
LINE
  8
0
 10
61.875
 20
127
 11
61.8981
 21
127.47
  0
LINE
  8
0
 10
61.8981
 20
127.47
 11
61.9672
 21
127.936
  0
LINE
  8
0
 10
61.9672
 20
127.936
 11
62.0817
 21
128.393
  0
LINE
  8
0
 10
62.0817
 20
128.393
 11
62.2404
 21
128.837
  0
LINE
  8
0
 10
62.2404
 20
128.837
 11
62.4418
 21
129.263
  0
LINE
  8
0
 10
62.4418
 20
129.263
 11
62.6839
 21
129.667
  0
LINE
  8
0
 10
62.6839
 20
129.667
 11
62.9645
 21
130.045
  0
LINE
  8
0
 10
62.9645
 20
130.045
 11
63.2809
 21
130.394
  0
LINE
  8
0
 10
63.2809
 20
130.394
 11
63.6299
 21
130.71
  0
LINE
  8
0
 10
63.6299
 20
130.71
 11
64.0083
 21
130.991
  0
LINE
  8
0
 10
64.0083
 20
130.991
 11
64.4123
 21
131.233
  0
LINE
  8
0
 10
64.4123
 20
131.233
 11
64.8381
 21
131.435
  0
LINE
  8
0
 10
64.8381
 20
131.435
 11
65.2816
 21
131.593
  0
LINE
  8
0
 10
65.2816
 20
131.593
 11
65.7386
 21
131.708
  0
LINE
  8
0
 10
65.7386
 20
131.708
 11
66.2045
 21
131.777
  0
LINE
  8
0
 10
66.2045
 20
131.777
 11
66.675
 21
131.8
  0
LINE
  8
0
 10
66.675
 20
131.8
 11
67.1455
 21
131.777
  0
LINE
  8
0
 10
67.1455
 20
131.777
 11
67.6114
 21
131.708
  0
LINE
  8
0
 10
67.6114
 20
131.708
 11
68.0684
 21
131.593
  0
LINE
  8
0
 10
68.0684
 20
131.593
 11
68.5119
 21
131.435
  0
LINE
  8
0
 10
68.5119
 20
131.435
 11
68.9377
 21
131.233
  0
LINE
  8
0
 10
68.9377
 20
131.233
 11
69.3417
 21
130.991
  0
LINE
  8
0
 10
69.3417
 20
130.991
 11
69.7201
 21
130.71
  0
LINE
  8
0
 10
69.7201
 20
130.71
 11
70.0691
 21
130.394
  0
LINE
  8
0
 10
70.0691
 20
130.394
 11
70.3854
 21
130.045
  0
LINE
  8
0
 10
70.3854
 20
130.045
 11
70.666
 21
129.667
  0
LINE
  8
0
 10
70.666
 20
129.667
 11
70.9082
 21
129.263
  0
LINE
  8
0
 10
70.9082
 20
129.263
 11
71.1096
 21
128.837
  0
LINE
  8
0
 10
71.1096
 20
128.837
 11
71.2683
 21
128.393
  0
LINE
  8
0
 10
71.2683
 20
128.393
 11
71.3828
 21
127.936
  0
LINE
  8
0
 10
71.3828
 20
127.936
 11
71.4519
 21
127.47
  0
LINE
  8
0
 10
71.4519
 20
127.47
 11
71.475
 21
127
  0
LINE
  8
0
 10
71.475
 20
127
 11
71.4519
 21
126.53
  0
LINE
  8
0
 10
71.4519
 20
126.53
 11
71.3828
 21
126.064
  0
LINE
  8
0
 10
71.3828
 20
126.064
 11
71.2683
 21
125.607
  0
LINE
  8
0
 10
71.2683
 20
125.607
 11
71.1096
 21
125.163
  0
LINE
  8
0
 10
71.1096
 20
125.163
 11
70.9082
 21
124.737
  0
LINE
  8
0
 10
70.9082
 20
124.737
 11
70.666
 21
124.333
  0
LINE
  8
0
 10
70.666
 20
124.333
 11
70.3854
 21
123.955
  0
LINE
  8
0
 10
70.3854
 20
123.955
 11
70.0691
 21
123.606
  0
LINE
  8
0
 10
70.0691
 20
123.606
 11
69.7201
 21
123.29
  0
LINE
  8
0
 10
69.7201
 20
123.29
 11
69.3417
 21
123.009
  0
LINE
  8
0
 10
69.3417
 20
123.009
 11
68.9377
 21
122.767
  0
LINE
  8
0
 10
68.9377
 20
122.767
 11
68.5119
 21
122.565
  0
LINE
  8
0
 10
68.5119
 20
122.565
 11
68.0684
 21
122.407
  0
LINE
  8
0
 10
68.0684
 20
122.407
 11
67.6114
 21
122.292
  0
LINE
  8
0
 10
67.6114
 20
122.292
 11
67.1455
 21
122.223
  0
LINE
  8
0
 10
67.1455
 20
122.223
 11
66.675
 21
122.2
  0
LINE
  8
0
 10
66.675
 20
122.2
 11
66.2045
 21
122.223
  0
LINE
  8
0
 10
91.6045
 20
122.223
 11
91.1386
 21
122.292
  0
LINE
  8
0
 10
91.1386
 20
122.292
 11
90.6816
 21
122.407
  0
LINE
  8
0
 10
90.6816
 20
122.407
 11
90.2381
 21
122.565
  0
LINE
  8
0
 10
90.2381
 20
122.565
 11
89.8123
 21
122.767
  0
LINE
  8
0
 10
89.8123
 20
122.767
 11
89.4082
 21
123.009
  0
LINE
  8
0
 10
89.4082
 20
123.009
 11
89.0299
 21
123.29
  0
LINE
  8
0
 10
89.0299
 20
123.29
 11
88.6809
 21
123.606
  0
LINE
  8
0
 10
88.6809
 20
123.606
 11
88.3645
 21
123.955
  0
LINE
  8
0
 10
88.3645
 20
123.955
 11
88.0839
 21
124.333
  0
LINE
  8
0
 10
88.0839
 20
124.333
 11
87.8418
 21
124.737
  0
LINE
  8
0
 10
87.8418
 20
124.737
 11
87.6404
 21
125.163
  0
LINE
  8
0
 10
87.6404
 20
125.163
 11
87.4817
 21
125.607
  0
LINE
  8
0
 10
87.4817
 20
125.607
 11
87.3672
 21
126.064
  0
LINE
  8
0
 10
87.3672
 20
126.064
 11
87.2981
 21
126.53
  0
LINE
  8
0
 10
87.2981
 20
126.53
 11
87.275
 21
127
  0
LINE
  8
0
 10
87.275
 20
127
 11
87.2981
 21
127.47
  0
LINE
  8
0
 10
87.2981
 20
127.47
 11
87.3672
 21
127.936
  0
LINE
  8
0
 10
87.3672
 20
127.936
 11
87.4817
 21
128.393
  0
LINE
  8
0
 10
87.4817
 20
128.393
 11
87.6404
 21
128.837
  0
LINE
  8
0
 10
87.6404
 20
128.837
 11
87.8418
 21
129.263
  0
LINE
  8
0
 10
87.8418
 20
129.263
 11
88.0839
 21
129.667
  0
LINE
  8
0
 10
88.0839
 20
129.667
 11
88.3645
 21
130.045
  0
LINE
  8
0
 10
88.3645
 20
130.045
 11
88.6809
 21
130.394
  0
LINE
  8
0
 10
88.6809
 20
130.394
 11
89.0299
 21
130.71
  0
LINE
  8
0
 10
89.0299
 20
130.71
 11
89.4082
 21
130.991
  0
LINE
  8
0
 10
89.4082
 20
130.991
 11
89.8123
 21
131.233
  0
LINE
  8
0
 10
89.8123
 20
131.233
 11
90.2381
 21
131.435
  0
LINE
  8
0
 10
90.2381
 20
131.435
 11
90.6816
 21
131.593
  0
LINE
  8
0
 10
90.6816
 20
131.593
 11
91.1386
 21
131.708
  0
LINE
  8
0
 10
91.1386
 20
131.708
 11
91.6045
 21
131.777
  0
LINE
  8
0
 10
91.6045
 20
131.777
 11
92.075
 21
131.8
  0
LINE
  8
0
 10
92.075
 20
131.8
 11
92.5455
 21
131.777
  0
LINE
  8
0
 10
92.5455
 20
131.777
 11
93.0114
 21
131.708
  0
LINE
  8
0
 10
93.0114
 20
131.708
 11
93.4684
 21
131.593
  0
LINE
  8
0
 10
93.4684
 20
131.593
 11
93.9119
 21
131.435
  0
LINE
  8
0
 10
93.9119
 20
131.435
 11
94.3377
 21
131.233
  0
LINE
  8
0
 10
94.3377
 20
131.233
 11
94.7417
 21
130.991
  0
LINE
  8
0
 10
94.7417
 20
130.991
 11
95.1201
 21
130.71
  0
LINE
  8
0
 10
95.1201
 20
130.71
 11
95.4691
 21
130.394
  0
LINE
  8
0
 10
95.4691
 20
130.394
 11
95.7854
 21
130.045
  0
LINE
  8
0
 10
95.7854
 20
130.045
 11
96.066
 21
129.667
  0
LINE
  8
0
 10
96.066
 20
129.667
 11
96.3082
 21
129.263
  0
LINE
  8
0
 10
96.3082
 20
129.263
 11
96.5096
 21
128.837
  0
LINE
  8
0
 10
96.5096
 20
128.837
 11
96.6683
 21
128.393
  0
LINE
  8
0
 10
96.6683
 20
128.393
 11
96.7828
 21
127.936
  0
LINE
  8
0
 10
96.7828
 20
127.936
 11
96.8519
 21
127.47
  0
LINE
  8
0
 10
96.8519
 20
127.47
 11
96.875
 21
127
  0
LINE
  8
0
 10
96.875
 20
127
 11
96.8519
 21
126.53
  0
LINE
  8
0
 10
96.8519
 20
126.53
 11
96.7828
 21
126.064
  0
LINE
  8
0
 10
96.7828
 20
126.064
 11
96.6683
 21
125.607
  0
LINE
  8
0
 10
96.6683
 20
125.607
 11
96.5096
 21
125.163
  0
LINE
  8
0
 10
96.5096
 20
125.163
 11
96.3082
 21
124.737
  0
LINE
  8
0
 10
96.3082
 20
124.737
 11
96.066
 21
124.333
  0
LINE
  8
0
 10
96.066
 20
124.333
 11
95.7854
 21
123.955
  0
LINE
  8
0
 10
95.7854
 20
123.955
 11
95.4691
 21
123.606
  0
LINE
  8
0
 10
95.4691
 20
123.606
 11
95.1201
 21
123.29
  0
LINE
  8
0
 10
95.1201
 20
123.29
 11
94.7417
 21
123.009
  0
LINE
  8
0
 10
94.7417
 20
123.009
 11
94.3377
 21
122.767
  0
LINE
  8
0
 10
94.3377
 20
122.767
 11
93.9119
 21
122.565
  0
LINE
  8
0
 10
93.9119
 20
122.565
 11
93.4684
 21
122.407
  0
LINE
  8
0
 10
93.4684
 20
122.407
 11
93.0114
 21
122.292
  0
LINE
  8
0
 10
93.0114
 20
122.292
 11
92.5455
 21
122.223
  0
LINE
  8
0
 10
92.5455
 20
122.223
 11
92.075
 21
122.2
  0
LINE
  8
0
 10
92.075
 20
122.2
 11
91.6045
 21
122.223
  0
LINE
  8
0
 10
79.1104
 20
111.613
 11
78.8483
 21
111.652
  0
LINE
  8
0
 10
78.8483
 20
111.652
 11
78.5912
 21
111.716
  0
LINE
  8
0
 10
78.5912
 20
111.716
 11
78.3418
 21
111.806
  0
LINE
  8
0
 10
78.3418
 20
111.806
 11
78.1022
 21
111.919
  0
LINE
  8
0
 10
78.1022
 20
111.919
 11
77.875
 21
112.055
  0
LINE
  8
0
 10
77.875
 20
112.055
 11
77.6621
 21
112.213
  0
LINE
  8
0
 10
77.6621
 20
112.213
 11
77.4658
 21
112.391
  0
LINE
  8
0
 10
77.4658
 20
112.391
 11
77.2879
 21
112.587
  0
LINE
  8
0
 10
77.2879
 20
112.587
 11
77.13
 21
112.8
  0
LINE
  8
0
 10
77.13
 20
112.8
 11
76.9938
 21
113.027
  0
LINE
  8
0
 10
76.9938
 20
113.027
 11
76.8805
 21
113.267
  0
LINE
  8
0
 10
76.8805
 20
113.267
 11
76.7913
 21
113.516
  0
LINE
  8
0
 10
76.7913
 20
113.516
 11
76.7269
 21
113.773
  0
LINE
  8
0
 10
76.7269
 20
113.773
 11
76.688
 21
114.035
  0
LINE
  8
0
 10
76.688
 20
114.035
 11
76.675
 21
114.3
  0
LINE
  8
0
 10
76.675
 20
114.3
 11
76.688
 21
114.565
  0
LINE
  8
0
 10
76.688
 20
114.565
 11
76.7269
 21
114.827
  0
LINE
  8
0
 10
76.7269
 20
114.827
 11
76.7913
 21
115.084
  0
LINE
  8
0
 10
76.7913
 20
115.084
 11
76.8805
 21
115.333
  0
LINE
  8
0
 10
76.8805
 20
115.333
 11
76.9938
 21
115.573
  0
LINE
  8
0
 10
76.9938
 20
115.573
 11
77.13
 21
115.8
  0
LINE
  8
0
 10
77.13
 20
115.8
 11
77.2879
 21
116.013
  0
LINE
  8
0
 10
77.2879
 20
116.013
 11
77.4658
 21
116.209
  0
LINE
  8
0
 10
77.4658
 20
116.209
 11
77.6621
 21
116.387
  0
LINE
  8
0
 10
77.6621
 20
116.387
 11
77.875
 21
116.545
  0
LINE
  8
0
 10
77.875
 20
116.545
 11
78.1022
 21
116.681
  0
LINE
  8
0
 10
78.1022
 20
116.681
 11
78.3418
 21
116.794
  0
LINE
  8
0
 10
78.3418
 20
116.794
 11
78.5912
 21
116.884
  0
LINE
  8
0
 10
78.5912
 20
116.884
 11
78.8483
 21
116.948
  0
LINE
  8
0
 10
78.8483
 20
116.948
 11
79.1104
 21
116.987
  0
LINE
  8
0
 10
79.1104
 20
116.987
 11
79.375
 21
117
  0
LINE
  8
0
 10
79.375
 20
117
 11
79.6396
 21
116.987
  0
LINE
  8
0
 10
79.6396
 20
116.987
 11
79.9017
 21
116.948
  0
LINE
  8
0
 10
79.9017
 20
116.948
 11
80.1588
 21
116.884
  0
LINE
  8
0
 10
80.1588
 20
116.884
 11
80.4082
 21
116.794
  0
LINE
  8
0
 10
80.4082
 20
116.794
 11
80.6478
 21
116.681
  0
LINE
  8
0
 10
80.6478
 20
116.681
 11
80.875
 21
116.545
  0
LINE
  8
0
 10
80.875
 20
116.545
 11
81.0879
 21
116.387
  0
LINE
  8
0
 10
81.0879
 20
116.387
 11
81.2842
 21
116.209
  0
LINE
  8
0
 10
81.2842
 20
116.209
 11
81.4621
 21
116.013
  0
LINE
  8
0
 10
81.4621
 20
116.013
 11
81.62
 21
115.8
  0
LINE
  8
0
 10
81.62
 20
115.8
 11
81.7562
 21
115.573
  0
LINE
  8
0
 10
81.7562
 20
115.573
 11
81.8695
 21
115.333
  0
LINE
  8
0
 10
81.8695
 20
115.333
 11
81.9587
 21
115.084
  0
LINE
  8
0
 10
81.9587
 20
115.084
 11
82.0231
 21
114.827
  0
LINE
  8
0
 10
82.0231
 20
114.827
 11
82.062
 21
114.565
  0
LINE
  8
0
 10
82.062
 20
114.565
 11
82.075
 21
114.3
  0
LINE
  8
0
 10
82.075
 20
114.3
 11
82.062
 21
114.035
  0
LINE
  8
0
 10
82.062
 20
114.035
 11
82.0231
 21
113.773
  0
LINE
  8
0
 10
82.0231
 20
113.773
 11
81.9587
 21
113.516
  0
LINE
  8
0
 10
81.9587
 20
113.516
 11
81.8695
 21
113.267
  0
LINE
  8
0
 10
81.8695
 20
113.267
 11
81.7562
 21
113.027
  0
LINE
  8
0
 10
81.7562
 20
113.027
 11
81.62
 21
112.8
  0
LINE
  8
0
 10
81.62
 20
112.8
 11
81.4621
 21
112.587
  0
LINE
  8
0
 10
81.4621
 20
112.587
 11
81.2842
 21
112.391
  0
LINE
  8
0
 10
81.2842
 20
112.391
 11
81.0879
 21
112.213
  0
LINE
  8
0
 10
81.0879
 20
112.213
 11
80.875
 21
112.055
  0
LINE
  8
0
 10
80.875
 20
112.055
 11
80.6478
 21
111.919
  0
LINE
  8
0
 10
80.6478
 20
111.919
 11
80.4082
 21
111.806
  0
LINE
  8
0
 10
80.4082
 20
111.806
 11
80.1588
 21
111.716
  0
LINE
  8
0
 10
80.1588
 20
111.716
 11
79.9017
 21
111.652
  0
LINE
  8
0
 10
79.9017
 20
111.652
 11
79.6396
 21
111.613
  0
LINE
  8
0
 10
79.6396
 20
111.613
 11
79.375
 21
111.6
  0
LINE
  8
0
 10
79.375
 20
111.6
 11
79.1104
 21
111.613
  0
LINE
  8
0
 10
53.7103
 20
111.613
 11
53.4482
 21
111.652
  0
LINE
  8
0
 10
53.4482
 20
111.652
 11
53.1912
 21
111.716
  0
LINE
  8
0
 10
53.1912
 20
111.716
 11
52.9417
 21
111.806
  0
LINE
  8
0
 10
52.9417
 20
111.806
 11
52.7022
 21
111.919
  0
LINE
  8
0
 10
52.7022
 20
111.919
 11
52.475
 21
112.055
  0
LINE
  8
0
 10
52.475
 20
112.055
 11
52.2621
 21
112.213
  0
LINE
  8
0
 10
52.2621
 20
112.213
 11
52.0658
 21
112.391
  0
LINE
  8
0
 10
52.0658
 20
112.391
 11
51.8879
 21
112.587
  0
LINE
  8
0
 10
51.8879
 20
112.587
 11
51.73
 21
112.8
  0
LINE
  8
0
 10
51.73
 20
112.8
 11
51.5938
 21
113.027
  0
LINE
  8
0
 10
51.5938
 20
113.027
 11
51.4805
 21
113.267
  0
LINE
  8
0
 10
51.4805
 20
113.267
 11
51.3913
 21
113.516
  0
LINE
  8
0
 10
51.3913
 20
113.516
 11
51.3269
 21
113.773
  0
LINE
  8
0
 10
51.3269
 20
113.773
 11
51.288
 21
114.035
  0
LINE
  8
0
 10
51.288
 20
114.035
 11
51.275
 21
114.3
  0
LINE
  8
0
 10
51.275
 20
114.3
 11
51.288
 21
114.565
  0
LINE
  8
0
 10
51.288
 20
114.565
 11
51.3269
 21
114.827
  0
LINE
  8
0
 10
51.3269
 20
114.827
 11
51.3913
 21
115.084
  0
LINE
  8
0
 10
51.3913
 20
115.084
 11
51.4805
 21
115.333
  0
LINE
  8
0
 10
51.4805
 20
115.333
 11
51.5938
 21
115.573
  0
LINE
  8
0
 10
51.5938
 20
115.573
 11
51.73
 21
115.8
  0
LINE
  8
0
 10
51.73
 20
115.8
 11
51.8879
 21
116.013
  0
LINE
  8
0
 10
51.8879
 20
116.013
 11
52.0658
 21
116.209
  0
LINE
  8
0
 10
52.0658
 20
116.209
 11
52.2621
 21
116.387
  0
LINE
  8
0
 10
52.2621
 20
116.387
 11
52.475
 21
116.545
  0
LINE
  8
0
 10
52.475
 20
116.545
 11
52.7022
 21
116.681
  0
LINE
  8
0
 10
52.7022
 20
116.681
 11
52.9417
 21
116.794
  0
LINE
  8
0
 10
52.9417
 20
116.794
 11
53.1912
 21
116.884
  0
LINE
  8
0
 10
53.1912
 20
116.884
 11
53.4482
 21
116.948
  0
LINE
  8
0
 10
53.4482
 20
116.948
 11
53.7103
 21
116.987
  0
LINE
  8
0
 10
53.7103
 20
116.987
 11
53.975
 21
117
  0
LINE
  8
0
 10
53.975
 20
117
 11
54.2396
 21
116.987
  0
LINE
  8
0
 10
54.2396
 20
116.987
 11
54.5017
 21
116.948
  0
LINE
  8
0
 10
54.5017
 20
116.948
 11
54.7588
 21
116.884
  0
LINE
  8
0
 10
54.7588
 20
116.884
 11
55.0082
 21
116.794
  0
LINE
  8
0
 10
55.0082
 20
116.794
 11
55.2478
 21
116.681
  0
LINE
  8
0
 10
55.2478
 20
116.681
 11
55.475
 21
116.545
  0
LINE
  8
0
 10
55.475
 20
116.545
 11
55.6879
 21
116.387
  0
LINE
  8
0
 10
55.6879
 20
116.387
 11
55.8842
 21
116.209
  0
LINE
  8
0
 10
55.8842
 20
116.209
 11
56.0621
 21
116.013
  0
LINE
  8
0
 10
56.0621
 20
116.013
 11
56.22
 21
115.8
  0
LINE
  8
0
 10
56.22
 20
115.8
 11
56.3562
 21
115.573
  0
LINE
  8
0
 10
56.3562
 20
115.573
 11
56.4695
 21
115.333
  0
LINE
  8
0
 10
56.4695
 20
115.333
 11
56.5587
 21
115.084
  0
LINE
  8
0
 10
56.5587
 20
115.084
 11
56.6231
 21
114.827
  0
LINE
  8
0
 10
56.6231
 20
114.827
 11
56.662
 21
114.565
  0
LINE
  8
0
 10
56.662
 20
114.565
 11
56.675
 21
114.3
  0
LINE
  8
0
 10
56.675
 20
114.3
 11
56.662
 21
114.035
  0
LINE
  8
0
 10
56.662
 20
114.035
 11
56.6231
 21
113.773
  0
LINE
  8
0
 10
56.6231
 20
113.773
 11
56.5587
 21
113.516
  0
LINE
  8
0
 10
56.5587
 20
113.516
 11
56.4695
 21
113.267
  0
LINE
  8
0
 10
56.4695
 20
113.267
 11
56.3562
 21
113.027
  0
LINE
  8
0
 10
56.3562
 20
113.027
 11
56.22
 21
112.8
  0
LINE
  8
0
 10
56.22
 20
112.8
 11
56.0621
 21
112.587
  0
LINE
  8
0
 10
56.0621
 20
112.587
 11
55.8842
 21
112.391
  0
LINE
  8
0
 10
55.8842
 20
112.391
 11
55.6879
 21
112.213
  0
LINE
  8
0
 10
55.6879
 20
112.213
 11
55.475
 21
112.055
  0
LINE
  8
0
 10
55.475
 20
112.055
 11
55.2478
 21
111.919
  0
LINE
  8
0
 10
55.2478
 20
111.919
 11
55.0082
 21
111.806
  0
LINE
  8
0
 10
55.0082
 20
111.806
 11
54.7588
 21
111.716
  0
LINE
  8
0
 10
54.7588
 20
111.716
 11
54.5017
 21
111.652
  0
LINE
  8
0
 10
54.5017
 20
111.652
 11
54.2396
 21
111.613
  0
LINE
  8
0
 10
54.2396
 20
111.613
 11
53.975
 21
111.6
  0
LINE
  8
0
 10
53.975
 20
111.6
 11
53.7103
 21
111.613
  0
LINE
  8
0
 10
28.3103
 20
111.613
 11
28.0482
 21
111.652
  0
LINE
  8
0
 10
28.0482
 20
111.652
 11
27.7912
 21
111.716
  0
LINE
  8
0
 10
27.7912
 20
111.716
 11
27.5417
 21
111.806
  0
LINE
  8
0
 10
27.5417
 20
111.806
 11
27.3022
 21
111.919
  0
LINE
  8
0
 10
27.3022
 20
111.919
 11
27.075
 21
112.055
  0
LINE
  8
0
 10
27.075
 20
112.055
 11
26.8621
 21
112.213
  0
LINE
  8
0
 10
26.8621
 20
112.213
 11
26.6658
 21
112.391
  0
LINE
  8
0
 10
26.6658
 20
112.391
 11
26.4879
 21
112.587
  0
LINE
  8
0
 10
26.4879
 20
112.587
 11
26.33
 21
112.8
  0
LINE
  8
0
 10
26.33
 20
112.8
 11
26.1938
 21
113.027
  0
LINE
  8
0
 10
26.1938
 20
113.027
 11
26.0805
 21
113.267
  0
LINE
  8
0
 10
26.0805
 20
113.267
 11
25.9913
 21
113.516
  0
LINE
  8
0
 10
25.9913
 20
113.516
 11
25.9269
 21
113.773
  0
LINE
  8
0
 10
25.9269
 20
113.773
 11
25.888
 21
114.035
  0
LINE
  8
0
 10
25.888
 20
114.035
 11
25.875
 21
114.3
  0
LINE
  8
0
 10
25.875
 20
114.3
 11
25.888
 21
114.565
  0
LINE
  8
0
 10
25.888
 20
114.565
 11
25.9269
 21
114.827
  0
LINE
  8
0
 10
25.9269
 20
114.827
 11
25.9913
 21
115.084
  0
LINE
  8
0
 10
25.9913
 20
115.084
 11
26.0805
 21
115.333
  0
LINE
  8
0
 10
26.0805
 20
115.333
 11
26.1938
 21
115.573
  0
LINE
  8
0
 10
26.1938
 20
115.573
 11
26.33
 21
115.8
  0
LINE
  8
0
 10
26.33
 20
115.8
 11
26.4879
 21
116.013
  0
LINE
  8
0
 10
26.4879
 20
116.013
 11
26.6658
 21
116.209
  0
LINE
  8
0
 10
26.6658
 20
116.209
 11
26.8621
 21
116.387
  0
LINE
  8
0
 10
26.8621
 20
116.387
 11
27.075
 21
116.545
  0
LINE
  8
0
 10
27.075
 20
116.545
 11
27.3022
 21
116.681
  0
LINE
  8
0
 10
27.3022
 20
116.681
 11
27.5417
 21
116.794
  0
LINE
  8
0
 10
27.5417
 20
116.794
 11
27.7912
 21
116.884
  0
LINE
  8
0
 10
27.7912
 20
116.884
 11
28.0482
 21
116.948
  0
LINE
  8
0
 10
28.0482
 20
116.948
 11
28.3103
 21
116.987
  0
LINE
  8
0
 10
28.3103
 20
116.987
 11
28.575
 21
117
  0
LINE
  8
0
 10
28.575
 20
117
 11
28.8396
 21
116.987
  0
LINE
  8
0
 10
28.8396
 20
116.987
 11
29.1017
 21
116.948
  0
LINE
  8
0
 10
29.1017
 20
116.948
 11
29.3588
 21
116.884
  0
LINE
  8
0
 10
29.3588
 20
116.884
 11
29.6082
 21
116.794
  0
LINE
  8
0
 10
29.6082
 20
116.794
 11
29.8478
 21
116.681
  0
LINE
  8
0
 10
29.8478
 20
116.681
 11
30.075
 21
116.545
  0
LINE
  8
0
 10
30.075
 20
116.545
 11
30.2879
 21
116.387
  0
LINE
  8
0
 10
30.2879
 20
116.387
 11
30.4842
 21
116.209
  0
LINE
  8
0
 10
30.4842
 20
116.209
 11
30.6621
 21
116.013
  0
LINE
  8
0
 10
30.6621
 20
116.013
 11
30.82
 21
115.8
  0
LINE
  8
0
 10
30.82
 20
115.8
 11
30.9562
 21
115.573
  0
LINE
  8
0
 10
30.9562
 20
115.573
 11
31.0695
 21
115.333
  0
LINE
  8
0
 10
31.0695
 20
115.333
 11
31.1587
 21
115.084
  0
LINE
  8
0
 10
31.1587
 20
115.084
 11
31.2231
 21
114.827
  0
LINE
  8
0
 10
31.2231
 20
114.827
 11
31.262
 21
114.565
  0
LINE
  8
0
 10
31.262
 20
114.565
 11
31.275
 21
114.3
  0
LINE
  8
0
 10
31.275
 20
114.3
 11
31.262
 21
114.035
  0
LINE
  8
0
 10
31.262
 20
114.035
 11
31.2231
 21
113.773
  0
LINE
  8
0
 10
31.2231
 20
113.773
 11
31.1587
 21
113.516
  0
LINE
  8
0
 10
31.1587
 20
113.516
 11
31.0695
 21
113.267
  0
LINE
  8
0
 10
31.0695
 20
113.267
 11
30.9562
 21
113.027
  0
LINE
  8
0
 10
30.9562
 20
113.027
 11
30.82
 21
112.8
  0
LINE
  8
0
 10
30.82
 20
112.8
 11
30.6621
 21
112.587
  0
LINE
  8
0
 10
30.6621
 20
112.587
 11
30.4842
 21
112.391
  0
LINE
  8
0
 10
30.4842
 20
112.391
 11
30.2879
 21
112.213
  0
LINE
  8
0
 10
30.2879
 20
112.213
 11
30.075
 21
112.055
  0
LINE
  8
0
 10
30.075
 20
112.055
 11
29.8478
 21
111.919
  0
LINE
  8
0
 10
29.8478
 20
111.919
 11
29.6082
 21
111.806
  0
LINE
  8
0
 10
29.6082
 20
111.806
 11
29.3588
 21
111.716
  0
LINE
  8
0
 10
29.3588
 20
111.716
 11
29.1017
 21
111.652
  0
LINE
  8
0
 10
29.1017
 20
111.652
 11
28.8396
 21
111.613
  0
LINE
  8
0
 10
28.8396
 20
111.613
 11
28.575
 21
111.6
  0
LINE
  8
0
 10
28.575
 20
111.6
 11
28.3103
 21
111.613
  0
LINE
  8
0
 10
15.4045
 20
96.8231
 11
14.9386
 21
96.8922
  0
LINE
  8
0
 10
14.9386
 20
96.8922
 11
14.4816
 21
97.0067
  0
LINE
  8
0
 10
14.4816
 20
97.0067
 11
14.0381
 21
97.1654
  0
LINE
  8
0
 10
14.0381
 20
97.1654
 11
13.6123
 21
97.3668
  0
LINE
  8
0
 10
13.6123
 20
97.3668
 11
13.2083
 21
97.6089
  0
LINE
  8
0
 10
13.2083
 20
97.6089
 11
12.8299
 21
97.8895
  0
LINE
  8
0
 10
12.8299
 20
97.8895
 11
12.4809
 21
98.2059
  0
LINE
  8
0
 10
12.4809
 20
98.2059
 11
12.1645
 21
98.5549
  0
LINE
  8
0
 10
12.1645
 20
98.5549
 11
11.8839
 21
98.9333
  0
LINE
  8
0
 10
11.8839
 20
98.9333
 11
11.6418
 21
99.3373
  0
LINE
  8
0
 10
11.6418
 20
99.3373
 11
11.4404
 21
99.7631
  0
LINE
  8
0
 10
11.4404
 20
99.7631
 11
11.2817
 21
100.207
  0
LINE
  8
0
 10
11.2817
 20
100.207
 11
11.1672
 21
100.664
  0
LINE
  8
0
 10
11.1672
 20
100.664
 11
11.0981
 21
101.13
  0
LINE
  8
0
 10
11.0981
 20
101.13
 11
11.075
 21
101.6
  0
LINE
  8
0
 10
11.075
 20
101.6
 11
11.0981
 21
102.07
  0
LINE
  8
0
 10
11.0981
 20
102.07
 11
11.1672
 21
102.536
  0
LINE
  8
0
 10
11.1672
 20
102.536
 11
11.2817
 21
102.993
  0
LINE
  8
0
 10
11.2817
 20
102.993
 11
11.4404
 21
103.437
  0
LINE
  8
0
 10
11.4404
 20
103.437
 11
11.6418
 21
103.863
  0
LINE
  8
0
 10
11.6418
 20
103.863
 11
11.8839
 21
104.267
  0
LINE
  8
0
 10
11.8839
 20
104.267
 11
12.1645
 21
104.645
  0
LINE
  8
0
 10
12.1645
 20
104.645
 11
12.4809
 21
104.994
  0
LINE
  8
0
 10
12.4809
 20
104.994
 11
12.8299
 21
105.31
  0
LINE
  8
0
 10
12.8299
 20
105.31
 11
13.2083
 21
105.591
  0
LINE
  8
0
 10
13.2083
 20
105.591
 11
13.6123
 21
105.833
  0
LINE
  8
0
 10
13.6123
 20
105.833
 11
14.0381
 21
106.035
  0
LINE
  8
0
 10
14.0381
 20
106.035
 11
14.4816
 21
106.193
  0
LINE
  8
0
 10
14.4816
 20
106.193
 11
14.9386
 21
106.308
  0
LINE
  8
0
 10
14.9386
 20
106.308
 11
15.4045
 21
106.377
  0
LINE
  8
0
 10
15.4045
 20
106.377
 11
15.875
 21
106.4
  0
LINE
  8
0
 10
15.875
 20
106.4
 11
16.3455
 21
106.377
  0
LINE
  8
0
 10
16.3455
 20
106.377
 11
16.8114
 21
106.308
  0
LINE
  8
0
 10
16.8114
 20
106.308
 11
17.2684
 21
106.193
  0
LINE
  8
0
 10
17.2684
 20
106.193
 11
17.7119
 21
106.035
  0
LINE
  8
0
 10
17.7119
 20
106.035
 11
18.1377
 21
105.833
  0
LINE
  8
0
 10
18.1377
 20
105.833
 11
18.5417
 21
105.591
  0
LINE
  8
0
 10
18.5417
 20
105.591
 11
18.9201
 21
105.31
  0
LINE
  8
0
 10
18.9201
 20
105.31
 11
19.2691
 21
104.994
  0
LINE
  8
0
 10
19.2691
 20
104.994
 11
19.5854
 21
104.645
  0
LINE
  8
0
 10
19.5854
 20
104.645
 11
19.866
 21
104.267
  0
LINE
  8
0
 10
19.866
 20
104.267
 11
20.1082
 21
103.863
  0
LINE
  8
0
 10
20.1082
 20
103.863
 11
20.3096
 21
103.437
  0
LINE
  8
0
 10
20.3096
 20
103.437
 11
20.4683
 21
102.993
  0
LINE
  8
0
 10
20.4683
 20
102.993
 11
20.5828
 21
102.536
  0
LINE
  8
0
 10
20.5828
 20
102.536
 11
20.6519
 21
102.07
  0
LINE
  8
0
 10
20.6519
 20
102.07
 11
20.675
 21
101.6
  0
LINE
  8
0
 10
20.675
 20
101.6
 11
20.6519
 21
101.13
  0
LINE
  8
0
 10
20.6519
 20
101.13
 11
20.5828
 21
100.664
  0
LINE
  8
0
 10
20.5828
 20
100.664
 11
20.4683
 21
100.207
  0
LINE
  8
0
 10
20.4683
 20
100.207
 11
20.3096
 21
99.7631
  0
LINE
  8
0
 10
20.3096
 20
99.7631
 11
20.1082
 21
99.3373
  0
LINE
  8
0
 10
20.1082
 20
99.3373
 11
19.866
 21
98.9333
  0
LINE
  8
0
 10
19.866
 20
98.9333
 11
19.5854
 21
98.5549
  0
LINE
  8
0
 10
19.5854
 20
98.5549
 11
19.2691
 21
98.2059
  0
LINE
  8
0
 10
19.2691
 20
98.2059
 11
18.9201
 21
97.8895
  0
LINE
  8
0
 10
18.9201
 20
97.8895
 11
18.5417
 21
97.6089
  0
LINE
  8
0
 10
18.5417
 20
97.6089
 11
18.1377
 21
97.3668
  0
LINE
  8
0
 10
18.1377
 20
97.3668
 11
17.7119
 21
97.1654
  0
LINE
  8
0
 10
17.7119
 20
97.1654
 11
17.2684
 21
97.0067
  0
LINE
  8
0
 10
17.2684
 20
97.0067
 11
16.8114
 21
96.8922
  0
LINE
  8
0
 10
16.8114
 20
96.8922
 11
16.3455
 21
96.8231
  0
LINE
  8
0
 10
16.3455
 20
96.8231
 11
15.875
 21
96.8
  0
LINE
  8
0
 10
15.875
 20
96.8
 11
15.4045
 21
96.8231
  0
LINE
  8
0
 10
40.8045
 20
96.8231
 11
40.3386
 21
96.8922
  0
LINE
  8
0
 10
40.3386
 20
96.8922
 11
39.8816
 21
97.0067
  0
LINE
  8
0
 10
39.8816
 20
97.0067
 11
39.4381
 21
97.1654
  0
LINE
  8
0
 10
39.4381
 20
97.1654
 11
39.0123
 21
97.3668
  0
LINE
  8
0
 10
39.0123
 20
97.3668
 11
38.6083
 21
97.6089
  0
LINE
  8
0
 10
38.6083
 20
97.6089
 11
38.2299
 21
97.8895
  0
LINE
  8
0
 10
38.2299
 20
97.8895
 11
37.8809
 21
98.2059
  0
LINE
  8
0
 10
37.8809
 20
98.2059
 11
37.5645
 21
98.5549
  0
LINE
  8
0
 10
37.5645
 20
98.5549
 11
37.2839
 21
98.9333
  0
LINE
  8
0
 10
37.2839
 20
98.9333
 11
37.0418
 21
99.3373
  0
LINE
  8
0
 10
37.0418
 20
99.3373
 11
36.8404
 21
99.7631
  0
LINE
  8
0
 10
36.8404
 20
99.7631
 11
36.6817
 21
100.207
  0
LINE
  8
0
 10
36.6817
 20
100.207
 11
36.5672
 21
100.664
  0
LINE
  8
0
 10
36.5672
 20
100.664
 11
36.4981
 21
101.13
  0
LINE
  8
0
 10
36.4981
 20
101.13
 11
36.475
 21
101.6
  0
LINE
  8
0
 10
36.475
 20
101.6
 11
36.4981
 21
102.07
  0
LINE
  8
0
 10
36.4981
 20
102.07
 11
36.5672
 21
102.536
  0
LINE
  8
0
 10
36.5672
 20
102.536
 11
36.6817
 21
102.993
  0
LINE
  8
0
 10
36.6817
 20
102.993
 11
36.8404
 21
103.437
  0
LINE
  8
0
 10
36.8404
 20
103.437
 11
37.0418
 21
103.863
  0
LINE
  8
0
 10
37.0418
 20
103.863
 11
37.2839
 21
104.267
  0
LINE
  8
0
 10
37.2839
 20
104.267
 11
37.5645
 21
104.645
  0
LINE
  8
0
 10
37.5645
 20
104.645
 11
37.8809
 21
104.994
  0
LINE
  8
0
 10
37.8809
 20
104.994
 11
38.2299
 21
105.31
  0
LINE
  8
0
 10
38.2299
 20
105.31
 11
38.6083
 21
105.591
  0
LINE
  8
0
 10
38.6083
 20
105.591
 11
39.0123
 21
105.833
  0
LINE
  8
0
 10
39.0123
 20
105.833
 11
39.4381
 21
106.035
  0
LINE
  8
0
 10
39.4381
 20
106.035
 11
39.8816
 21
106.193
  0
LINE
  8
0
 10
39.8816
 20
106.193
 11
40.3386
 21
106.308
  0
LINE
  8
0
 10
40.3386
 20
106.308
 11
40.8045
 21
106.377
  0
LINE
  8
0
 10
40.8045
 20
106.377
 11
41.275
 21
106.4
  0
LINE
  8
0
 10
41.275
 20
106.4
 11
41.7455
 21
106.377
  0
LINE
  8
0
 10
41.7455
 20
106.377
 11
42.2114
 21
106.308
  0
LINE
  8
0
 10
42.2114
 20
106.308
 11
42.6684
 21
106.193
  0
LINE
  8
0
 10
42.6684
 20
106.193
 11
43.1119
 21
106.035
  0
LINE
  8
0
 10
43.1119
 20
106.035
 11
43.5377
 21
105.833
  0
LINE
  8
0
 10
43.5377
 20
105.833
 11
43.9417
 21
105.591
  0
LINE
  8
0
 10
43.9417
 20
105.591
 11
44.3201
 21
105.31
  0
LINE
  8
0
 10
44.3201
 20
105.31
 11
44.6691
 21
104.994
  0
LINE
  8
0
 10
44.6691
 20
104.994
 11
44.9854
 21
104.645
  0
LINE
  8
0
 10
44.9854
 20
104.645
 11
45.2661
 21
104.267
  0
LINE
  8
0
 10
45.2661
 20
104.267
 11
45.5082
 21
103.863
  0
LINE
  8
0
 10
45.5082
 20
103.863
 11
45.7096
 21
103.437
  0
LINE
  8
0
 10
45.7096
 20
103.437
 11
45.8683
 21
102.993
  0
LINE
  8
0
 10
45.8683
 20
102.993
 11
45.9828
 21
102.536
  0
LINE
  8
0
 10
45.9828
 20
102.536
 11
46.0519
 21
102.07
  0
LINE
  8
0
 10
46.0519
 20
102.07
 11
46.075
 21
101.6
  0
LINE
  8
0
 10
46.075
 20
101.6
 11
46.0519
 21
101.13
  0
LINE
  8
0
 10
46.0519
 20
101.13
 11
45.9828
 21
100.664
  0
LINE
  8
0
 10
45.9828
 20
100.664
 11
45.8683
 21
100.207
  0
LINE
  8
0
 10
45.8683
 20
100.207
 11
45.7096
 21
99.7631
  0
LINE
  8
0
 10
45.7096
 20
99.7631
 11
45.5082
 21
99.3373
  0
LINE
  8
0
 10
45.5082
 20
99.3373
 11
45.2661
 21
98.9333
  0
LINE
  8
0
 10
45.2661
 20
98.9333
 11
44.9854
 21
98.5549
  0
LINE
  8
0
 10
44.9854
 20
98.5549
 11
44.6691
 21
98.2059
  0
LINE
  8
0
 10
44.6691
 20
98.2059
 11
44.3201
 21
97.8895
  0
LINE
  8
0
 10
44.3201
 20
97.8895
 11
43.9417
 21
97.6089
  0
LINE
  8
0
 10
43.9417
 20
97.6089
 11
43.5377
 21
97.3668
  0
LINE
  8
0
 10
43.5377
 20
97.3668
 11
43.1119
 21
97.1654
  0
LINE
  8
0
 10
43.1119
 20
97.1654
 11
42.6684
 21
97.0067
  0
LINE
  8
0
 10
42.6684
 20
97.0067
 11
42.2114
 21
96.8922
  0
LINE
  8
0
 10
42.2114
 20
96.8922
 11
41.7455
 21
96.8231
  0
LINE
  8
0
 10
41.7455
 20
96.8231
 11
41.275
 21
96.8
  0
LINE
  8
0
 10
41.275
 20
96.8
 11
40.8045
 21
96.8231
  0
LINE
  8
0
 10
66.2045
 20
96.8231
 11
65.7386
 21
96.8922
  0
LINE
  8
0
 10
65.7386
 20
96.8922
 11
65.2816
 21
97.0067
  0
LINE
  8
0
 10
65.2816
 20
97.0067
 11
64.8381
 21
97.1654
  0
LINE
  8
0
 10
64.8381
 20
97.1654
 11
64.4123
 21
97.3668
  0
LINE
  8
0
 10
64.4123
 20
97.3668
 11
64.0083
 21
97.6089
  0
LINE
  8
0
 10
64.0083
 20
97.6089
 11
63.6299
 21
97.8895
  0
LINE
  8
0
 10
63.6299
 20
97.8895
 11
63.2809
 21
98.2059
  0
LINE
  8
0
 10
63.2809
 20
98.2059
 11
62.9645
 21
98.5549
  0
LINE
  8
0
 10
62.9645
 20
98.5549
 11
62.6839
 21
98.9333
  0
LINE
  8
0
 10
62.6839
 20
98.9333
 11
62.4418
 21
99.3373
  0
LINE
  8
0
 10
62.4418
 20
99.3373
 11
62.2404
 21
99.7631
  0
LINE
  8
0
 10
62.2404
 20
99.7631
 11
62.0817
 21
100.207
  0
LINE
  8
0
 10
62.0817
 20
100.207
 11
61.9672
 21
100.664
  0
LINE
  8
0
 10
61.9672
 20
100.664
 11
61.8981
 21
101.13
  0
LINE
  8
0
 10
61.8981
 20
101.13
 11
61.875
 21
101.6
  0
LINE
  8
0
 10
61.875
 20
101.6
 11
61.8981
 21
102.07
  0
LINE
  8
0
 10
61.8981
 20
102.07
 11
61.9672
 21
102.536
  0
LINE
  8
0
 10
61.9672
 20
102.536
 11
62.0817
 21
102.993
  0
LINE
  8
0
 10
62.0817
 20
102.993
 11
62.2404
 21
103.437
  0
LINE
  8
0
 10
62.2404
 20
103.437
 11
62.4418
 21
103.863
  0
LINE
  8
0
 10
62.4418
 20
103.863
 11
62.6839
 21
104.267
  0
LINE
  8
0
 10
62.6839
 20
104.267
 11
62.9645
 21
104.645
  0
LINE
  8
0
 10
62.9645
 20
104.645
 11
63.2809
 21
104.994
  0
LINE
  8
0
 10
63.2809
 20
104.994
 11
63.6299
 21
105.31
  0
LINE
  8
0
 10
63.6299
 20
105.31
 11
64.0083
 21
105.591
  0
LINE
  8
0
 10
64.0083
 20
105.591
 11
64.4123
 21
105.833
  0
LINE
  8
0
 10
64.4123
 20
105.833
 11
64.8381
 21
106.035
  0
LINE
  8
0
 10
64.8381
 20
106.035
 11
65.2816
 21
106.193
  0
LINE
  8
0
 10
65.2816
 20
106.193
 11
65.7386
 21
106.308
  0
LINE
  8
0
 10
65.7386
 20
106.308
 11
66.2045
 21
106.377
  0
LINE
  8
0
 10
66.2045
 20
106.377
 11
66.675
 21
106.4
  0
LINE
  8
0
 10
66.675
 20
106.4
 11
67.1455
 21
106.377
  0
LINE
  8
0
 10
67.1455
 20
106.377
 11
67.6114
 21
106.308
  0
LINE
  8
0
 10
67.6114
 20
106.308
 11
68.0684
 21
106.193
  0
LINE
  8
0
 10
68.0684
 20
106.193
 11
68.5119
 21
106.035
  0
LINE
  8
0
 10
68.5119
 20
106.035
 11
68.9377
 21
105.833
  0
LINE
  8
0
 10
68.9377
 20
105.833
 11
69.3417
 21
105.591
  0
LINE
  8
0
 10
69.3417
 20
105.591
 11
69.7201
 21
105.31
  0
LINE
  8
0
 10
69.7201
 20
105.31
 11
70.0691
 21
104.994
  0
LINE
  8
0
 10
70.0691
 20
104.994
 11
70.3854
 21
104.645
  0
LINE
  8
0
 10
70.3854
 20
104.645
 11
70.666
 21
104.267
  0
LINE
  8
0
 10
70.666
 20
104.267
 11
70.9082
 21
103.863
  0
LINE
  8
0
 10
70.9082
 20
103.863
 11
71.1096
 21
103.437
  0
LINE
  8
0
 10
71.1096
 20
103.437
 11
71.2683
 21
102.993
  0
LINE
  8
0
 10
71.2683
 20
102.993
 11
71.3828
 21
102.536
  0
LINE
  8
0
 10
71.3828
 20
102.536
 11
71.4519
 21
102.07
  0
LINE
  8
0
 10
71.4519
 20
102.07
 11
71.475
 21
101.6
  0
LINE
  8
0
 10
71.475
 20
101.6
 11
71.4519
 21
101.13
  0
LINE
  8
0
 10
71.4519
 20
101.13
 11
71.3828
 21
100.664
  0
LINE
  8
0
 10
71.3828
 20
100.664
 11
71.2683
 21
100.207
  0
LINE
  8
0
 10
71.2683
 20
100.207
 11
71.1096
 21
99.7631
  0
LINE
  8
0
 10
71.1096
 20
99.7631
 11
70.9082
 21
99.3373
  0
LINE
  8
0
 10
70.9082
 20
99.3373
 11
70.666
 21
98.9333
  0
LINE
  8
0
 10
70.666
 20
98.9333
 11
70.3854
 21
98.5549
  0
LINE
  8
0
 10
70.3854
 20
98.5549
 11
70.0691
 21
98.2059
  0
LINE
  8
0
 10
70.0691
 20
98.2059
 11
69.7201
 21
97.8895
  0
LINE
  8
0
 10
69.7201
 20
97.8895
 11
69.3417
 21
97.6089
  0
LINE
  8
0
 10
69.3417
 20
97.6089
 11
68.9377
 21
97.3668
  0
LINE
  8
0
 10
68.9377
 20
97.3668
 11
68.5119
 21
97.1654
  0
LINE
  8
0
 10
68.5119
 20
97.1654
 11
68.0684
 21
97.0067
  0
LINE
  8
0
 10
68.0684
 20
97.0067
 11
67.6114
 21
96.8922
  0
LINE
  8
0
 10
67.6114
 20
96.8922
 11
67.1455
 21
96.8231
  0
LINE
  8
0
 10
67.1455
 20
96.8231
 11
66.675
 21
96.8
  0
LINE
  8
0
 10
66.675
 20
96.8
 11
66.2045
 21
96.8231
  0
LINE
  8
0
 10
91.6045
 20
96.8231
 11
91.1386
 21
96.8922
  0
LINE
  8
0
 10
91.1386
 20
96.8922
 11
90.6816
 21
97.0067
  0
LINE
  8
0
 10
90.6816
 20
97.0067
 11
90.2381
 21
97.1654
  0
LINE
  8
0
 10
90.2381
 20
97.1654
 11
89.8123
 21
97.3668
  0
LINE
  8
0
 10
89.8123
 20
97.3668
 11
89.4082
 21
97.6089
  0
LINE
  8
0
 10
89.4082
 20
97.6089
 11
89.0299
 21
97.8895
  0
LINE
  8
0
 10
89.0299
 20
97.8895
 11
88.6809
 21
98.2059
  0
LINE
  8
0
 10
88.6809
 20
98.2059
 11
88.3645
 21
98.5549
  0
LINE
  8
0
 10
88.3645
 20
98.5549
 11
88.0839
 21
98.9333
  0
LINE
  8
0
 10
88.0839
 20
98.9333
 11
87.8418
 21
99.3373
  0
LINE
  8
0
 10
87.8418
 20
99.3373
 11
87.6404
 21
99.7631
  0
LINE
  8
0
 10
87.6404
 20
99.7631
 11
87.4817
 21
100.207
  0
LINE
  8
0
 10
87.4817
 20
100.207
 11
87.3672
 21
100.664
  0
LINE
  8
0
 10
87.3672
 20
100.664
 11
87.2981
 21
101.13
  0
LINE
  8
0
 10
87.2981
 20
101.13
 11
87.275
 21
101.6
  0
LINE
  8
0
 10
87.275
 20
101.6
 11
87.2981
 21
102.07
  0
LINE
  8
0
 10
87.2981
 20
102.07
 11
87.3672
 21
102.536
  0
LINE
  8
0
 10
87.3672
 20
102.536
 11
87.4817
 21
102.993
  0
LINE
  8
0
 10
87.4817
 20
102.993
 11
87.6404
 21
103.437
  0
LINE
  8
0
 10
87.6404
 20
103.437
 11
87.8418
 21
103.863
  0
LINE
  8
0
 10
87.8418
 20
103.863
 11
88.0839
 21
104.267
  0
LINE
  8
0
 10
88.0839
 20
104.267
 11
88.3645
 21
104.645
  0
LINE
  8
0
 10
88.3645
 20
104.645
 11
88.6809
 21
104.994
  0
LINE
  8
0
 10
88.6809
 20
104.994
 11
89.0299
 21
105.31
  0
LINE
  8
0
 10
89.0299
 20
105.31
 11
89.4082
 21
105.591
  0
LINE
  8
0
 10
89.4082
 20
105.591
 11
89.8123
 21
105.833
  0
LINE
  8
0
 10
89.8123
 20
105.833
 11
90.2381
 21
106.035
  0
LINE
  8
0
 10
90.2381
 20
106.035
 11
90.6816
 21
106.193
  0
LINE
  8
0
 10
90.6816
 20
106.193
 11
91.1386
 21
106.308
  0
LINE
  8
0
 10
91.1386
 20
106.308
 11
91.6045
 21
106.377
  0
LINE
  8
0
 10
91.6045
 20
106.377
 11
92.075
 21
106.4
  0
LINE
  8
0
 10
92.075
 20
106.4
 11
92.5455
 21
106.377
  0
LINE
  8
0
 10
92.5455
 20
106.377
 11
93.0114
 21
106.308
  0
LINE
  8
0
 10
93.0114
 20
106.308
 11
93.4684
 21
106.193
  0
LINE
  8
0
 10
93.4684
 20
106.193
 11
93.9119
 21
106.035
  0
LINE
  8
0
 10
93.9119
 20
106.035
 11
94.3377
 21
105.833
  0
LINE
  8
0
 10
94.3377
 20
105.833
 11
94.7417
 21
105.591
  0
LINE
  8
0
 10
94.7417
 20
105.591
 11
95.1201
 21
105.31
  0
LINE
  8
0
 10
95.1201
 20
105.31
 11
95.4691
 21
104.994
  0
LINE
  8
0
 10
95.4691
 20
104.994
 11
95.7854
 21
104.645
  0
LINE
  8
0
 10
95.7854
 20
104.645
 11
96.066
 21
104.267
  0
LINE
  8
0
 10
96.066
 20
104.267
 11
96.3082
 21
103.863
  0
LINE
  8
0
 10
96.3082
 20
103.863
 11
96.5096
 21
103.437
  0
LINE
  8
0
 10
96.5096
 20
103.437
 11
96.6683
 21
102.993
  0
LINE
  8
0
 10
96.6683
 20
102.993
 11
96.7828
 21
102.536
  0
LINE
  8
0
 10
96.7828
 20
102.536
 11
96.8519
 21
102.07
  0
LINE
  8
0
 10
96.8519
 20
102.07
 11
96.875
 21
101.6
  0
LINE
  8
0
 10
96.875
 20
101.6
 11
96.8519
 21
101.13
  0
LINE
  8
0
 10
96.8519
 20
101.13
 11
96.7828
 21
100.664
  0
LINE
  8
0
 10
96.7828
 20
100.664
 11
96.6683
 21
100.207
  0
LINE
  8
0
 10
96.6683
 20
100.207
 11
96.5096
 21
99.7631
  0
LINE
  8
0
 10
96.5096
 20
99.7631
 11
96.3082
 21
99.3373
  0
LINE
  8
0
 10
96.3082
 20
99.3373
 11
96.066
 21
98.9333
  0
LINE
  8
0
 10
96.066
 20
98.9333
 11
95.7854
 21
98.5549
  0
LINE
  8
0
 10
95.7854
 20
98.5549
 11
95.4691
 21
98.2059
  0
LINE
  8
0
 10
95.4691
 20
98.2059
 11
95.1201
 21
97.8895
  0
LINE
  8
0
 10
95.1201
 20
97.8895
 11
94.7417
 21
97.6089
  0
LINE
  8
0
 10
94.7417
 20
97.6089
 11
94.3377
 21
97.3668
  0
LINE
  8
0
 10
94.3377
 20
97.3668
 11
93.9119
 21
97.1654
  0
LINE
  8
0
 10
93.9119
 20
97.1654
 11
93.4684
 21
97.0067
  0
LINE
  8
0
 10
93.4684
 20
97.0067
 11
93.0114
 21
96.8922
  0
LINE
  8
0
 10
93.0114
 20
96.8922
 11
92.5455
 21
96.8231
  0
LINE
  8
0
 10
92.5455
 20
96.8231
 11
92.075
 21
96.8
  0
LINE
  8
0
 10
92.075
 20
96.8
 11
91.6045
 21
96.8231
  0
LINE
  8
0
 10
15.4045
 20
71.4231
 11
14.9386
 21
71.4922
  0
LINE
  8
0
 10
14.9386
 20
71.4922
 11
14.4816
 21
71.6067
  0
LINE
  8
0
 10
14.4816
 20
71.6067
 11
14.0381
 21
71.7654
  0
LINE
  8
0
 10
14.0381
 20
71.7654
 11
13.6123
 21
71.9668
  0
LINE
  8
0
 10
13.6123
 20
71.9668
 11
13.2083
 21
72.2089
  0
LINE
  8
0
 10
13.2083
 20
72.2089
 11
12.8299
 21
72.4895
  0
LINE
  8
0
 10
12.8299
 20
72.4895
 11
12.4809
 21
72.8059
  0
LINE
  8
0
 10
12.4809
 20
72.8059
 11
12.1645
 21
73.1549
  0
LINE
  8
0
 10
12.1645
 20
73.1549
 11
11.8839
 21
73.5332
  0
LINE
  8
0
 10
11.8839
 20
73.5332
 11
11.6418
 21
73.9373
  0
LINE
  8
0
 10
11.6418
 20
73.9373
 11
11.4404
 21
74.3631
  0
LINE
  8
0
 10
11.4404
 20
74.3631
 11
11.2817
 21
74.8066
  0
LINE
  8
0
 10
11.2817
 20
74.8066
 11
11.1672
 21
75.2636
  0
LINE
  8
0
 10
11.1672
 20
75.2636
 11
11.0981
 21
75.7295
  0
LINE
  8
0
 10
11.0981
 20
75.7295
 11
11.075
 21
76.2
  0
LINE
  8
0
 10
11.075
 20
76.2
 11
11.0981
 21
76.6705
  0
LINE
  8
0
 10
11.0981
 20
76.6705
 11
11.1672
 21
77.1364
  0
LINE
  8
0
 10
11.1672
 20
77.1364
 11
11.2817
 21
77.5934
  0
LINE
  8
0
 10
11.2817
 20
77.5934
 11
11.4404
 21
78.0369
  0
LINE
  8
0
 10
11.4404
 20
78.0369
 11
11.6418
 21
78.4627
  0
LINE
  8
0
 10
11.6418
 20
78.4627
 11
11.8839
 21
78.8667
  0
LINE
  8
0
 10
11.8839
 20
78.8667
 11
12.1645
 21
79.2451
  0
LINE
  8
0
 10
12.1645
 20
79.2451
 11
12.4809
 21
79.5941
  0
LINE
  8
0
 10
12.4809
 20
79.5941
 11
12.8299
 21
79.9104
  0
LINE
  8
0
 10
12.8299
 20
79.9104
 11
13.2083
 21
80.191
  0
LINE
  8
0
 10
13.2083
 20
80.191
 11
13.6123
 21
80.4332
  0
LINE
  8
0
 10
13.6123
 20
80.4332
 11
14.0381
 21
80.6346
  0
LINE
  8
0
 10
14.0381
 20
80.6346
 11
14.4816
 21
80.7933
  0
LINE
  8
0
 10
14.4816
 20
80.7933
 11
14.9386
 21
80.9078
  0
LINE
  8
0
 10
14.9386
 20
80.9078
 11
15.4045
 21
80.9769
  0
LINE
  8
0
 10
15.4045
 20
80.9769
 11
15.875
 21
81
  0
LINE
  8
0
 10
15.875
 20
81
 11
16.3455
 21
80.9769
  0
LINE
  8
0
 10
16.3455
 20
80.9769
 11
16.8114
 21
80.9078
  0
LINE
  8
0
 10
16.8114
 20
80.9078
 11
17.2684
 21
80.7933
  0
LINE
  8
0
 10
17.2684
 20
80.7933
 11
17.7119
 21
80.6346
  0
LINE
  8
0
 10
17.7119
 20
80.6346
 11
18.1377
 21
80.4332
  0
LINE
  8
0
 10
18.1377
 20
80.4332
 11
18.5417
 21
80.191
  0
LINE
  8
0
 10
18.5417
 20
80.191
 11
18.9201
 21
79.9104
  0
LINE
  8
0
 10
18.9201
 20
79.9104
 11
19.2691
 21
79.5941
  0
LINE
  8
0
 10
19.2691
 20
79.5941
 11
19.5854
 21
79.2451
  0
LINE
  8
0
 10
19.5854
 20
79.2451
 11
19.866
 21
78.8667
  0
LINE
  8
0
 10
19.866
 20
78.8667
 11
20.1082
 21
78.4627
  0
LINE
  8
0
 10
20.1082
 20
78.4627
 11
20.3096
 21
78.0369
  0
LINE
  8
0
 10
20.3096
 20
78.0369
 11
20.4683
 21
77.5934
  0
LINE
  8
0
 10
20.4683
 20
77.5934
 11
20.5828
 21
77.1364
  0
LINE
  8
0
 10
20.5828
 20
77.1364
 11
20.6519
 21
76.6705
  0
LINE
  8
0
 10
20.6519
 20
76.6705
 11
20.675
 21
76.2
  0
LINE
  8
0
 10
20.675
 20
76.2
 11
20.6519
 21
75.7295
  0
LINE
  8
0
 10
20.6519
 20
75.7295
 11
20.5828
 21
75.2636
  0
LINE
  8
0
 10
20.5828
 20
75.2636
 11
20.4683
 21
74.8066
  0
LINE
  8
0
 10
20.4683
 20
74.8066
 11
20.3096
 21
74.3631
  0
LINE
  8
0
 10
20.3096
 20
74.3631
 11
20.1082
 21
73.9373
  0
LINE
  8
0
 10
20.1082
 20
73.9373
 11
19.866
 21
73.5332
  0
LINE
  8
0
 10
19.866
 20
73.5332
 11
19.5854
 21
73.1549
  0
LINE
  8
0
 10
19.5854
 20
73.1549
 11
19.2691
 21
72.8059
  0
LINE
  8
0
 10
19.2691
 20
72.8059
 11
18.9201
 21
72.4895
  0
LINE
  8
0
 10
18.9201
 20
72.4895
 11
18.5417
 21
72.2089
  0
LINE
  8
0
 10
18.5417
 20
72.2089
 11
18.1377
 21
71.9668
  0
LINE
  8
0
 10
18.1377
 20
71.9668
 11
17.7119
 21
71.7654
  0
LINE
  8
0
 10
17.7119
 20
71.7654
 11
17.2684
 21
71.6067
  0
LINE
  8
0
 10
17.2684
 20
71.6067
 11
16.8114
 21
71.4922
  0
LINE
  8
0
 10
16.8114
 20
71.4922
 11
16.3455
 21
71.4231
  0
LINE
  8
0
 10
16.3455
 20
71.4231
 11
15.875
 21
71.4
  0
LINE
  8
0
 10
15.875
 20
71.4
 11
15.4045
 21
71.4231
  0
LINE
  8
0
 10
40.8045
 20
71.4231
 11
40.3386
 21
71.4922
  0
LINE
  8
0
 10
40.3386
 20
71.4922
 11
39.8816
 21
71.6067
  0
LINE
  8
0
 10
39.8816
 20
71.6067
 11
39.4381
 21
71.7654
  0
LINE
  8
0
 10
39.4381
 20
71.7654
 11
39.0123
 21
71.9668
  0
LINE
  8
0
 10
39.0123
 20
71.9668
 11
38.6083
 21
72.2089
  0
LINE
  8
0
 10
38.6083
 20
72.2089
 11
38.2299
 21
72.4895
  0
LINE
  8
0
 10
38.2299
 20
72.4895
 11
37.8809
 21
72.8059
  0
LINE
  8
0
 10
37.8809
 20
72.8059
 11
37.5645
 21
73.1549
  0
LINE
  8
0
 10
37.5645
 20
73.1549
 11
37.2839
 21
73.5332
  0
LINE
  8
0
 10
37.2839
 20
73.5332
 11
37.0418
 21
73.9373
  0
LINE
  8
0
 10
37.0418
 20
73.9373
 11
36.8404
 21
74.3631
  0
LINE
  8
0
 10
36.8404
 20
74.3631
 11
36.6817
 21
74.8066
  0
LINE
  8
0
 10
36.6817
 20
74.8066
 11
36.5672
 21
75.2636
  0
LINE
  8
0
 10
36.5672
 20
75.2636
 11
36.4981
 21
75.7295
  0
LINE
  8
0
 10
36.4981
 20
75.7295
 11
36.475
 21
76.2
  0
LINE
  8
0
 10
36.475
 20
76.2
 11
36.4981
 21
76.6705
  0
LINE
  8
0
 10
36.4981
 20
76.6705
 11
36.5672
 21
77.1364
  0
LINE
  8
0
 10
36.5672
 20
77.1364
 11
36.6817
 21
77.5934
  0
LINE
  8
0
 10
36.6817
 20
77.5934
 11
36.8404
 21
78.0369
  0
LINE
  8
0
 10
36.8404
 20
78.0369
 11
37.0418
 21
78.4627
  0
LINE
  8
0
 10
37.0418
 20
78.4627
 11
37.2839
 21
78.8667
  0
LINE
  8
0
 10
37.2839
 20
78.8667
 11
37.5645
 21
79.2451
  0
LINE
  8
0
 10
37.5645
 20
79.2451
 11
37.8809
 21
79.5941
  0
LINE
  8
0
 10
37.8809
 20
79.5941
 11
38.2299
 21
79.9104
  0
LINE
  8
0
 10
38.2299
 20
79.9104
 11
38.6083
 21
80.191
  0
LINE
  8
0
 10
38.6083
 20
80.191
 11
39.0123
 21
80.4332
  0
LINE
  8
0
 10
39.0123
 20
80.4332
 11
39.4381
 21
80.6346
  0
LINE
  8
0
 10
39.4381
 20
80.6346
 11
39.8816
 21
80.7933
  0
LINE
  8
0
 10
39.8816
 20
80.7933
 11
40.3386
 21
80.9078
  0
LINE
  8
0
 10
40.3386
 20
80.9078
 11
40.8045
 21
80.9769
  0
LINE
  8
0
 10
40.8045
 20
80.9769
 11
41.275
 21
81
  0
LINE
  8
0
 10
41.275
 20
81
 11
41.7455
 21
80.9769
  0
LINE
  8
0
 10
41.7455
 20
80.9769
 11
42.2114
 21
80.9078
  0
LINE
  8
0
 10
42.2114
 20
80.9078
 11
42.6684
 21
80.7933
  0
LINE
  8
0
 10
42.6684
 20
80.7933
 11
43.1119
 21
80.6346
  0
LINE
  8
0
 10
43.1119
 20
80.6346
 11
43.5377
 21
80.4332
  0
LINE
  8
0
 10
43.5377
 20
80.4332
 11
43.9417
 21
80.191
  0
LINE
  8
0
 10
43.9417
 20
80.191
 11
44.3201
 21
79.9104
  0
LINE
  8
0
 10
44.3201
 20
79.9104
 11
44.6691
 21
79.5941
  0
LINE
  8
0
 10
44.6691
 20
79.5941
 11
44.9854
 21
79.2451
  0
LINE
  8
0
 10
44.9854
 20
79.2451
 11
45.2661
 21
78.8667
  0
LINE
  8
0
 10
45.2661
 20
78.8667
 11
45.5082
 21
78.4627
  0
LINE
  8
0
 10
45.5082
 20
78.4627
 11
45.7096
 21
78.0369
  0
LINE
  8
0
 10
45.7096
 20
78.0369
 11
45.8683
 21
77.5934
  0
LINE
  8
0
 10
45.8683
 20
77.5934
 11
45.9828
 21
77.1364
  0
LINE
  8
0
 10
45.9828
 20
77.1364
 11
46.0519
 21
76.6705
  0
LINE
  8
0
 10
46.0519
 20
76.6705
 11
46.075
 21
76.2
  0
LINE
  8
0
 10
46.075
 20
76.2
 11
46.0519
 21
75.7295
  0
LINE
  8
0
 10
46.0519
 20
75.7295
 11
45.9828
 21
75.2636
  0
LINE
  8
0
 10
45.9828
 20
75.2636
 11
45.8683
 21
74.8066
  0
LINE
  8
0
 10
45.8683
 20
74.8066
 11
45.7096
 21
74.3631
  0
LINE
  8
0
 10
45.7096
 20
74.3631
 11
45.5082
 21
73.9373
  0
LINE
  8
0
 10
45.5082
 20
73.9373
 11
45.2661
 21
73.5332
  0
LINE
  8
0
 10
45.2661
 20
73.5332
 11
44.9854
 21
73.1549
  0
LINE
  8
0
 10
44.9854
 20
73.1549
 11
44.6691
 21
72.8059
  0
LINE
  8
0
 10
44.6691
 20
72.8059
 11
44.3201
 21
72.4895
  0
LINE
  8
0
 10
44.3201
 20
72.4895
 11
43.9417
 21
72.2089
  0
LINE
  8
0
 10
43.9417
 20
72.2089
 11
43.5377
 21
71.9668
  0
LINE
  8
0
 10
43.5377
 20
71.9668
 11
43.1119
 21
71.7654
  0
LINE
  8
0
 10
43.1119
 20
71.7654
 11
42.6684
 21
71.6067
  0
LINE
  8
0
 10
42.6684
 20
71.6067
 11
42.2114
 21
71.4922
  0
LINE
  8
0
 10
42.2114
 20
71.4922
 11
41.7455
 21
71.4231
  0
LINE
  8
0
 10
41.7455
 20
71.4231
 11
41.275
 21
71.4
  0
LINE
  8
0
 10
41.275
 20
71.4
 11
40.8045
 21
71.4231
  0
LINE
  8
0
 10
66.2045
 20
71.4231
 11
65.7386
 21
71.4922
  0
LINE
  8
0
 10
65.7386
 20
71.4922
 11
65.2816
 21
71.6067
  0
LINE
  8
0
 10
65.2816
 20
71.6067
 11
64.8381
 21
71.7654
  0
LINE
  8
0
 10
64.8381
 20
71.7654
 11
64.4123
 21
71.9668
  0
LINE
  8
0
 10
64.4123
 20
71.9668
 11
64.0083
 21
72.2089
  0
LINE
  8
0
 10
64.0083
 20
72.2089
 11
63.6299
 21
72.4895
  0
LINE
  8
0
 10
63.6299
 20
72.4895
 11
63.2809
 21
72.8059
  0
LINE
  8
0
 10
63.2809
 20
72.8059
 11
62.9645
 21
73.1549
  0
LINE
  8
0
 10
62.9645
 20
73.1549
 11
62.6839
 21
73.5332
  0
LINE
  8
0
 10
62.6839
 20
73.5332
 11
62.4418
 21
73.9373
  0
LINE
  8
0
 10
62.4418
 20
73.9373
 11
62.2404
 21
74.3631
  0
LINE
  8
0
 10
62.2404
 20
74.3631
 11
62.0817
 21
74.8066
  0
LINE
  8
0
 10
62.0817
 20
74.8066
 11
61.9672
 21
75.2636
  0
LINE
  8
0
 10
61.9672
 20
75.2636
 11
61.8981
 21
75.7295
  0
LINE
  8
0
 10
61.8981
 20
75.7295
 11
61.875
 21
76.2
  0
LINE
  8
0
 10
61.875
 20
76.2
 11
61.8981
 21
76.6705
  0
LINE
  8
0
 10
61.8981
 20
76.6705
 11
61.9672
 21
77.1364
  0
LINE
  8
0
 10
61.9672
 20
77.1364
 11
62.0817
 21
77.5934
  0
LINE
  8
0
 10
62.0817
 20
77.5934
 11
62.2404
 21
78.0369
  0
LINE
  8
0
 10
62.2404
 20
78.0369
 11
62.4418
 21
78.4627
  0
LINE
  8
0
 10
62.4418
 20
78.4627
 11
62.6839
 21
78.8667
  0
LINE
  8
0
 10
62.6839
 20
78.8667
 11
62.9645
 21
79.2451
  0
LINE
  8
0
 10
62.9645
 20
79.2451
 11
63.2809
 21
79.5941
  0
LINE
  8
0
 10
63.2809
 20
79.5941
 11
63.6299
 21
79.9104
  0
LINE
  8
0
 10
63.6299
 20
79.9104
 11
64.0083
 21
80.191
  0
LINE
  8
0
 10
64.0083
 20
80.191
 11
64.4123
 21
80.4332
  0
LINE
  8
0
 10
64.4123
 20
80.4332
 11
64.8381
 21
80.6346
  0
LINE
  8
0
 10
64.8381
 20
80.6346
 11
65.2816
 21
80.7933
  0
LINE
  8
0
 10
65.2816
 20
80.7933
 11
65.7386
 21
80.9078
  0
LINE
  8
0
 10
65.7386
 20
80.9078
 11
66.2045
 21
80.9769
  0
LINE
  8
0
 10
66.2045
 20
80.9769
 11
66.675
 21
81
  0
LINE
  8
0
 10
66.675
 20
81
 11
67.1455
 21
80.9769
  0
LINE
  8
0
 10
67.1455
 20
80.9769
 11
67.6114
 21
80.9078
  0
LINE
  8
0
 10
67.6114
 20
80.9078
 11
68.0684
 21
80.7933
  0
LINE
  8
0
 10
68.0684
 20
80.7933
 11
68.5119
 21
80.6346
  0
LINE
  8
0
 10
68.5119
 20
80.6346
 11
68.9377
 21
80.4332
  0
LINE
  8
0
 10
68.9377
 20
80.4332
 11
69.3417
 21
80.191
  0
LINE
  8
0
 10
69.3417
 20
80.191
 11
69.7201
 21
79.9104
  0
LINE
  8
0
 10
69.7201
 20
79.9104
 11
70.0691
 21
79.5941
  0
LINE
  8
0
 10
70.0691
 20
79.5941
 11
70.3854
 21
79.2451
  0
LINE
  8
0
 10
70.3854
 20
79.2451
 11
70.666
 21
78.8667
  0
LINE
  8
0
 10
70.666
 20
78.8667
 11
70.9082
 21
78.4627
  0
LINE
  8
0
 10
70.9082
 20
78.4627
 11
71.1096
 21
78.0369
  0
LINE
  8
0
 10
71.1096
 20
78.0369
 11
71.2683
 21
77.5934
  0
LINE
  8
0
 10
71.2683
 20
77.5934
 11
71.3828
 21
77.1364
  0
LINE
  8
0
 10
71.3828
 20
77.1364
 11
71.4519
 21
76.6705
  0
LINE
  8
0
 10
71.4519
 20
76.6705
 11
71.475
 21
76.2
  0
LINE
  8
0
 10
71.475
 20
76.2
 11
71.4519
 21
75.7295
  0
LINE
  8
0
 10
71.4519
 20
75.7295
 11
71.3828
 21
75.2636
  0
LINE
  8
0
 10
71.3828
 20
75.2636
 11
71.2683
 21
74.8066
  0
LINE
  8
0
 10
71.2683
 20
74.8066
 11
71.1096
 21
74.3631
  0
LINE
  8
0
 10
71.1096
 20
74.3631
 11
70.9082
 21
73.9373
  0
LINE
  8
0
 10
70.9082
 20
73.9373
 11
70.666
 21
73.5332
  0
LINE
  8
0
 10
70.666
 20
73.5332
 11
70.3854
 21
73.1549
  0
LINE
  8
0
 10
70.3854
 20
73.1549
 11
70.0691
 21
72.8059
  0
LINE
  8
0
 10
70.0691
 20
72.8059
 11
69.7201
 21
72.4895
  0
LINE
  8
0
 10
69.7201
 20
72.4895
 11
69.3417
 21
72.2089
  0
LINE
  8
0
 10
69.3417
 20
72.2089
 11
68.9377
 21
71.9668
  0
LINE
  8
0
 10
68.9377
 20
71.9668
 11
68.5119
 21
71.7654
  0
LINE
  8
0
 10
68.5119
 20
71.7654
 11
68.0684
 21
71.6067
  0
LINE
  8
0
 10
68.0684
 20
71.6067
 11
67.6114
 21
71.4922
  0
LINE
  8
0
 10
67.6114
 20
71.4922
 11
67.1455
 21
71.4231
  0
LINE
  8
0
 10
67.1455
 20
71.4231
 11
66.675
 21
71.4
  0
LINE
  8
0
 10
66.675
 20
71.4
 11
66.2045
 21
71.4231
  0
LINE
  8
0
 10
91.6045
 20
71.4231
 11
91.1386
 21
71.4922
  0
LINE
  8
0
 10
91.1386
 20
71.4922
 11
90.6816
 21
71.6067
  0
LINE
  8
0
 10
90.6816
 20
71.6067
 11
90.2381
 21
71.7654
  0
LINE
  8
0
 10
90.2381
 20
71.7654
 11
89.8123
 21
71.9668
  0
LINE
  8
0
 10
89.8123
 20
71.9668
 11
89.4082
 21
72.2089
  0
LINE
  8
0
 10
89.4082
 20
72.2089
 11
89.0299
 21
72.4895
  0
LINE
  8
0
 10
89.0299
 20
72.4895
 11
88.6809
 21
72.8059
  0
LINE
  8
0
 10
88.6809
 20
72.8059
 11
88.3645
 21
73.1549
  0
LINE
  8
0
 10
88.3645
 20
73.1549
 11
88.0839
 21
73.5332
  0
LINE
  8
0
 10
88.0839
 20
73.5332
 11
87.8418
 21
73.9373
  0
LINE
  8
0
 10
87.8418
 20
73.9373
 11
87.6404
 21
74.3631
  0
LINE
  8
0
 10
87.6404
 20
74.3631
 11
87.4817
 21
74.8066
  0
LINE
  8
0
 10
87.4817
 20
74.8066
 11
87.3672
 21
75.2636
  0
LINE
  8
0
 10
87.3672
 20
75.2636
 11
87.2981
 21
75.7295
  0
LINE
  8
0
 10
87.2981
 20
75.7295
 11
87.275
 21
76.2
  0
LINE
  8
0
 10
87.275
 20
76.2
 11
87.2981
 21
76.6705
  0
LINE
  8
0
 10
87.2981
 20
76.6705
 11
87.3672
 21
77.1364
  0
LINE
  8
0
 10
87.3672
 20
77.1364
 11
87.4817
 21
77.5934
  0
LINE
  8
0
 10
87.4817
 20
77.5934
 11
87.6404
 21
78.0369
  0
LINE
  8
0
 10
87.6404
 20
78.0369
 11
87.8418
 21
78.4627
  0
LINE
  8
0
 10
87.8418
 20
78.4627
 11
88.0839
 21
78.8667
  0
LINE
  8
0
 10
88.0839
 20
78.8667
 11
88.3645
 21
79.2451
  0
LINE
  8
0
 10
88.3645
 20
79.2451
 11
88.6809
 21
79.5941
  0
LINE
  8
0
 10
88.6809
 20
79.5941
 11
89.0299
 21
79.9104
  0
LINE
  8
0
 10
89.0299
 20
79.9104
 11
89.4082
 21
80.191
  0
LINE
  8
0
 10
89.4082
 20
80.191
 11
89.8123
 21
80.4332
  0
LINE
  8
0
 10
89.8123
 20
80.4332
 11
90.2381
 21
80.6346
  0
LINE
  8
0
 10
90.2381
 20
80.6346
 11
90.6816
 21
80.7933
  0
LINE
  8
0
 10
90.6816
 20
80.7933
 11
91.1386
 21
80.9078
  0
LINE
  8
0
 10
91.1386
 20
80.9078
 11
91.6045
 21
80.9769
  0
LINE
  8
0
 10
91.6045
 20
80.9769
 11
92.075
 21
81
  0
LINE
  8
0
 10
92.075
 20
81
 11
92.5455
 21
80.9769
  0
LINE
  8
0
 10
92.5455
 20
80.9769
 11
93.0114
 21
80.9078
  0
LINE
  8
0
 10
93.0114
 20
80.9078
 11
93.4684
 21
80.7933
  0
LINE
  8
0
 10
93.4684
 20
80.7933
 11
93.9119
 21
80.6346
  0
LINE
  8
0
 10
93.9119
 20
80.6346
 11
94.3377
 21
80.4332
  0
LINE
  8
0
 10
94.3377
 20
80.4332
 11
94.7417
 21
80.191
  0
LINE
  8
0
 10
94.7417
 20
80.191
 11
95.1201
 21
79.9104
  0
LINE
  8
0
 10
95.1201
 20
79.9104
 11
95.4691
 21
79.5941
  0
LINE
  8
0
 10
95.4691
 20
79.5941
 11
95.7854
 21
79.2451
  0
LINE
  8
0
 10
95.7854
 20
79.2451
 11
96.066
 21
78.8667
  0
LINE
  8
0
 10
96.066
 20
78.8667
 11
96.3082
 21
78.4627
  0
LINE
  8
0
 10
96.3082
 20
78.4627
 11
96.5096
 21
78.0369
  0
LINE
  8
0
 10
96.5096
 20
78.0369
 11
96.6683
 21
77.5934
  0
LINE
  8
0
 10
96.6683
 20
77.5934
 11
96.7828
 21
77.1364
  0
LINE
  8
0
 10
96.7828
 20
77.1364
 11
96.8519
 21
76.6705
  0
LINE
  8
0
 10
96.8519
 20
76.6705
 11
96.875
 21
76.2
  0
LINE
  8
0
 10
96.875
 20
76.2
 11
96.8519
 21
75.7295
  0
LINE
  8
0
 10
96.8519
 20
75.7295
 11
96.7828
 21
75.2636
  0
LINE
  8
0
 10
96.7828
 20
75.2636
 11
96.6683
 21
74.8066
  0
LINE
  8
0
 10
96.6683
 20
74.8066
 11
96.5096
 21
74.3631
  0
LINE
  8
0
 10
96.5096
 20
74.3631
 11
96.3082
 21
73.9373
  0
LINE
  8
0
 10
96.3082
 20
73.9373
 11
96.066
 21
73.5332
  0
LINE
  8
0
 10
96.066
 20
73.5332
 11
95.7854
 21
73.1549
  0
LINE
  8
0
 10
95.7854
 20
73.1549
 11
95.4691
 21
72.8059
  0
LINE
  8
0
 10
95.4691
 20
72.8059
 11
95.1201
 21
72.4895
  0
LINE
  8
0
 10
95.1201
 20
72.4895
 11
94.7417
 21
72.2089
  0
LINE
  8
0
 10
94.7417
 20
72.2089
 11
94.3377
 21
71.9668
  0
LINE
  8
0
 10
94.3377
 20
71.9668
 11
93.9119
 21
71.7654
  0
LINE
  8
0
 10
93.9119
 20
71.7654
 11
93.4684
 21
71.6067
  0
LINE
  8
0
 10
93.4684
 20
71.6067
 11
93.0114
 21
71.4922
  0
LINE
  8
0
 10
93.0114
 20
71.4922
 11
92.5455
 21
71.4231
  0
LINE
  8
0
 10
92.5455
 20
71.4231
 11
92.075
 21
71.4
  0
LINE
  8
0
 10
92.075
 20
71.4
 11
91.6045
 21
71.4231
  0
LINE
  8
0
 10
53.7251
 20
60.9623
 11
53.4775
 21
60.999
  0
LINE
  8
0
 10
53.4775
 20
60.999
 11
53.2348
 21
61.0598
  0
LINE
  8
0
 10
53.2348
 20
61.0598
 11
52.9991
 21
61.1441
  0
LINE
  8
0
 10
52.9991
 20
61.1441
 11
52.7729
 21
61.2511
  0
LINE
  8
0
 10
52.7729
 20
61.2511
 11
52.5583
 21
61.3797
  0
LINE
  8
0
 10
52.5583
 20
61.3797
 11
52.3573
 21
61.5288
  0
LINE
  8
0
 10
52.3573
 20
61.5288
 11
52.1719
 21
61.6969
  0
LINE
  8
0
 10
52.1719
 20
61.6969
 11
52.0038
 21
61.8823
  0
LINE
  8
0
 10
52.0038
 20
61.8823
 11
51.8548
 21
62.0833
  0
LINE
  8
0
 10
51.8548
 20
62.0833
 11
51.7261
 21
62.2979
  0
LINE
  8
0
 10
51.7261
 20
62.2979
 11
51.6191
 21
62.5242
  0
LINE
  8
0
 10
51.6191
 20
62.5242
 11
51.5348
 21
62.7598
  0
LINE
  8
0
 10
51.5348
 20
62.7598
 11
51.474
 21
63.0025
  0
LINE
  8
0
 10
51.474
 20
63.0025
 11
51.4373
 21
63.25
  0
LINE
  8
0
 10
51.4373
 20
63.25
 11
51.425
 21
63.5
  0
LINE
  8
0
 10
51.425
 20
63.5
 11
51.4373
 21
63.7499
  0
LINE
  8
0
 10
51.4373
 20
63.7499
 11
51.474
 21
63.9975
  0
LINE
  8
0
 10
51.474
 20
63.9975
 11
51.5348
 21
64.2402
  0
LINE
  8
0
 10
51.5348
 20
64.2402
 11
51.6191
 21
64.4758
  0
LINE
  8
0
 10
51.6191
 20
64.4758
 11
51.7261
 21
64.7021
  0
LINE
  8
0
 10
51.7261
 20
64.7021
 11
51.8548
 21
64.9167
  0
LINE
  8
0
 10
51.8548
 20
64.9167
 11
52.0038
 21
65.1177
  0
LINE
  8
0
 10
52.0038
 20
65.1177
 11
52.1719
 21
65.3031
  0
LINE
  8
0
 10
52.1719
 20
65.3031
 11
52.3573
 21
65.4712
  0
LINE
  8
0
 10
52.3573
 20
65.4712
 11
52.5583
 21
65.6202
  0
LINE
  8
0
 10
52.5583
 20
65.6202
 11
52.7729
 21
65.7489
  0
LINE
  8
0
 10
52.7729
 20
65.7489
 11
52.9991
 21
65.8559
  0
LINE
  8
0
 10
52.9991
 20
65.8559
 11
53.2348
 21
65.9402
  0
LINE
  8
0
 10
53.2348
 20
65.9402
 11
53.4775
 21
66.001
  0
LINE
  8
0
 10
53.4775
 20
66.001
 11
53.7251
 21
66.0377
  0
LINE
  8
0
 10
53.7251
 20
66.0377
 11
53.975
 21
66.05
  0
LINE
  8
0
 10
53.975
 20
66.05
 11
54.2249
 21
66.0377
  0
LINE
  8
0
 10
54.2249
 20
66.0377
 11
54.4725
 21
66.001
  0
LINE
  8
0
 10
54.4725
 20
66.001
 11
54.7152
 21
65.9402
  0
LINE
  8
0
 10
54.7152
 20
65.9402
 11
54.9508
 21
65.8559
  0
LINE
  8
0
 10
54.9508
 20
65.8559
 11
55.177
 21
65.7489
  0
LINE
  8
0
 10
55.177
 20
65.7489
 11
55.3917
 21
65.6202
  0
LINE
  8
0
 10
55.3917
 20
65.6202
 11
55.5927
 21
65.4712
  0
LINE
  8
0
 10
55.5927
 20
65.4712
 11
55.7781
 21
65.3031
  0
LINE
  8
0
 10
55.7781
 20
65.3031
 11
55.9462
 21
65.1177
  0
LINE
  8
0
 10
55.9462
 20
65.1177
 11
56.0952
 21
64.9167
  0
LINE
  8
0
 10
56.0952
 20
64.9167
 11
56.2239
 21
64.7021
  0
LINE
  8
0
 10
56.2239
 20
64.7021
 11
56.3309
 21
64.4758
  0
LINE
  8
0
 10
56.3309
 20
64.4758
 11
56.4152
 21
64.2402
  0
LINE
  8
0
 10
56.4152
 20
64.2402
 11
56.476
 21
63.9975
  0
LINE
  8
0
 10
56.476
 20
63.9975
 11
56.5127
 21
63.7499
  0
LINE
  8
0
 10
56.5127
 20
63.7499
 11
56.525
 21
63.5
  0
LINE
  8
0
 10
56.525
 20
63.5
 11
56.5127
 21
63.25
  0
LINE
  8
0
 10
56.5127
 20
63.25
 11
56.476
 21
63.0025
  0
LINE
  8
0
 10
56.476
 20
63.0025
 11
56.4152
 21
62.7598
  0
LINE
  8
0
 10
56.4152
 20
62.7598
 11
56.3309
 21
62.5242
  0
LINE
  8
0
 10
56.3309
 20
62.5242
 11
56.2239
 21
62.2979
  0
LINE
  8
0
 10
56.2239
 20
62.2979
 11
56.0952
 21
62.0833
  0
LINE
  8
0
 10
56.0952
 20
62.0833
 11
55.9462
 21
61.8823
  0
LINE
  8
0
 10
55.9462
 20
61.8823
 11
55.7781
 21
61.6969
  0
LINE
  8
0
 10
55.7781
 20
61.6969
 11
55.5927
 21
61.5288
  0
LINE
  8
0
 10
55.5927
 20
61.5288
 11
55.3917
 21
61.3797
  0
LINE
  8
0
 10
55.3917
 20
61.3797
 11
55.177
 21
61.2511
  0
LINE
  8
0
 10
55.177
 20
61.2511
 11
54.9508
 21
61.1441
  0
LINE
  8
0
 10
54.9508
 20
61.1441
 11
54.7152
 21
61.0598
  0
LINE
  8
0
 10
54.7152
 20
61.0598
 11
54.4725
 21
60.999
  0
LINE
  8
0
 10
54.4725
 20
60.999
 11
54.2249
 21
60.9623
  0
LINE
  8
0
 10
54.2249
 20
60.9623
 11
53.975
 21
60.95
  0
LINE
  8
0
 10
53.975
 20
60.95
 11
53.7251
 21
60.9623
  0
LINE
  8
0
 10
40.8045
 20
46.0231
 11
40.3386
 21
46.0922
  0
LINE
  8
0
 10
40.3386
 20
46.0922
 11
39.8816
 21
46.2067
  0
LINE
  8
0
 10
39.8816
 20
46.2067
 11
39.4381
 21
46.3654
  0
LINE
  8
0
 10
39.4381
 20
46.3654
 11
39.0123
 21
46.5668
  0
LINE
  8
0
 10
39.0123
 20
46.5668
 11
38.6083
 21
46.8089
  0
LINE
  8
0
 10
38.6083
 20
46.8089
 11
38.2299
 21
47.0895
  0
LINE
  8
0
 10
38.2299
 20
47.0895
 11
37.8809
 21
47.4059
  0
LINE
  8
0
 10
37.8809
 20
47.4059
 11
37.5645
 21
47.7549
  0
LINE
  8
0
 10
37.5645
 20
47.7549
 11
37.2839
 21
48.1333
  0
LINE
  8
0
 10
37.2839
 20
48.1333
 11
37.0418
 21
48.5373
  0
LINE
  8
0
 10
37.0418
 20
48.5373
 11
36.8404
 21
48.9631
  0
LINE
  8
0
 10
36.8404
 20
48.9631
 11
36.6817
 21
49.4066
  0
LINE
  8
0
 10
36.6817
 20
49.4066
 11
36.5672
 21
49.8636
  0
LINE
  8
0
 10
36.5672
 20
49.8636
 11
36.4981
 21
50.3295
  0
LINE
  8
0
 10
36.4981
 20
50.3295
 11
36.475
 21
50.8
  0
LINE
  8
0
 10
36.475
 20
50.8
 11
36.4981
 21
51.2705
  0
LINE
  8
0
 10
36.4981
 20
51.2705
 11
36.5672
 21
51.7364
  0
LINE
  8
0
 10
36.5672
 20
51.7364
 11
36.6817
 21
52.1934
  0
LINE
  8
0
 10
36.6817
 20
52.1934
 11
36.8404
 21
52.6369
  0
LINE
  8
0
 10
36.8404
 20
52.6369
 11
37.0418
 21
53.0627
  0
LINE
  8
0
 10
37.0418
 20
53.0627
 11
37.2839
 21
53.4667
  0
LINE
  8
0
 10
37.2839
 20
53.4667
 11
37.5645
 21
53.8451
  0
LINE
  8
0
 10
37.5645
 20
53.8451
 11
37.8809
 21
54.1941
  0
LINE
  8
0
 10
37.8809
 20
54.1941
 11
38.2299
 21
54.5104
  0
LINE
  8
0
 10
38.2299
 20
54.5104
 11
38.6083
 21
54.791
  0
LINE
  8
0
 10
38.6083
 20
54.791
 11
39.0123
 21
55.0332
  0
LINE
  8
0
 10
39.0123
 20
55.0332
 11
39.4381
 21
55.2346
  0
LINE
  8
0
 10
39.4381
 20
55.2346
 11
39.8816
 21
55.3933
  0
LINE
  8
0
 10
39.8816
 20
55.3933
 11
40.3386
 21
55.5078
  0
LINE
  8
0
 10
40.3386
 20
55.5078
 11
40.8045
 21
55.5769
  0
LINE
  8
0
 10
40.8045
 20
55.5769
 11
41.275
 21
55.6
  0
LINE
  8
0
 10
41.275
 20
55.6
 11
41.7455
 21
55.5769
  0
LINE
  8
0
 10
41.7455
 20
55.5769
 11
42.2114
 21
55.5078
  0
LINE
  8
0
 10
42.2114
 20
55.5078
 11
42.6684
 21
55.3933
  0
LINE
  8
0
 10
42.6684
 20
55.3933
 11
43.1119
 21
55.2346
  0
LINE
  8
0
 10
43.1119
 20
55.2346
 11
43.5377
 21
55.0332
  0
LINE
  8
0
 10
43.5377
 20
55.0332
 11
43.9417
 21
54.791
  0
LINE
  8
0
 10
43.9417
 20
54.791
 11
44.3201
 21
54.5104
  0
LINE
  8
0
 10
44.3201
 20
54.5104
 11
44.6691
 21
54.1941
  0
LINE
  8
0
 10
44.6691
 20
54.1941
 11
44.9854
 21
53.8451
  0
LINE
  8
0
 10
44.9854
 20
53.8451
 11
45.2661
 21
53.4667
  0
LINE
  8
0
 10
45.2661
 20
53.4667
 11
45.5082
 21
53.0627
  0
LINE
  8
0
 10
45.5082
 20
53.0627
 11
45.7096
 21
52.6369
  0
LINE
  8
0
 10
45.7096
 20
52.6369
 11
45.8683
 21
52.1934
  0
LINE
  8
0
 10
45.8683
 20
52.1934
 11
45.9828
 21
51.7364
  0
LINE
  8
0
 10
45.9828
 20
51.7364
 11
46.0519
 21
51.2705
  0
LINE
  8
0
 10
46.0519
 20
51.2705
 11
46.075
 21
50.8
  0
LINE
  8
0
 10
46.075
 20
50.8
 11
46.0519
 21
50.3295
  0
LINE
  8
0
 10
46.0519
 20
50.3295
 11
45.9828
 21
49.8636
  0
LINE
  8
0
 10
45.9828
 20
49.8636
 11
45.8683
 21
49.4066
  0
LINE
  8
0
 10
45.8683
 20
49.4066
 11
45.7096
 21
48.9631
  0
LINE
  8
0
 10
45.7096
 20
48.9631
 11
45.5082
 21
48.5373
  0
LINE
  8
0
 10
45.5082
 20
48.5373
 11
45.2661
 21
48.1333
  0
LINE
  8
0
 10
45.2661
 20
48.1333
 11
44.9854
 21
47.7549
  0
LINE
  8
0
 10
44.9854
 20
47.7549
 11
44.6691
 21
47.4059
  0
LINE
  8
0
 10
44.6691
 20
47.4059
 11
44.3201
 21
47.0895
  0
LINE
  8
0
 10
44.3201
 20
47.0895
 11
43.9417
 21
46.8089
  0
LINE
  8
0
 10
43.9417
 20
46.8089
 11
43.5377
 21
46.5668
  0
LINE
  8
0
 10
43.5377
 20
46.5668
 11
43.1119
 21
46.3654
  0
LINE
  8
0
 10
43.1119
 20
46.3654
 11
42.6684
 21
46.2067
  0
LINE
  8
0
 10
42.6684
 20
46.2067
 11
42.2114
 21
46.0922
  0
LINE
  8
0
 10
42.2114
 20
46.0922
 11
41.7455
 21
46.0231
  0
LINE
  8
0
 10
41.7455
 20
46.0231
 11
41.275
 21
46
  0
LINE
  8
0
 10
41.275
 20
46
 11
40.8045
 21
46.0231
  0
LINE
  8
0
 10
91.6045
 20
46.0231
 11
91.1386
 21
46.0922
  0
LINE
  8
0
 10
91.1386
 20
46.0922
 11
90.6816
 21
46.2067
  0
LINE
  8
0
 10
90.6816
 20
46.2067
 11
90.2381
 21
46.3654
  0
LINE
  8
0
 10
90.2381
 20
46.3654
 11
89.8123
 21
46.5668
  0
LINE
  8
0
 10
89.8123
 20
46.5668
 11
89.4082
 21
46.8089
  0
LINE
  8
0
 10
89.4082
 20
46.8089
 11
89.0299
 21
47.0895
  0
LINE
  8
0
 10
89.0299
 20
47.0895
 11
88.6809
 21
47.4059
  0
LINE
  8
0
 10
88.6809
 20
47.4059
 11
88.3645
 21
47.7549
  0
LINE
  8
0
 10
88.3645
 20
47.7549
 11
88.0839
 21
48.1333
  0
LINE
  8
0
 10
88.0839
 20
48.1333
 11
87.8418
 21
48.5373
  0
LINE
  8
0
 10
87.8418
 20
48.5373
 11
87.6404
 21
48.9631
  0
LINE
  8
0
 10
87.6404
 20
48.9631
 11
87.4817
 21
49.4066
  0
LINE
  8
0
 10
87.4817
 20
49.4066
 11
87.3672
 21
49.8636
  0
LINE
  8
0
 10
87.3672
 20
49.8636
 11
87.2981
 21
50.3295
  0
LINE
  8
0
 10
87.2981
 20
50.3295
 11
87.275
 21
50.8
  0
LINE
  8
0
 10
87.275
 20
50.8
 11
87.2981
 21
51.2705
  0
LINE
  8
0
 10
87.2981
 20
51.2705
 11
87.3672
 21
51.7364
  0
LINE
  8
0
 10
87.3672
 20
51.7364
 11
87.4817
 21
52.1934
  0
LINE
  8
0
 10
87.4817
 20
52.1934
 11
87.6404
 21
52.6369
  0
LINE
  8
0
 10
87.6404
 20
52.6369
 11
87.8418
 21
53.0627
  0
LINE
  8
0
 10
87.8418
 20
53.0627
 11
88.0839
 21
53.4667
  0
LINE
  8
0
 10
88.0839
 20
53.4667
 11
88.3645
 21
53.8451
  0
LINE
  8
0
 10
88.3645
 20
53.8451
 11
88.6809
 21
54.1941
  0
LINE
  8
0
 10
88.6809
 20
54.1941
 11
89.0299
 21
54.5104
  0
LINE
  8
0
 10
89.0299
 20
54.5104
 11
89.4082
 21
54.791
  0
LINE
  8
0
 10
89.4082
 20
54.791
 11
89.8123
 21
55.0332
  0
LINE
  8
0
 10
89.8123
 20
55.0332
 11
90.2381
 21
55.2346
  0
LINE
  8
0
 10
90.2381
 20
55.2346
 11
90.6816
 21
55.3933
  0
LINE
  8
0
 10
90.6816
 20
55.3933
 11
91.1386
 21
55.5078
  0
LINE
  8
0
 10
91.1386
 20
55.5078
 11
91.6045
 21
55.5769
  0
LINE
  8
0
 10
91.6045
 20
55.5769
 11
92.075
 21
55.6
  0
LINE
  8
0
 10
92.075
 20
55.6
 11
92.5455
 21
55.5769
  0
LINE
  8
0
 10
92.5455
 20
55.5769
 11
93.0114
 21
55.5078
  0
LINE
  8
0
 10
93.0114
 20
55.5078
 11
93.4684
 21
55.3933
  0
LINE
  8
0
 10
93.4684
 20
55.3933
 11
93.9119
 21
55.2346
  0
LINE
  8
0
 10
93.9119
 20
55.2346
 11
94.3377
 21
55.0332
  0
LINE
  8
0
 10
94.3377
 20
55.0332
 11
94.7417
 21
54.791
  0
LINE
  8
0
 10
94.7417
 20
54.791
 11
95.1201
 21
54.5104
  0
LINE
  8
0
 10
95.1201
 20
54.5104
 11
95.4691
 21
54.1941
  0
LINE
  8
0
 10
95.4691
 20
54.1941
 11
95.7854
 21
53.8451
  0
LINE
  8
0
 10
95.7854
 20
53.8451
 11
96.066
 21
53.4667
  0
LINE
  8
0
 10
96.066
 20
53.4667
 11
96.3082
 21
53.0627
  0
LINE
  8
0
 10
96.3082
 20
53.0627
 11
96.5096
 21
52.6369
  0
LINE
  8
0
 10
96.5096
 20
52.6369
 11
96.6683
 21
52.1934
  0
LINE
  8
0
 10
96.6683
 20
52.1934
 11
96.7828
 21
51.7364
  0
LINE
  8
0
 10
96.7828
 20
51.7364
 11
96.8519
 21
51.2705
  0
LINE
  8
0
 10
96.8519
 20
51.2705
 11
96.875
 21
50.8
  0
LINE
  8
0
 10
96.875
 20
50.8
 11
96.8519
 21
50.3295
  0
LINE
  8
0
 10
96.8519
 20
50.3295
 11
96.7828
 21
49.8636
  0
LINE
  8
0
 10
96.7828
 20
49.8636
 11
96.6683
 21
49.4066
  0
LINE
  8
0
 10
96.6683
 20
49.4066
 11
96.5096
 21
48.9631
  0
LINE
  8
0
 10
96.5096
 20
48.9631
 11
96.3082
 21
48.5373
  0
LINE
  8
0
 10
96.3082
 20
48.5373
 11
96.066
 21
48.1333
  0
LINE
  8
0
 10
96.066
 20
48.1333
 11
95.7854
 21
47.7549
  0
LINE
  8
0
 10
95.7854
 20
47.7549
 11
95.4691
 21
47.4059
  0
LINE
  8
0
 10
95.4691
 20
47.4059
 11
95.1201
 21
47.0895
  0
LINE
  8
0
 10
95.1201
 20
47.0895
 11
94.7417
 21
46.8089
  0
LINE
  8
0
 10
94.7417
 20
46.8089
 11
94.3377
 21
46.5668
  0
LINE
  8
0
 10
94.3377
 20
46.5668
 11
93.9119
 21
46.3654
  0
LINE
  8
0
 10
93.9119
 20
46.3654
 11
93.4684
 21
46.2067
  0
LINE
  8
0
 10
93.4684
 20
46.2067
 11
93.0114
 21
46.0922
  0
LINE
  8
0
 10
93.0114
 20
46.0922
 11
92.5455
 21
46.0231
  0
LINE
  8
0
 10
92.5455
 20
46.0231
 11
92.075
 21
46
  0
LINE
  8
0
 10
92.075
 20
46
 11
91.6045
 21
46.0231
  0
LINE
  8
0
 10
66.2045
 20
46.0231
 11
65.7386
 21
46.0922
  0
LINE
  8
0
 10
65.7386
 20
46.0922
 11
65.2816
 21
46.2067
  0
LINE
  8
0
 10
65.2816
 20
46.2067
 11
64.8381
 21
46.3654
  0
LINE
  8
0
 10
64.8381
 20
46.3654
 11
64.4123
 21
46.5668
  0
LINE
  8
0
 10
64.4123
 20
46.5668
 11
64.0083
 21
46.8089
  0
LINE
  8
0
 10
64.0083
 20
46.8089
 11
63.6299
 21
47.0895
  0
LINE
  8
0
 10
63.6299
 20
47.0895
 11
63.2809
 21
47.4059
  0
LINE
  8
0
 10
63.2809
 20
47.4059
 11
62.9645
 21
47.7549
  0
LINE
  8
0
 10
62.9645
 20
47.7549
 11
62.6839
 21
48.1333
  0
LINE
  8
0
 10
62.6839
 20
48.1333
 11
62.4418
 21
48.5373
  0
LINE
  8
0
 10
62.4418
 20
48.5373
 11
62.2404
 21
48.9631
  0
LINE
  8
0
 10
62.2404
 20
48.9631
 11
62.0817
 21
49.4066
  0
LINE
  8
0
 10
62.0817
 20
49.4066
 11
61.9672
 21
49.8636
  0
LINE
  8
0
 10
61.9672
 20
49.8636
 11
61.8981
 21
50.3295
  0
LINE
  8
0
 10
61.8981
 20
50.3295
 11
61.875
 21
50.8
  0
LINE
  8
0
 10
61.875
 20
50.8
 11
61.8981
 21
51.2705
  0
LINE
  8
0
 10
61.8981
 20
51.2705
 11
61.9672
 21
51.7364
  0
LINE
  8
0
 10
61.9672
 20
51.7364
 11
62.0817
 21
52.1934
  0
LINE
  8
0
 10
62.0817
 20
52.1934
 11
62.2404
 21
52.6369
  0
LINE
  8
0
 10
62.2404
 20
52.6369
 11
62.4418
 21
53.0627
  0
LINE
  8
0
 10
62.4418
 20
53.0627
 11
62.6839
 21
53.4667
  0
LINE
  8
0
 10
62.6839
 20
53.4667
 11
62.9645
 21
53.8451
  0
LINE
  8
0
 10
62.9645
 20
53.8451
 11
63.2809
 21
54.1941
  0
LINE
  8
0
 10
63.2809
 20
54.1941
 11
63.6299
 21
54.5104
  0
LINE
  8
0
 10
63.6299
 20
54.5104
 11
64.0083
 21
54.791
  0
LINE
  8
0
 10
64.0083
 20
54.791
 11
64.4123
 21
55.0332
  0
LINE
  8
0
 10
64.4123
 20
55.0332
 11
64.8381
 21
55.2346
  0
LINE
  8
0
 10
64.8381
 20
55.2346
 11
65.2816
 21
55.3933
  0
LINE
  8
0
 10
65.2816
 20
55.3933
 11
65.7386
 21
55.5078
  0
LINE
  8
0
 10
65.7386
 20
55.5078
 11
66.2045
 21
55.5769
  0
LINE
  8
0
 10
66.2045
 20
55.5769
 11
66.675
 21
55.6
  0
LINE
  8
0
 10
66.675
 20
55.6
 11
67.1455
 21
55.5769
  0
LINE
  8
0
 10
67.1455
 20
55.5769
 11
67.6114
 21
55.5078
  0
LINE
  8
0
 10
67.6114
 20
55.5078
 11
68.0684
 21
55.3933
  0
LINE
  8
0
 10
68.0684
 20
55.3933
 11
68.5119
 21
55.2346
  0
LINE
  8
0
 10
68.5119
 20
55.2346
 11
68.9377
 21
55.0332
  0
LINE
  8
0
 10
68.9377
 20
55.0332
 11
69.3417
 21
54.791
  0
LINE
  8
0
 10
69.3417
 20
54.791
 11
69.7201
 21
54.5104
  0
LINE
  8
0
 10
69.7201
 20
54.5104
 11
70.0691
 21
54.1941
  0
LINE
  8
0
 10
70.0691
 20
54.1941
 11
70.3854
 21
53.8451
  0
LINE
  8
0
 10
70.3854
 20
53.8451
 11
70.666
 21
53.4667
  0
LINE
  8
0
 10
70.666
 20
53.4667
 11
70.9082
 21
53.0627
  0
LINE
  8
0
 10
70.9082
 20
53.0627
 11
71.1096
 21
52.6369
  0
LINE
  8
0
 10
71.1096
 20
52.6369
 11
71.2683
 21
52.1934
  0
LINE
  8
0
 10
71.2683
 20
52.1934
 11
71.3828
 21
51.7364
  0
LINE
  8
0
 10
71.3828
 20
51.7364
 11
71.4519
 21
51.2705
  0
LINE
  8
0
 10
71.4519
 20
51.2705
 11
71.475
 21
50.8
  0
LINE
  8
0
 10
71.475
 20
50.8
 11
71.4519
 21
50.3295
  0
LINE
  8
0
 10
71.4519
 20
50.3295
 11
71.3828
 21
49.8636
  0
LINE
  8
0
 10
71.3828
 20
49.8636
 11
71.2683
 21
49.4066
  0
LINE
  8
0
 10
71.2683
 20
49.4066
 11
71.1096
 21
48.9631
  0
LINE
  8
0
 10
71.1096
 20
48.9631
 11
70.9082
 21
48.5373
  0
LINE
  8
0
 10
70.9082
 20
48.5373
 11
70.666
 21
48.1333
  0
LINE
  8
0
 10
70.666
 20
48.1333
 11
70.3854
 21
47.7549
  0
LINE
  8
0
 10
70.3854
 20
47.7549
 11
70.0691
 21
47.4059
  0
LINE
  8
0
 10
70.0691
 20
47.4059
 11
69.7201
 21
47.0895
  0
LINE
  8
0
 10
69.7201
 20
47.0895
 11
69.3417
 21
46.8089
  0
LINE
  8
0
 10
69.3417
 20
46.8089
 11
68.9377
 21
46.5668
  0
LINE
  8
0
 10
68.9377
 20
46.5668
 11
68.5119
 21
46.3654
  0
LINE
  8
0
 10
68.5119
 20
46.3654
 11
68.0684
 21
46.2067
  0
LINE
  8
0
 10
68.0684
 20
46.2067
 11
67.6114
 21
46.0922
  0
LINE
  8
0
 10
67.6114
 20
46.0922
 11
67.1455
 21
46.0231
  0
LINE
  8
0
 10
67.1455
 20
46.0231
 11
66.675
 21
46
  0
LINE
  8
0
 10
66.675
 20
46
 11
66.2045
 21
46.0231
  0
LINE
  8
0
 10
15.4045
 20
46.0231
 11
14.9386
 21
46.0922
  0
LINE
  8
0
 10
14.9386
 20
46.0922
 11
14.4816
 21
46.2067
  0
LINE
  8
0
 10
14.4816
 20
46.2067
 11
14.0381
 21
46.3654
  0
LINE
  8
0
 10
14.0381
 20
46.3654
 11
13.6123
 21
46.5668
  0
LINE
  8
0
 10
13.6123
 20
46.5668
 11
13.2083
 21
46.8089
  0
LINE
  8
0
 10
13.2083
 20
46.8089
 11
12.8299
 21
47.0895
  0
LINE
  8
0
 10
12.8299
 20
47.0895
 11
12.4809
 21
47.4059
  0
LINE
  8
0
 10
12.4809
 20
47.4059
 11
12.1645
 21
47.7549
  0
LINE
  8
0
 10
12.1645
 20
47.7549
 11
11.8839
 21
48.1333
  0
LINE
  8
0
 10
11.8839
 20
48.1333
 11
11.6418
 21
48.5373
  0
LINE
  8
0
 10
11.6418
 20
48.5373
 11
11.4404
 21
48.9631
  0
LINE
  8
0
 10
11.4404
 20
48.9631
 11
11.2817
 21
49.4066
  0
LINE
  8
0
 10
11.2817
 20
49.4066
 11
11.1672
 21
49.8636
  0
LINE
  8
0
 10
11.1672
 20
49.8636
 11
11.0981
 21
50.3295
  0
LINE
  8
0
 10
11.0981
 20
50.3295
 11
11.075
 21
50.8
  0
LINE
  8
0
 10
11.075
 20
50.8
 11
11.0981
 21
51.2705
  0
LINE
  8
0
 10
11.0981
 20
51.2705
 11
11.1672
 21
51.7364
  0
LINE
  8
0
 10
11.1672
 20
51.7364
 11
11.2817
 21
52.1934
  0
LINE
  8
0
 10
11.2817
 20
52.1934
 11
11.4404
 21
52.6369
  0
LINE
  8
0
 10
11.4404
 20
52.6369
 11
11.6418
 21
53.0627
  0
LINE
  8
0
 10
11.6418
 20
53.0627
 11
11.8839
 21
53.4667
  0
LINE
  8
0
 10
11.8839
 20
53.4667
 11
12.1645
 21
53.8451
  0
LINE
  8
0
 10
12.1645
 20
53.8451
 11
12.4809
 21
54.1941
  0
LINE
  8
0
 10
12.4809
 20
54.1941
 11
12.8299
 21
54.5104
  0
LINE
  8
0
 10
12.8299
 20
54.5104
 11
13.2083
 21
54.791
  0
LINE
  8
0
 10
13.2083
 20
54.791
 11
13.6123
 21
55.0332
  0
LINE
  8
0
 10
13.6123
 20
55.0332
 11
14.0381
 21
55.2346
  0
LINE
  8
0
 10
14.0381
 20
55.2346
 11
14.4816
 21
55.3933
  0
LINE
  8
0
 10
14.4816
 20
55.3933
 11
14.9386
 21
55.5078
  0
LINE
  8
0
 10
14.9386
 20
55.5078
 11
15.4045
 21
55.5769
  0
LINE
  8
0
 10
15.4045
 20
55.5769
 11
15.875
 21
55.6
  0
LINE
  8
0
 10
15.875
 20
55.6
 11
16.3455
 21
55.5769
  0
LINE
  8
0
 10
16.3455
 20
55.5769
 11
16.8114
 21
55.5078
  0
LINE
  8
0
 10
16.8114
 20
55.5078
 11
17.2684
 21
55.3933
  0
LINE
  8
0
 10
17.2684
 20
55.3933
 11
17.7119
 21
55.2346
  0
LINE
  8
0
 10
17.7119
 20
55.2346
 11
18.1377
 21
55.0332
  0
LINE
  8
0
 10
18.1377
 20
55.0332
 11
18.5417
 21
54.791
  0
LINE
  8
0
 10
18.5417
 20
54.791
 11
18.9201
 21
54.5104
  0
LINE
  8
0
 10
18.9201
 20
54.5104
 11
19.2691
 21
54.1941
  0
LINE
  8
0
 10
19.2691
 20
54.1941
 11
19.5854
 21
53.8451
  0
LINE
  8
0
 10
19.5854
 20
53.8451
 11
19.866
 21
53.4667
  0
LINE
  8
0
 10
19.866
 20
53.4667
 11
20.1082
 21
53.0627
  0
LINE
  8
0
 10
20.1082
 20
53.0627
 11
20.3096
 21
52.6369
  0
LINE
  8
0
 10
20.3096
 20
52.6369
 11
20.4683
 21
52.1934
  0
LINE
  8
0
 10
20.4683
 20
52.1934
 11
20.5828
 21
51.7364
  0
LINE
  8
0
 10
20.5828
 20
51.7364
 11
20.6519
 21
51.2705
  0
LINE
  8
0
 10
20.6519
 20
51.2705
 11
20.675
 21
50.8
  0
LINE
  8
0
 10
20.675
 20
50.8
 11
20.6519
 21
50.3295
  0
LINE
  8
0
 10
20.6519
 20
50.3295
 11
20.5828
 21
49.8636
  0
LINE
  8
0
 10
20.5828
 20
49.8636
 11
20.4683
 21
49.4066
  0
LINE
  8
0
 10
20.4683
 20
49.4066
 11
20.3096
 21
48.9631
  0
LINE
  8
0
 10
20.3096
 20
48.9631
 11
20.1082
 21
48.5373
  0
LINE
  8
0
 10
20.1082
 20
48.5373
 11
19.866
 21
48.1333
  0
LINE
  8
0
 10
19.866
 20
48.1333
 11
19.5854
 21
47.7549
  0
LINE
  8
0
 10
19.5854
 20
47.7549
 11
19.2691
 21
47.4059
  0
LINE
  8
0
 10
19.2691
 20
47.4059
 11
18.9201
 21
47.0895
  0
LINE
  8
0
 10
18.9201
 20
47.0895
 11
18.5417
 21
46.8089
  0
LINE
  8
0
 10
18.5417
 20
46.8089
 11
18.1377
 21
46.5668
  0
LINE
  8
0
 10
18.1377
 20
46.5668
 11
17.7119
 21
46.3654
  0
LINE
  8
0
 10
17.7119
 20
46.3654
 11
17.2684
 21
46.2067
  0
LINE
  8
0
 10
17.2684
 20
46.2067
 11
16.8114
 21
46.0922
  0
LINE
  8
0
 10
16.8114
 20
46.0922
 11
16.3455
 21
46.0231
  0
LINE
  8
0
 10
16.3455
 20
46.0231
 11
15.875
 21
46
  0
LINE
  8
0
 10
15.875
 20
46
 11
15.4045
 21
46.0231
  0
LINE
  8
0
 10
28.3103
 20
35.413
 11
28.0482
 21
35.4519
  0
LINE
  8
0
 10
28.0482
 20
35.4519
 11
27.7912
 21
35.5163
  0
LINE
  8
0
 10
27.7912
 20
35.5163
 11
27.5417
 21
35.6055
  0
LINE
  8
0
 10
27.5417
 20
35.6055
 11
27.3022
 21
35.7188
  0
LINE
  8
0
 10
27.3022
 20
35.7188
 11
27.075
 21
35.855
  0
LINE
  8
0
 10
27.075
 20
35.855
 11
26.8621
 21
36.0129
  0
LINE
  8
0
 10
26.8621
 20
36.0129
 11
26.6658
 21
36.1908
  0
LINE
  8
0
 10
26.6658
 20
36.1908
 11
26.4879
 21
36.3871
  0
LINE
  8
0
 10
26.4879
 20
36.3871
 11
26.33
 21
36.6
  0
LINE
  8
0
 10
26.33
 20
36.6
 11
26.1938
 21
36.8272
  0
LINE
  8
0
 10
26.1938
 20
36.8272
 11
26.0805
 21
37.0667
  0
LINE
  8
0
 10
26.0805
 20
37.0667
 11
25.9913
 21
37.3162
  0
LINE
  8
0
 10
25.9913
 20
37.3162
 11
25.9269
 21
37.5732
  0
LINE
  8
0
 10
25.9269
 20
37.5732
 11
25.888
 21
37.8353
  0
LINE
  8
0
 10
25.888
 20
37.8353
 11
25.875
 21
38.1
  0
LINE
  8
0
 10
25.875
 20
38.1
 11
25.888
 21
38.3646
  0
LINE
  8
0
 10
25.888
 20
38.3646
 11
25.9269
 21
38.6267
  0
LINE
  8
0
 10
25.9269
 20
38.6267
 11
25.9913
 21
38.8838
  0
LINE
  8
0
 10
25.9913
 20
38.8838
 11
26.0805
 21
39.1332
  0
LINE
  8
0
 10
26.0805
 20
39.1332
 11
26.1938
 21
39.3728
  0
LINE
  8
0
 10
26.1938
 20
39.3728
 11
26.33
 21
39.6
  0
LINE
  8
0
 10
26.33
 20
39.6
 11
26.4879
 21
39.8129
  0
LINE
  8
0
 10
26.4879
 20
39.8129
 11
26.6658
 21
40.0092
  0
LINE
  8
0
 10
26.6658
 20
40.0092
 11
26.8621
 21
40.1871
  0
LINE
  8
0
 10
26.8621
 20
40.1871
 11
27.075
 21
40.345
  0
LINE
  8
0
 10
27.075
 20
40.345
 11
27.3022
 21
40.4812
  0
LINE
  8
0
 10
27.3022
 20
40.4812
 11
27.5417
 21
40.5945
  0
LINE
  8
0
 10
27.5417
 20
40.5945
 11
27.7912
 21
40.6837
  0
LINE
  8
0
 10
27.7912
 20
40.6837
 11
28.0482
 21
40.7481
  0
LINE
  8
0
 10
28.0482
 20
40.7481
 11
28.3103
 21
40.787
  0
LINE
  8
0
 10
28.3103
 20
40.787
 11
28.575
 21
40.8
  0
LINE
  8
0
 10
28.575
 20
40.8
 11
28.8396
 21
40.787
  0
LINE
  8
0
 10
28.8396
 20
40.787
 11
29.1017
 21
40.7481
  0
LINE
  8
0
 10
29.1017
 20
40.7481
 11
29.3588
 21
40.6837
  0
LINE
  8
0
 10
29.3588
 20
40.6837
 11
29.6082
 21
40.5945
  0
LINE
  8
0
 10
29.6082
 20
40.5945
 11
29.8478
 21
40.4812
  0
LINE
  8
0
 10
29.8478
 20
40.4812
 11
30.075
 21
40.345
  0
LINE
  8
0
 10
30.075
 20
40.345
 11
30.2879
 21
40.1871
  0
LINE
  8
0
 10
30.2879
 20
40.1871
 11
30.4842
 21
40.0092
  0
LINE
  8
0
 10
30.4842
 20
40.0092
 11
30.6621
 21
39.8129
  0
LINE
  8
0
 10
30.6621
 20
39.8129
 11
30.82
 21
39.6
  0
LINE
  8
0
 10
30.82
 20
39.6
 11
30.9562
 21
39.3728
  0
LINE
  8
0
 10
30.9562
 20
39.3728
 11
31.0695
 21
39.1332
  0
LINE
  8
0
 10
31.0695
 20
39.1332
 11
31.1587
 21
38.8838
  0
LINE
  8
0
 10
31.1587
 20
38.8838
 11
31.2231
 21
38.6267
  0
LINE
  8
0
 10
31.2231
 20
38.6267
 11
31.262
 21
38.3646
  0
LINE
  8
0
 10
31.262
 20
38.3646
 11
31.275
 21
38.1
  0
LINE
  8
0
 10
31.275
 20
38.1
 11
31.262
 21
37.8353
  0
LINE
  8
0
 10
31.262
 20
37.8353
 11
31.2231
 21
37.5732
  0
LINE
  8
0
 10
31.2231
 20
37.5732
 11
31.1587
 21
37.3162
  0
LINE
  8
0
 10
31.1587
 20
37.3162
 11
31.0695
 21
37.0667
  0
LINE
  8
0
 10
31.0695
 20
37.0667
 11
30.9562
 21
36.8272
  0
LINE
  8
0
 10
30.9562
 20
36.8272
 11
30.82
 21
36.6
  0
LINE
  8
0
 10
30.82
 20
36.6
 11
30.6621
 21
36.3871
  0
LINE
  8
0
 10
30.6621
 20
36.3871
 11
30.4842
 21
36.1908
  0
LINE
  8
0
 10
30.4842
 20
36.1908
 11
30.2879
 21
36.0129
  0
LINE
  8
0
 10
30.2879
 20
36.0129
 11
30.075
 21
35.855
  0
LINE
  8
0
 10
30.075
 20
35.855
 11
29.8478
 21
35.7188
  0
LINE
  8
0
 10
29.8478
 20
35.7188
 11
29.6082
 21
35.6055
  0
LINE
  8
0
 10
29.6082
 20
35.6055
 11
29.3588
 21
35.5163
  0
LINE
  8
0
 10
29.3588
 20
35.5163
 11
29.1017
 21
35.4519
  0
LINE
  8
0
 10
29.1017
 20
35.4519
 11
28.8396
 21
35.413
  0
LINE
  8
0
 10
28.8396
 20
35.413
 11
28.575
 21
35.4
  0
LINE
  8
0
 10
28.575
 20
35.4
 11
28.3103
 21
35.413
  0
LINE
  8
0
 10
53.7103
 20
35.413
 11
53.4482
 21
35.4519
  0
LINE
  8
0
 10
53.4482
 20
35.4519
 11
53.1912
 21
35.5163
  0
LINE
  8
0
 10
53.1912
 20
35.5163
 11
52.9417
 21
35.6055
  0
LINE
  8
0
 10
52.9417
 20
35.6055
 11
52.7022
 21
35.7188
  0
LINE
  8
0
 10
52.7022
 20
35.7188
 11
52.475
 21
35.855
  0
LINE
  8
0
 10
52.475
 20
35.855
 11
52.2621
 21
36.0129
  0
LINE
  8
0
 10
52.2621
 20
36.0129
 11
52.0658
 21
36.1908
  0
LINE
  8
0
 10
52.0658
 20
36.1908
 11
51.8879
 21
36.3871
  0
LINE
  8
0
 10
51.8879
 20
36.3871
 11
51.73
 21
36.6
  0
LINE
  8
0
 10
51.73
 20
36.6
 11
51.5938
 21
36.8272
  0
LINE
  8
0
 10
51.5938
 20
36.8272
 11
51.4805
 21
37.0667
  0
LINE
  8
0
 10
51.4805
 20
37.0667
 11
51.3913
 21
37.3162
  0
LINE
  8
0
 10
51.3913
 20
37.3162
 11
51.3269
 21
37.5732
  0
LINE
  8
0
 10
51.3269
 20
37.5732
 11
51.288
 21
37.8353
  0
LINE
  8
0
 10
51.288
 20
37.8353
 11
51.275
 21
38.1
  0
LINE
  8
0
 10
51.275
 20
38.1
 11
51.288
 21
38.3646
  0
LINE
  8
0
 10
51.288
 20
38.3646
 11
51.3269
 21
38.6267
  0
LINE
  8
0
 10
51.3269
 20
38.6267
 11
51.3913
 21
38.8838
  0
LINE
  8
0
 10
51.3913
 20
38.8838
 11
51.4805
 21
39.1332
  0
LINE
  8
0
 10
51.4805
 20
39.1332
 11
51.5938
 21
39.3728
  0
LINE
  8
0
 10
51.5938
 20
39.3728
 11
51.73
 21
39.6
  0
LINE
  8
0
 10
51.73
 20
39.6
 11
51.8879
 21
39.8129
  0
LINE
  8
0
 10
51.8879
 20
39.8129
 11
52.0658
 21
40.0092
  0
LINE
  8
0
 10
52.0658
 20
40.0092
 11
52.2621
 21
40.1871
  0
LINE
  8
0
 10
52.2621
 20
40.1871
 11
52.475
 21
40.345
  0
LINE
  8
0
 10
52.475
 20
40.345
 11
52.7022
 21
40.4812
  0
LINE
  8
0
 10
52.7022
 20
40.4812
 11
52.9417
 21
40.5945
  0
LINE
  8
0
 10
52.9417
 20
40.5945
 11
53.1912
 21
40.6837
  0
LINE
  8
0
 10
53.1912
 20
40.6837
 11
53.4482
 21
40.7481
  0
LINE
  8
0
 10
53.4482
 20
40.7481
 11
53.7103
 21
40.787
  0
LINE
  8
0
 10
53.7103
 20
40.787
 11
53.975
 21
40.8
  0
LINE
  8
0
 10
53.975
 20
40.8
 11
54.2396
 21
40.787
  0
LINE
  8
0
 10
54.2396
 20
40.787
 11
54.5017
 21
40.7481
  0
LINE
  8
0
 10
54.5017
 20
40.7481
 11
54.7588
 21
40.6837
  0
LINE
  8
0
 10
54.7588
 20
40.6837
 11
55.0082
 21
40.5945
  0
LINE
  8
0
 10
55.0082
 20
40.5945
 11
55.2478
 21
40.4812
  0
LINE
  8
0
 10
55.2478
 20
40.4812
 11
55.475
 21
40.345
  0
LINE
  8
0
 10
55.475
 20
40.345
 11
55.6879
 21
40.1871
  0
LINE
  8
0
 10
55.6879
 20
40.1871
 11
55.8842
 21
40.0092
  0
LINE
  8
0
 10
55.8842
 20
40.0092
 11
56.0621
 21
39.8129
  0
LINE
  8
0
 10
56.0621
 20
39.8129
 11
56.22
 21
39.6
  0
LINE
  8
0
 10
56.22
 20
39.6
 11
56.3562
 21
39.3728
  0
LINE
  8
0
 10
56.3562
 20
39.3728
 11
56.4695
 21
39.1332
  0
LINE
  8
0
 10
56.4695
 20
39.1332
 11
56.5587
 21
38.8838
  0
LINE
  8
0
 10
56.5587
 20
38.8838
 11
56.6231
 21
38.6267
  0
LINE
  8
0
 10
56.6231
 20
38.6267
 11
56.662
 21
38.3646
  0
LINE
  8
0
 10
56.662
 20
38.3646
 11
56.675
 21
38.1
  0
LINE
  8
0
 10
56.675
 20
38.1
 11
56.662
 21
37.8353
  0
LINE
  8
0
 10
56.662
 20
37.8353
 11
56.6231
 21
37.5732
  0
LINE
  8
0
 10
56.6231
 20
37.5732
 11
56.5587
 21
37.3162
  0
LINE
  8
0
 10
56.5587
 20
37.3162
 11
56.4695
 21
37.0667
  0
LINE
  8
0
 10
56.4695
 20
37.0667
 11
56.3562
 21
36.8272
  0
LINE
  8
0
 10
56.3562
 20
36.8272
 11
56.22
 21
36.6
  0
LINE
  8
0
 10
56.22
 20
36.6
 11
56.0621
 21
36.3871
  0
LINE
  8
0
 10
56.0621
 20
36.3871
 11
55.8842
 21
36.1908
  0
LINE
  8
0
 10
55.8842
 20
36.1908
 11
55.6879
 21
36.0129
  0
LINE
  8
0
 10
55.6879
 20
36.0129
 11
55.475
 21
35.855
  0
LINE
  8
0
 10
55.475
 20
35.855
 11
55.2478
 21
35.7188
  0
LINE
  8
0
 10
55.2478
 20
35.7188
 11
55.0082
 21
35.6055
  0
LINE
  8
0
 10
55.0082
 20
35.6055
 11
54.7588
 21
35.5163
  0
LINE
  8
0
 10
54.7588
 20
35.5163
 11
54.5017
 21
35.4519
  0
LINE
  8
0
 10
54.5017
 20
35.4519
 11
54.2396
 21
35.413
  0
LINE
  8
0
 10
54.2396
 20
35.413
 11
53.975
 21
35.4
  0
LINE
  8
0
 10
53.975
 20
35.4
 11
53.7103
 21
35.413
  0
LINE
  8
0
 10
79.1104
 20
35.413
 11
78.8483
 21
35.4519
  0
LINE
  8
0
 10
78.8483
 20
35.4519
 11
78.5912
 21
35.5163
  0
LINE
  8
0
 10
78.5912
 20
35.5163
 11
78.3418
 21
35.6055
  0
LINE
  8
0
 10
78.3418
 20
35.6055
 11
78.1022
 21
35.7188
  0
LINE
  8
0
 10
78.1022
 20
35.7188
 11
77.875
 21
35.855
  0
LINE
  8
0
 10
77.875
 20
35.855
 11
77.6621
 21
36.0129
  0
LINE
  8
0
 10
77.6621
 20
36.0129
 11
77.4658
 21
36.1908
  0
LINE
  8
0
 10
77.4658
 20
36.1908
 11
77.2879
 21
36.3871
  0
LINE
  8
0
 10
77.2879
 20
36.3871
 11
77.13
 21
36.6
  0
LINE
  8
0
 10
77.13
 20
36.6
 11
76.9938
 21
36.8272
  0
LINE
  8
0
 10
76.9938
 20
36.8272
 11
76.8805
 21
37.0667
  0
LINE
  8
0
 10
76.8805
 20
37.0667
 11
76.7913
 21
37.3162
  0
LINE
  8
0
 10
76.7913
 20
37.3162
 11
76.7269
 21
37.5732
  0
LINE
  8
0
 10
76.7269
 20
37.5732
 11
76.688
 21
37.8353
  0
LINE
  8
0
 10
76.688
 20
37.8353
 11
76.675
 21
38.1
  0
LINE
  8
0
 10
76.675
 20
38.1
 11
76.688
 21
38.3646
  0
LINE
  8
0
 10
76.688
 20
38.3646
 11
76.7269
 21
38.6267
  0
LINE
  8
0
 10
76.7269
 20
38.6267
 11
76.7913
 21
38.8838
  0
LINE
  8
0
 10
76.7913
 20
38.8838
 11
76.8805
 21
39.1332
  0
LINE
  8
0
 10
76.8805
 20
39.1332
 11
76.9938
 21
39.3728
  0
LINE
  8
0
 10
76.9938
 20
39.3728
 11
77.13
 21
39.6
  0
LINE
  8
0
 10
77.13
 20
39.6
 11
77.2879
 21
39.8129
  0
LINE
  8
0
 10
77.2879
 20
39.8129
 11
77.4658
 21
40.0092
  0
LINE
  8
0
 10
77.4658
 20
40.0092
 11
77.6621
 21
40.1871
  0
LINE
  8
0
 10
77.6621
 20
40.1871
 11
77.875
 21
40.345
  0
LINE
  8
0
 10
77.875
 20
40.345
 11
78.1022
 21
40.4812
  0
LINE
  8
0
 10
78.1022
 20
40.4812
 11
78.3418
 21
40.5945
  0
LINE
  8
0
 10
78.3418
 20
40.5945
 11
78.5912
 21
40.6837
  0
LINE
  8
0
 10
78.5912
 20
40.6837
 11
78.8483
 21
40.7481
  0
LINE
  8
0
 10
78.8483
 20
40.7481
 11
79.1104
 21
40.787
  0
LINE
  8
0
 10
79.1104
 20
40.787
 11
79.375
 21
40.8
  0
LINE
  8
0
 10
79.375
 20
40.8
 11
79.6396
 21
40.787
  0
LINE
  8
0
 10
79.6396
 20
40.787
 11
79.9017
 21
40.7481
  0
LINE
  8
0
 10
79.9017
 20
40.7481
 11
80.1588
 21
40.6837
  0
LINE
  8
0
 10
80.1588
 20
40.6837
 11
80.4082
 21
40.5945
  0
LINE
  8
0
 10
80.4082
 20
40.5945
 11
80.6478
 21
40.4812
  0
LINE
  8
0
 10
80.6478
 20
40.4812
 11
80.875
 21
40.345
  0
LINE
  8
0
 10
80.875
 20
40.345
 11
81.0879
 21
40.1871
  0
LINE
  8
0
 10
81.0879
 20
40.1871
 11
81.2842
 21
40.0092
  0
LINE
  8
0
 10
81.2842
 20
40.0092
 11
81.4621
 21
39.8129
  0
LINE
  8
0
 10
81.4621
 20
39.8129
 11
81.62
 21
39.6
  0
LINE
  8
0
 10
81.62
 20
39.6
 11
81.7562
 21
39.3728
  0
LINE
  8
0
 10
81.7562
 20
39.3728
 11
81.8695
 21
39.1332
  0
LINE
  8
0
 10
81.8695
 20
39.1332
 11
81.9587
 21
38.8838
  0
LINE
  8
0
 10
81.9587
 20
38.8838
 11
82.0231
 21
38.6267
  0
LINE
  8
0
 10
82.0231
 20
38.6267
 11
82.062
 21
38.3646
  0
LINE
  8
0
 10
82.062
 20
38.3646
 11
82.075
 21
38.1
  0
LINE
  8
0
 10
82.075
 20
38.1
 11
82.062
 21
37.8353
  0
LINE
  8
0
 10
82.062
 20
37.8353
 11
82.0231
 21
37.5732
  0
LINE
  8
0
 10
82.0231
 20
37.5732
 11
81.9587
 21
37.3162
  0
LINE
  8
0
 10
81.9587
 20
37.3162
 11
81.8695
 21
37.0667
  0
LINE
  8
0
 10
81.8695
 20
37.0667
 11
81.7562
 21
36.8272
  0
LINE
  8
0
 10
81.7562
 20
36.8272
 11
81.62
 21
36.6
  0
LINE
  8
0
 10
81.62
 20
36.6
 11
81.4621
 21
36.3871
  0
LINE
  8
0
 10
81.4621
 20
36.3871
 11
81.2842
 21
36.1908
  0
LINE
  8
0
 10
81.2842
 20
36.1908
 11
81.0879
 21
36.0129
  0
LINE
  8
0
 10
81.0879
 20
36.0129
 11
80.875
 21
35.855
  0
LINE
  8
0
 10
80.875
 20
35.855
 11
80.6478
 21
35.7188
  0
LINE
  8
0
 10
80.6478
 20
35.7188
 11
80.4082
 21
35.6055
  0
LINE
  8
0
 10
80.4082
 20
35.6055
 11
80.1588
 21
35.5163
  0
LINE
  8
0
 10
80.1588
 20
35.5163
 11
79.9017
 21
35.4519
  0
LINE
  8
0
 10
79.9017
 20
35.4519
 11
79.6396
 21
35.413
  0
LINE
  8
0
 10
79.6396
 20
35.413
 11
79.375
 21
35.4
  0
LINE
  8
0
 10
79.375
 20
35.4
 11
79.1104
 21
35.413
  0
LINE
  8
0
 10
66.2045
 20
20.6231
 11
65.7386
 21
20.6922
  0
LINE
  8
0
 10
65.7386
 20
20.6922
 11
65.2816
 21
20.8067
  0
LINE
  8
0
 10
65.2816
 20
20.8067
 11
64.8381
 21
20.9654
  0
LINE
  8
0
 10
64.8381
 20
20.9654
 11
64.4123
 21
21.1668
  0
LINE
  8
0
 10
64.4123
 20
21.1668
 11
64.0083
 21
21.4089
  0
LINE
  8
0
 10
64.0083
 20
21.4089
 11
63.6299
 21
21.6895
  0
LINE
  8
0
 10
63.6299
 20
21.6895
 11
63.2809
 21
22.0059
  0
LINE
  8
0
 10
63.2809
 20
22.0059
 11
62.9645
 21
22.3549
  0
LINE
  8
0
 10
62.9645
 20
22.3549
 11
62.6839
 21
22.7333
  0
LINE
  8
0
 10
62.6839
 20
22.7333
 11
62.4418
 21
23.1373
  0
LINE
  8
0
 10
62.4418
 20
23.1373
 11
62.2404
 21
23.5631
  0
LINE
  8
0
 10
62.2404
 20
23.5631
 11
62.0817
 21
24.0066
  0
LINE
  8
0
 10
62.0817
 20
24.0066
 11
61.9672
 21
24.4636
  0
LINE
  8
0
 10
61.9672
 20
24.4636
 11
61.8981
 21
24.9295
  0
LINE
  8
0
 10
61.8981
 20
24.9295
 11
61.875
 21
25.4
  0
LINE
  8
0
 10
61.875
 20
25.4
 11
61.8981
 21
25.8705
  0
LINE
  8
0
 10
61.8981
 20
25.8705
 11
61.9672
 21
26.3364
  0
LINE
  8
0
 10
61.9672
 20
26.3364
 11
62.0817
 21
26.7934
  0
LINE
  8
0
 10
62.0817
 20
26.7934
 11
62.2404
 21
27.2369
  0
LINE
  8
0
 10
62.2404
 20
27.2369
 11
62.4418
 21
27.6627
  0
LINE
  8
0
 10
62.4418
 20
27.6627
 11
62.6839
 21
28.0667
  0
LINE
  8
0
 10
62.6839
 20
28.0667
 11
62.9645
 21
28.4451
  0
LINE
  8
0
 10
62.9645
 20
28.4451
 11
63.2809
 21
28.7941
  0
LINE
  8
0
 10
63.2809
 20
28.7941
 11
63.6299
 21
29.1104
  0
LINE
  8
0
 10
63.6299
 20
29.1104
 11
64.0083
 21
29.3911
  0
LINE
  8
0
 10
64.0083
 20
29.3911
 11
64.4123
 21
29.6332
  0
LINE
  8
0
 10
64.4123
 20
29.6332
 11
64.8381
 21
29.8346
  0
LINE
  8
0
 10
64.8381
 20
29.8346
 11
65.2816
 21
29.9933
  0
LINE
  8
0
 10
65.2816
 20
29.9933
 11
65.7386
 21
30.1078
  0
LINE
  8
0
 10
65.7386
 20
30.1078
 11
66.2045
 21
30.1769
  0
LINE
  8
0
 10
66.2045
 20
30.1769
 11
66.675
 21
30.2
  0
LINE
  8
0
 10
66.675
 20
30.2
 11
67.1455
 21
30.1769
  0
LINE
  8
0
 10
67.1455
 20
30.1769
 11
67.6114
 21
30.1078
  0
LINE
  8
0
 10
67.6114
 20
30.1078
 11
68.0684
 21
29.9933
  0
LINE
  8
0
 10
68.0684
 20
29.9933
 11
68.5119
 21
29.8346
  0
LINE
  8
0
 10
68.5119
 20
29.8346
 11
68.9377
 21
29.6332
  0
LINE
  8
0
 10
68.9377
 20
29.6332
 11
69.3417
 21
29.3911
  0
LINE
  8
0
 10
69.3417
 20
29.3911
 11
69.7201
 21
29.1104
  0
LINE
  8
0
 10
69.7201
 20
29.1104
 11
70.0691
 21
28.7941
  0
LINE
  8
0
 10
70.0691
 20
28.7941
 11
70.3854
 21
28.4451
  0
LINE
  8
0
 10
70.3854
 20
28.4451
 11
70.666
 21
28.0667
  0
LINE
  8
0
 10
70.666
 20
28.0667
 11
70.9082
 21
27.6627
  0
LINE
  8
0
 10
70.9082
 20
27.6627
 11
71.1096
 21
27.2369
  0
LINE
  8
0
 10
71.1096
 20
27.2369
 11
71.2683
 21
26.7934
  0
LINE
  8
0
 10
71.2683
 20
26.7934
 11
71.3828
 21
26.3364
  0
LINE
  8
0
 10
71.3828
 20
26.3364
 11
71.4519
 21
25.8705
  0
LINE
  8
0
 10
71.4519
 20
25.8705
 11
71.475
 21
25.4
  0
LINE
  8
0
 10
71.475
 20
25.4
 11
71.4519
 21
24.9295
  0
LINE
  8
0
 10
71.4519
 20
24.9295
 11
71.3828
 21
24.4636
  0
LINE
  8
0
 10
71.3828
 20
24.4636
 11
71.2683
 21
24.0066
  0
LINE
  8
0
 10
71.2683
 20
24.0066
 11
71.1096
 21
23.5631
  0
LINE
  8
0
 10
71.1096
 20
23.5631
 11
70.9082
 21
23.1373
  0
LINE
  8
0
 10
70.9082
 20
23.1373
 11
70.666
 21
22.7333
  0
LINE
  8
0
 10
70.666
 20
22.7333
 11
70.3854
 21
22.3549
  0
LINE
  8
0
 10
70.3854
 20
22.3549
 11
70.0691
 21
22.0059
  0
LINE
  8
0
 10
70.0691
 20
22.0059
 11
69.7201
 21
21.6895
  0
LINE
  8
0
 10
69.7201
 20
21.6895
 11
69.3417
 21
21.4089
  0
LINE
  8
0
 10
69.3417
 20
21.4089
 11
68.9377
 21
21.1668
  0
LINE
  8
0
 10
68.9377
 20
21.1668
 11
68.5119
 21
20.9654
  0
LINE
  8
0
 10
68.5119
 20
20.9654
 11
68.0684
 21
20.8067
  0
LINE
  8
0
 10
68.0684
 20
20.8067
 11
67.6114
 21
20.6922
  0
LINE
  8
0
 10
67.6114
 20
20.6922
 11
67.1455
 21
20.6231
  0
LINE
  8
0
 10
67.1455
 20
20.6231
 11
66.675
 21
20.6
  0
LINE
  8
0
 10
66.675
 20
20.6
 11
66.2045
 21
20.6231
  0
LINE
  8
0
 10
40.8045
 20
20.6231
 11
40.3386
 21
20.6922
  0
LINE
  8
0
 10
40.3386
 20
20.6922
 11
39.8816
 21
20.8067
  0
LINE
  8
0
 10
39.8816
 20
20.8067
 11
39.4381
 21
20.9654
  0
LINE
  8
0
 10
39.4381
 20
20.9654
 11
39.0123
 21
21.1668
  0
LINE
  8
0
 10
39.0123
 20
21.1668
 11
38.6083
 21
21.4089
  0
LINE
  8
0
 10
38.6083
 20
21.4089
 11
38.2299
 21
21.6895
  0
LINE
  8
0
 10
38.2299
 20
21.6895
 11
37.8809
 21
22.0059
  0
LINE
  8
0
 10
37.8809
 20
22.0059
 11
37.5645
 21
22.3549
  0
LINE
  8
0
 10
37.5645
 20
22.3549
 11
37.2839
 21
22.7333
  0
LINE
  8
0
 10
37.2839
 20
22.7333
 11
37.0418
 21
23.1373
  0
LINE
  8
0
 10
37.0418
 20
23.1373
 11
36.8404
 21
23.5631
  0
LINE
  8
0
 10
36.8404
 20
23.5631
 11
36.6817
 21
24.0066
  0
LINE
  8
0
 10
36.6817
 20
24.0066
 11
36.5672
 21
24.4636
  0
LINE
  8
0
 10
36.5672
 20
24.4636
 11
36.4981
 21
24.9295
  0
LINE
  8
0
 10
36.4981
 20
24.9295
 11
36.475
 21
25.4
  0
LINE
  8
0
 10
36.475
 20
25.4
 11
36.4981
 21
25.8705
  0
LINE
  8
0
 10
36.4981
 20
25.8705
 11
36.5672
 21
26.3364
  0
LINE
  8
0
 10
36.5672
 20
26.3364
 11
36.6817
 21
26.7934
  0
LINE
  8
0
 10
36.6817
 20
26.7934
 11
36.8404
 21
27.2369
  0
LINE
  8
0
 10
36.8404
 20
27.2369
 11
37.0418
 21
27.6627
  0
LINE
  8
0
 10
37.0418
 20
27.6627
 11
37.2839
 21
28.0667
  0
LINE
  8
0
 10
37.2839
 20
28.0667
 11
37.5645
 21
28.4451
  0
LINE
  8
0
 10
37.5645
 20
28.4451
 11
37.8809
 21
28.7941
  0
LINE
  8
0
 10
37.8809
 20
28.7941
 11
38.2299
 21
29.1104
  0
LINE
  8
0
 10
38.2299
 20
29.1104
 11
38.6083
 21
29.3911
  0
LINE
  8
0
 10
38.6083
 20
29.3911
 11
39.0123
 21
29.6332
  0
LINE
  8
0
 10
39.0123
 20
29.6332
 11
39.4381
 21
29.8346
  0
LINE
  8
0
 10
39.4381
 20
29.8346
 11
39.8816
 21
29.9933
  0
LINE
  8
0
 10
39.8816
 20
29.9933
 11
40.3386
 21
30.1078
  0
LINE
  8
0
 10
40.3386
 20
30.1078
 11
40.8045
 21
30.1769
  0
LINE
  8
0
 10
40.8045
 20
30.1769
 11
41.275
 21
30.2
  0
LINE
  8
0
 10
41.275
 20
30.2
 11
41.7455
 21
30.1769
  0
LINE
  8
0
 10
41.7455
 20
30.1769
 11
42.2114
 21
30.1078
  0
LINE
  8
0
 10
42.2114
 20
30.1078
 11
42.6684
 21
29.9933
  0
LINE
  8
0
 10
42.6684
 20
29.9933
 11
43.1119
 21
29.8346
  0
LINE
  8
0
 10
43.1119
 20
29.8346
 11
43.5377
 21
29.6332
  0
LINE
  8
0
 10
43.5377
 20
29.6332
 11
43.9417
 21
29.3911
  0
LINE
  8
0
 10
43.9417
 20
29.3911
 11
44.3201
 21
29.1104
  0
LINE
  8
0
 10
44.3201
 20
29.1104
 11
44.6691
 21
28.7941
  0
LINE
  8
0
 10
44.6691
 20
28.7941
 11
44.9854
 21
28.4451
  0
LINE
  8
0
 10
44.9854
 20
28.4451
 11
45.2661
 21
28.0667
  0
LINE
  8
0
 10
45.2661
 20
28.0667
 11
45.5082
 21
27.6627
  0
LINE
  8
0
 10
45.5082
 20
27.6627
 11
45.7096
 21
27.2369
  0
LINE
  8
0
 10
45.7096
 20
27.2369
 11
45.8683
 21
26.7934
  0
LINE
  8
0
 10
45.8683
 20
26.7934
 11
45.9828
 21
26.3364
  0
LINE
  8
0
 10
45.9828
 20
26.3364
 11
46.0519
 21
25.8705
  0
LINE
  8
0
 10
46.0519
 20
25.8705
 11
46.075
 21
25.4
  0
LINE
  8
0
 10
46.075
 20
25.4
 11
46.0519
 21
24.9295
  0
LINE
  8
0
 10
46.0519
 20
24.9295
 11
45.9828
 21
24.4636
  0
LINE
  8
0
 10
45.9828
 20
24.4636
 11
45.8683
 21
24.0066
  0
LINE
  8
0
 10
45.8683
 20
24.0066
 11
45.7096
 21
23.5631
  0
LINE
  8
0
 10
45.7096
 20
23.5631
 11
45.5082
 21
23.1373
  0
LINE
  8
0
 10
45.5082
 20
23.1373
 11
45.2661
 21
22.7333
  0
LINE
  8
0
 10
45.2661
 20
22.7333
 11
44.9854
 21
22.3549
  0
LINE
  8
0
 10
44.9854
 20
22.3549
 11
44.6691
 21
22.0059
  0
LINE
  8
0
 10
44.6691
 20
22.0059
 11
44.3201
 21
21.6895
  0
LINE
  8
0
 10
44.3201
 20
21.6895
 11
43.9417
 21
21.4089
  0
LINE
  8
0
 10
43.9417
 20
21.4089
 11
43.5377
 21
21.1668
  0
LINE
  8
0
 10
43.5377
 20
21.1668
 11
43.1119
 21
20.9654
  0
LINE
  8
0
 10
43.1119
 20
20.9654
 11
42.6684
 21
20.8067
  0
LINE
  8
0
 10
42.6684
 20
20.8067
 11
42.2114
 21
20.6922
  0
LINE
  8
0
 10
42.2114
 20
20.6922
 11
41.7455
 21
20.6231
  0
LINE
  8
0
 10
41.7455
 20
20.6231
 11
41.275
 21
20.6
  0
LINE
  8
0
 10
41.275
 20
20.6
 11
40.8045
 21
20.6231
  0
LINE
  8
0
 10
15.4045
 20
20.6231
 11
14.9386
 21
20.6922
  0
LINE
  8
0
 10
14.9386
 20
20.6922
 11
14.4816
 21
20.8067
  0
LINE
  8
0
 10
14.4816
 20
20.8067
 11
14.0381
 21
20.9654
  0
LINE
  8
0
 10
14.0381
 20
20.9654
 11
13.6123
 21
21.1668
  0
LINE
  8
0
 10
13.6123
 20
21.1668
 11
13.2083
 21
21.4089
  0
LINE
  8
0
 10
13.2083
 20
21.4089
 11
12.8299
 21
21.6895
  0
LINE
  8
0
 10
12.8299
 20
21.6895
 11
12.4809
 21
22.0059
  0
LINE
  8
0
 10
12.4809
 20
22.0059
 11
12.1645
 21
22.3549
  0
LINE
  8
0
 10
12.1645
 20
22.3549
 11
11.8839
 21
22.7333
  0
LINE
  8
0
 10
11.8839
 20
22.7333
 11
11.6418
 21
23.1373
  0
LINE
  8
0
 10
11.6418
 20
23.1373
 11
11.4404
 21
23.5631
  0
LINE
  8
0
 10
11.4404
 20
23.5631
 11
11.2817
 21
24.0066
  0
LINE
  8
0
 10
11.2817
 20
24.0066
 11
11.1672
 21
24.4636
  0
LINE
  8
0
 10
11.1672
 20
24.4636
 11
11.0981
 21
24.9295
  0
LINE
  8
0
 10
11.0981
 20
24.9295
 11
11.075
 21
25.4
  0
LINE
  8
0
 10
11.075
 20
25.4
 11
11.0981
 21
25.8705
  0
LINE
  8
0
 10
11.0981
 20
25.8705
 11
11.1672
 21
26.3364
  0
LINE
  8
0
 10
11.1672
 20
26.3364
 11
11.2817
 21
26.7934
  0
LINE
  8
0
 10
11.2817
 20
26.7934
 11
11.4404
 21
27.2369
  0
LINE
  8
0
 10
11.4404
 20
27.2369
 11
11.6418
 21
27.6627
  0
LINE
  8
0
 10
11.6418
 20
27.6627
 11
11.8839
 21
28.0667
  0
LINE
  8
0
 10
11.8839
 20
28.0667
 11
12.1645
 21
28.4451
  0
LINE
  8
0
 10
12.1645
 20
28.4451
 11
12.4809
 21
28.7941
  0
LINE
  8
0
 10
12.4809
 20
28.7941
 11
12.8299
 21
29.1104
  0
LINE
  8
0
 10
12.8299
 20
29.1104
 11
13.2083
 21
29.3911
  0
LINE
  8
0
 10
13.2083
 20
29.3911
 11
13.6123
 21
29.6332
  0
LINE
  8
0
 10
13.6123
 20
29.6332
 11
14.0381
 21
29.8346
  0
LINE
  8
0
 10
14.0381
 20
29.8346
 11
14.4816
 21
29.9933
  0
LINE
  8
0
 10
14.4816
 20
29.9933
 11
14.9386
 21
30.1078
  0
LINE
  8
0
 10
14.9386
 20
30.1078
 11
15.4045
 21
30.1769
  0
LINE
  8
0
 10
15.4045
 20
30.1769
 11
15.875
 21
30.2
  0
LINE
  8
0
 10
15.875
 20
30.2
 11
16.3455
 21
30.1769
  0
LINE
  8
0
 10
16.3455
 20
30.1769
 11
16.8114
 21
30.1078
  0
LINE
  8
0
 10
16.8114
 20
30.1078
 11
17.2684
 21
29.9933
  0
LINE
  8
0
 10
17.2684
 20
29.9933
 11
17.7119
 21
29.8346
  0
LINE
  8
0
 10
17.7119
 20
29.8346
 11
18.1377
 21
29.6332
  0
LINE
  8
0
 10
18.1377
 20
29.6332
 11
18.5417
 21
29.3911
  0
LINE
  8
0
 10
18.5417
 20
29.3911
 11
18.9201
 21
29.1104
  0
LINE
  8
0
 10
18.9201
 20
29.1104
 11
19.2691
 21
28.7941
  0
LINE
  8
0
 10
19.2691
 20
28.7941
 11
19.5854
 21
28.4451
  0
LINE
  8
0
 10
19.5854
 20
28.4451
 11
19.866
 21
28.0667
  0
LINE
  8
0
 10
19.866
 20
28.0667
 11
20.1082
 21
27.6627
  0
LINE
  8
0
 10
20.1082
 20
27.6627
 11
20.3096
 21
27.2369
  0
LINE
  8
0
 10
20.3096
 20
27.2369
 11
20.4683
 21
26.7934
  0
LINE
  8
0
 10
20.4683
 20
26.7934
 11
20.5828
 21
26.3364
  0
LINE
  8
0
 10
20.5828
 20
26.3364
 11
20.6519
 21
25.8705
  0
LINE
  8
0
 10
20.6519
 20
25.8705
 11
20.675
 21
25.4
  0
LINE
  8
0
 10
20.675
 20
25.4
 11
20.6519
 21
24.9295
  0
LINE
  8
0
 10
20.6519
 20
24.9295
 11
20.5828
 21
24.4636
  0
LINE
  8
0
 10
20.5828
 20
24.4636
 11
20.4683
 21
24.0066
  0
LINE
  8
0
 10
20.4683
 20
24.0066
 11
20.3096
 21
23.5631
  0
LINE
  8
0
 10
20.3096
 20
23.5631
 11
20.1082
 21
23.1373
  0
LINE
  8
0
 10
20.1082
 20
23.1373
 11
19.866
 21
22.7333
  0
LINE
  8
0
 10
19.866
 20
22.7333
 11
19.5854
 21
22.3549
  0
LINE
  8
0
 10
19.5854
 20
22.3549
 11
19.2691
 21
22.0059
  0
LINE
  8
0
 10
19.2691
 20
22.0059
 11
18.9201
 21
21.6895
  0
LINE
  8
0
 10
18.9201
 20
21.6895
 11
18.5417
 21
21.4089
  0
LINE
  8
0
 10
18.5417
 20
21.4089
 11
18.1377
 21
21.1668
  0
LINE
  8
0
 10
18.1377
 20
21.1668
 11
17.7119
 21
20.9654
  0
LINE
  8
0
 10
17.7119
 20
20.9654
 11
17.2684
 21
20.8067
  0
LINE
  8
0
 10
17.2684
 20
20.8067
 11
16.8114
 21
20.6922
  0
LINE
  8
0
 10
16.8114
 20
20.6922
 11
16.3455
 21
20.6231
  0
LINE
  8
0
 10
16.3455
 20
20.6231
 11
15.875
 21
20.6
  0
LINE
  8
0
 10
15.875
 20
20.6
 11
15.4045
 21
20.6231
  0
LINE
  8
0
 10
91.6045
 20
20.6231
 11
91.1386
 21
20.6922
  0
LINE
  8
0
 10
91.1386
 20
20.6922
 11
90.6816
 21
20.8067
  0
LINE
  8
0
 10
90.6816
 20
20.8067
 11
90.2381
 21
20.9654
  0
LINE
  8
0
 10
90.2381
 20
20.9654
 11
89.8123
 21
21.1668
  0
LINE
  8
0
 10
89.8123
 20
21.1668
 11
89.4082
 21
21.4089
  0
LINE
  8
0
 10
89.4082
 20
21.4089
 11
89.0299
 21
21.6895
  0
LINE
  8
0
 10
89.0299
 20
21.6895
 11
88.6809
 21
22.0059
  0
LINE
  8
0
 10
88.6809
 20
22.0059
 11
88.3645
 21
22.3549
  0
LINE
  8
0
 10
88.3645
 20
22.3549
 11
88.0839
 21
22.7333
  0
LINE
  8
0
 10
88.0839
 20
22.7333
 11
87.8418
 21
23.1373
  0
LINE
  8
0
 10
87.8418
 20
23.1373
 11
87.6404
 21
23.5631
  0
LINE
  8
0
 10
87.6404
 20
23.5631
 11
87.4817
 21
24.0066
  0
LINE
  8
0
 10
87.4817
 20
24.0066
 11
87.3672
 21
24.4636
  0
LINE
  8
0
 10
87.3672
 20
24.4636
 11
87.2981
 21
24.9295
  0
LINE
  8
0
 10
87.2981
 20
24.9295
 11
87.275
 21
25.4
  0
LINE
  8
0
 10
87.275
 20
25.4
 11
87.2981
 21
25.8705
  0
LINE
  8
0
 10
87.2981
 20
25.8705
 11
87.3672
 21
26.3364
  0
LINE
  8
0
 10
87.3672
 20
26.3364
 11
87.4817
 21
26.7934
  0
LINE
  8
0
 10
87.4817
 20
26.7934
 11
87.6404
 21
27.2369
  0
LINE
  8
0
 10
87.6404
 20
27.2369
 11
87.8418
 21
27.6627
  0
LINE
  8
0
 10
87.8418
 20
27.6627
 11
88.0839
 21
28.0667
  0
LINE
  8
0
 10
88.0839
 20
28.0667
 11
88.3645
 21
28.4451
  0
LINE
  8
0
 10
88.3645
 20
28.4451
 11
88.6809
 21
28.7941
  0
LINE
  8
0
 10
88.6809
 20
28.7941
 11
89.0299
 21
29.1104
  0
LINE
  8
0
 10
89.0299
 20
29.1104
 11
89.4082
 21
29.3911
  0
LINE
  8
0
 10
89.4082
 20
29.3911
 11
89.8123
 21
29.6332
  0
LINE
  8
0
 10
89.8123
 20
29.6332
 11
90.2381
 21
29.8346
  0
LINE
  8
0
 10
90.2381
 20
29.8346
 11
90.6816
 21
29.9933
  0
LINE
  8
0
 10
90.6816
 20
29.9933
 11
91.1386
 21
30.1078
  0
LINE
  8
0
 10
91.1386
 20
30.1078
 11
91.6045
 21
30.1769
  0
LINE
  8
0
 10
91.6045
 20
30.1769
 11
92.075
 21
30.2
  0
LINE
  8
0
 10
92.075
 20
30.2
 11
92.5455
 21
30.1769
  0
LINE
  8
0
 10
92.5455
 20
30.1769
 11
93.0114
 21
30.1078
  0
LINE
  8
0
 10
93.0114
 20
30.1078
 11
93.4684
 21
29.9933
  0
LINE
  8
0
 10
93.4684
 20
29.9933
 11
93.9119
 21
29.8346
  0
LINE
  8
0
 10
93.9119
 20
29.8346
 11
94.3377
 21
29.6332
  0
LINE
  8
0
 10
94.3377
 20
29.6332
 11
94.7417
 21
29.3911
  0
LINE
  8
0
 10
94.7417
 20
29.3911
 11
95.1201
 21
29.1104
  0
LINE
  8
0
 10
95.1201
 20
29.1104
 11
95.4691
 21
28.7941
  0
LINE
  8
0
 10
95.4691
 20
28.7941
 11
95.7854
 21
28.4451
  0
LINE
  8
0
 10
95.7854
 20
28.4451
 11
96.066
 21
28.0667
  0
LINE
  8
0
 10
96.066
 20
28.0667
 11
96.3082
 21
27.6627
  0
LINE
  8
0
 10
96.3082
 20
27.6627
 11
96.5096
 21
27.2369
  0
LINE
  8
0
 10
96.5096
 20
27.2369
 11
96.6683
 21
26.7934
  0
LINE
  8
0
 10
96.6683
 20
26.7934
 11
96.7828
 21
26.3364
  0
LINE
  8
0
 10
96.7828
 20
26.3364
 11
96.8519
 21
25.8705
  0
LINE
  8
0
 10
96.8519
 20
25.8705
 11
96.875
 21
25.4
  0
LINE
  8
0
 10
96.875
 20
25.4
 11
96.8519
 21
24.9295
  0
LINE
  8
0
 10
96.8519
 20
24.9295
 11
96.7828
 21
24.4636
  0
LINE
  8
0
 10
96.7828
 20
24.4636
 11
96.6683
 21
24.0066
  0
LINE
  8
0
 10
96.6683
 20
24.0066
 11
96.5096
 21
23.5631
  0
LINE
  8
0
 10
96.5096
 20
23.5631
 11
96.3082
 21
23.1373
  0
LINE
  8
0
 10
96.3082
 20
23.1373
 11
96.066
 21
22.7333
  0
LINE
  8
0
 10
96.066
 20
22.7333
 11
95.7854
 21
22.3549
  0
LINE
  8
0
 10
95.7854
 20
22.3549
 11
95.4691
 21
22.0059
  0
LINE
  8
0
 10
95.4691
 20
22.0059
 11
95.1201
 21
21.6895
  0
LINE
  8
0
 10
95.1201
 20
21.6895
 11
94.7417
 21
21.4089
  0
LINE
  8
0
 10
94.7417
 20
21.4089
 11
94.3377
 21
21.1668
  0
LINE
  8
0
 10
94.3377
 20
21.1668
 11
93.9119
 21
20.9654
  0
LINE
  8
0
 10
93.9119
 20
20.9654
 11
93.4684
 21
20.8067
  0
LINE
  8
0
 10
93.4684
 20
20.8067
 11
93.0114
 21
20.6922
  0
LINE
  8
0
 10
93.0114
 20
20.6922
 11
92.5455
 21
20.6231
  0
LINE
  8
0
 10
92.5455
 20
20.6231
 11
92.075
 21
20.6
  0
LINE
  8
0
 10
92.075
 20
20.6
 11
91.6045
 21
20.6231
  0
LINE
  8
0
 10
98.7932
 20
4.75771
 11
98.6378
 21
4.78075
  0
LINE
  8
0
 10
98.6378
 20
4.78075
 11
98.4855
 21
4.81889
  0
LINE
  8
0
 10
98.4855
 20
4.81889
 11
98.3377
 21
4.8718
  0
LINE
  8
0
 10
98.3377
 20
4.8718
 11
98.1958
 21
4.93893
  0
LINE
  8
0
 10
98.1958
 20
4.93893
 11
98.0611
 21
5.01965
  0
LINE
  8
0
 10
98.0611
 20
5.01965
 11
97.935
 21
5.11319
  0
LINE
  8
0
 10
97.935
 20
5.11319
 11
97.8186
 21
5.21863
  0
LINE
  8
0
 10
97.8186
 20
5.21863
 11
97.7132
 21
5.33498
  0
LINE
  8
0
 10
97.7132
 20
5.33498
 11
97.6196
 21
5.46109
  0
LINE
  8
0
 10
97.6196
 20
5.46109
 11
97.5389
 21
5.59576
  0
LINE
  8
0
 10
97.5389
 20
5.59576
 11
97.4718
 21
5.7377
  0
LINE
  8
0
 10
97.4718
 20
5.7377
 11
97.4189
 21
5.88554
  0
LINE
  8
0
 10
97.4189
 20
5.88554
 11
97.3807
 21
6.03786
  0
LINE
  8
0
 10
97.3807
 20
6.03786
 11
97.3577
 21
6.19318
  0
LINE
  8
0
 10
97.3577
 20
6.19318
 11
97.35
 21
6.35001
  0
LINE
  8
0
 10
97.35
 20
6.35001
 11
97.3577
 21
6.50684
  0
LINE
  8
0
 10
97.3577
 20
6.50684
 11
97.3807
 21
6.66214
  0
LINE
  8
0
 10
97.3807
 20
6.66214
 11
97.4189
 21
6.81445
  0
LINE
  8
0
 10
97.4189
 20
6.81445
 11
97.4718
 21
6.9623
  0
LINE
  8
0
 10
97.4718
 20
6.9623
 11
97.5389
 21
7.10423
  0
LINE
  8
0
 10
97.5389
 20
7.10423
 11
97.6196
 21
7.23891
  0
LINE
  8
0
 10
97.6196
 20
7.23891
 11
97.7132
 21
7.36504
  0
LINE
  8
0
 10
97.7132
 20
7.36504
 11
97.8186
 21
7.48137
  0
LINE
  8
0
 10
97.8186
 20
7.48137
 11
97.935
 21
7.58682
  0
LINE
  8
0
 10
97.935
 20
7.58682
 11
98.0611
 21
7.68036
  0
LINE
  8
0
 10
98.0611
 20
7.68036
 11
98.1958
 21
7.76108
  0
LINE
  8
0
 10
98.1958
 20
7.76108
 11
98.3377
 21
7.8282
  0
LINE
  8
0
 10
98.3377
 20
7.8282
 11
98.4855
 21
7.8811
  0
LINE
  8
0
 10
98.4855
 20
7.8811
 11
98.6378
 21
7.91925
  0
LINE
  8
0
 10
98.6378
 20
7.91925
 11
98.7932
 21
7.94229
  0
LINE
  8
0
 10
98.7932
 20
7.94229
 11
98.95
 21
7.95
  0
LINE
  8
0
 10
98.95
 20
7.95
 11
99.1068
 21
7.94229
  0
LINE
  8
0
 10
99.1068
 20
7.94229
 11
99.2621
 21
7.91925
  0
LINE
  8
0
 10
99.2621
 20
7.91925
 11
99.4144
 21
7.8811
  0
LINE
  8
0
 10
99.4144
 20
7.8811
 11
99.5623
 21
7.8282
  0
LINE
  8
0
 10
99.5623
 20
7.8282
 11
99.7042
 21
7.76108
  0
LINE
  8
0
 10
99.7042
 20
7.76108
 11
99.8389
 21
7.68036
  0
LINE
  8
0
 10
99.8389
 20
7.68036
 11
99.965
 21
7.58682
  0
LINE
  8
0
 10
99.965
 20
7.58682
 11
100.081
 21
7.48137
  0
LINE
  8
0
 10
100.081
 20
7.48137
 11
100.187
 21
7.36504
  0
LINE
  8
0
 10
100.187
 20
7.36504
 11
100.28
 21
7.23891
  0
LINE
  8
0
 10
100.28
 20
7.23891
 11
100.361
 21
7.10423
  0
LINE
  8
0
 10
100.361
 20
7.10423
 11
100.428
 21
6.9623
  0
LINE
  8
0
 10
100.428
 20
6.9623
 11
100.481
 21
6.81445
  0
LINE
  8
0
 10
100.481
 20
6.81445
 11
100.519
 21
6.66214
  0
LINE
  8
0
 10
100.519
 20
6.66214
 11
100.542
 21
6.50684
  0
LINE
  8
0
 10
100.542
 20
6.50684
 11
100.55
 21
6.35001
  0
LINE
  8
0
 10
100.55
 20
6.35001
 11
100.542
 21
6.19318
  0
LINE
  8
0
 10
100.542
 20
6.19318
 11
100.519
 21
6.03786
  0
LINE
  8
0
 10
100.519
 20
6.03786
 11
100.481
 21
5.88554
  0
LINE
  8
0
 10
100.481
 20
5.88554
 11
100.428
 21
5.7377
  0
LINE
  8
0
 10
100.428
 20
5.7377
 11
100.361
 21
5.59576
  0
LINE
  8
0
 10
100.361
 20
5.59576
 11
100.28
 21
5.46109
  0
LINE
  8
0
 10
100.28
 20
5.46109
 11
100.187
 21
5.33498
  0
LINE
  8
0
 10
100.187
 20
5.33498
 11
100.081
 21
5.21863
  0
LINE
  8
0
 10
100.081
 20
5.21863
 11
99.965
 21
5.11319
  0
LINE
  8
0
 10
99.965
 20
5.11319
 11
99.8389
 21
5.01965
  0
LINE
  8
0
 10
99.8389
 20
5.01965
 11
99.7042
 21
4.93893
  0
LINE
  8
0
 10
99.7042
 20
4.93893
 11
99.5623
 21
4.8718
  0
LINE
  8
0
 10
99.5623
 20
4.8718
 11
99.4144
 21
4.81889
  0
LINE
  8
0
 10
99.4144
 20
4.81889
 11
99.2621
 21
4.78075
  0
LINE
  8
0
 10
99.2621
 20
4.78075
 11
99.1068
 21
4.75771
  0
LINE
  8
0
 10
99.1068
 20
4.75771
 11
98.95
 21
4.75
  0
LINE
  8
0
 10
98.95
 20
4.75
 11
98.7932
 21
4.75771
  0
LINE
  8
0
 10
8.84317
 20
4.75771
 11
8.68785
 21
4.78075
  0
LINE
  8
0
 10
8.68785
 20
4.78075
 11
8.53554
 21
4.81889
  0
LINE
  8
0
 10
8.53554
 20
4.81889
 11
8.38771
 21
4.8718
  0
LINE
  8
0
 10
8.38771
 20
4.8718
 11
8.24576
 21
4.93893
  0
LINE
  8
0
 10
8.24576
 20
4.93893
 11
8.11108
 21
5.01965
  0
LINE
  8
0
 10
8.11108
 20
5.01965
 11
7.98497
 21
5.11319
  0
LINE
  8
0
 10
7.98497
 20
5.11319
 11
7.86862
 21
5.21863
  0
LINE
  8
0
 10
7.86862
 20
5.21863
 11
7.76318
 21
5.33498
  0
LINE
  8
0
 10
7.76318
 20
5.33498
 11
7.66965
 21
5.46109
  0
LINE
  8
0
 10
7.66965
 20
5.46109
 11
7.58893
 21
5.59576
  0
LINE
  8
0
 10
7.58893
 20
5.59576
 11
7.52179
 21
5.7377
  0
LINE
  8
0
 10
7.52179
 20
5.7377
 11
7.46889
 21
5.88554
  0
LINE
  8
0
 10
7.46889
 20
5.88554
 11
7.43074
 21
6.03786
  0
LINE
  8
0
 10
7.43074
 20
6.03786
 11
7.4077
 21
6.19318
  0
LINE
  8
0
 10
7.4077
 20
6.19318
 11
7.39999
 21
6.35001
  0
LINE
  8
0
 10
7.39999
 20
6.35001
 11
7.4077
 21
6.50684
  0
LINE
  8
0
 10
7.4077
 20
6.50684
 11
7.43074
 21
6.66214
  0
LINE
  8
0
 10
7.43074
 20
6.66214
 11
7.46889
 21
6.81445
  0
LINE
  8
0
 10
7.46889
 20
6.81445
 11
7.52179
 21
6.9623
  0
LINE
  8
0
 10
7.52179
 20
6.9623
 11
7.58893
 21
7.10423
  0
LINE
  8
0
 10
7.58893
 20
7.10423
 11
7.66965
 21
7.23891
  0
LINE
  8
0
 10
7.66965
 20
7.23891
 11
7.76318
 21
7.36504
  0
LINE
  8
0
 10
7.76318
 20
7.36504
 11
7.86862
 21
7.48137
  0
LINE
  8
0
 10
7.86862
 20
7.48137
 11
7.98497
 21
7.58682
  0
LINE
  8
0
 10
7.98497
 20
7.58682
 11
8.11108
 21
7.68036
  0
LINE
  8
0
 10
8.11108
 20
7.68036
 11
8.24576
 21
7.76108
  0
LINE
  8
0
 10
8.24576
 20
7.76108
 11
8.38771
 21
7.8282
  0
LINE
  8
0
 10
8.38771
 20
7.8282
 11
8.53554
 21
7.8811
  0
LINE
  8
0
 10
8.53554
 20
7.8811
 11
8.68785
 21
7.91925
  0
LINE
  8
0
 10
8.68785
 20
7.91925
 11
8.84317
 21
7.94229
  0
LINE
  8
0
 10
8.84317
 20
7.94229
 11
9
 21
7.95
  0
LINE
  8
0
 10
9
 20
7.95
 11
9.15683
 21
7.94229
  0
LINE
  8
0
 10
9.15683
 20
7.94229
 11
9.31215
 21
7.91925
  0
LINE
  8
0
 10
9.31215
 20
7.91925
 11
9.46445
 21
7.8811
  0
LINE
  8
0
 10
9.46445
 20
7.8811
 11
9.61229
 21
7.8282
  0
LINE
  8
0
 10
9.61229
 20
7.8282
 11
9.75423
 21
7.76108
  0
LINE
  8
0
 10
9.75423
 20
7.76108
 11
9.88892
 21
7.68036
  0
LINE
  8
0
 10
9.88892
 20
7.68036
 11
10.015
 21
7.58682
  0
LINE
  8
0
 10
10.015
 20
7.58682
 11
10.1314
 21
7.48137
  0
LINE
  8
0
 10
10.1314
 20
7.48137
 11
10.2368
 21
7.36504
  0
LINE
  8
0
 10
10.2368
 20
7.36504
 11
10.3304
 21
7.23891
  0
LINE
  8
0
 10
10.3304
 20
7.23891
 11
10.4111
 21
7.10423
  0
LINE
  8
0
 10
10.4111
 20
7.10423
 11
10.4782
 21
6.9623
  0
LINE
  8
0
 10
10.4782
 20
6.9623
 11
10.5311
 21
6.81445
  0
LINE
  8
0
 10
10.5311
 20
6.81445
 11
10.5693
 21
6.66214
  0
LINE
  8
0
 10
10.5693
 20
6.66214
 11
10.5923
 21
6.50684
  0
LINE
  8
0
 10
10.5923
 20
6.50684
 11
10.6
 21
6.35001
  0
LINE
  8
0
 10
10.6
 20
6.35001
 11
10.5923
 21
6.19318
  0
LINE
  8
0
 10
10.5923
 20
6.19318
 11
10.5693
 21
6.03786
  0
LINE
  8
0
 10
10.5693
 20
6.03786
 11
10.5311
 21
5.88554
  0
LINE
  8
0
 10
10.5311
 20
5.88554
 11
10.4782
 21
5.7377
  0
LINE
  8
0
 10
10.4782
 20
5.7377
 11
10.4111
 21
5.59576
  0
LINE
  8
0
 10
10.4111
 20
5.59576
 11
10.3304
 21
5.46109
  0
LINE
  8
0
 10
10.3304
 20
5.46109
 11
10.2368
 21
5.33498
  0
LINE
  8
0
 10
10.2368
 20
5.33498
 11
10.1314
 21
5.21863
  0
LINE
  8
0
 10
10.1314
 20
5.21863
 11
10.015
 21
5.11319
  0
LINE
  8
0
 10
10.015
 20
5.11319
 11
9.88892
 21
5.01965
  0
LINE
  8
0
 10
9.88892
 20
5.01965
 11
9.75423
 21
4.93893
  0
LINE
  8
0
 10
9.75423
 20
4.93893
 11
9.61229
 21
4.8718
  0
LINE
  8
0
 10
9.61229
 20
4.8718
 11
9.46445
 21
4.81889
  0
LINE
  8
0
 10
9.46445
 20
4.81889
 11
9.31215
 21
4.78075
  0
LINE
  8
0
 10
9.31215
 20
4.78075
 11
9.15683
 21
4.75771
  0
LINE
  8
0
 10
9.15683
 20
4.75771
 11
9
 21
4.75
  0
LINE
  8
0
 10
9
 20
4.75
 11
8.84317
 21
4.75771
  0
ENDSEC
  0
SECTION
  2
OBJECTS
  0
DICTIONARY
  0
ENDSEC
  0
EOF
